<?xml version="1.0" encoding="UTF-8" standalone="no"?>
<svg
   xmlns:dc="http://purl.org/dc/elements/1.1/"
   xmlns:cc="http://creativecommons.org/ns#"
   xmlns:rdf="http://www.w3.org/1999/02/22-rdf-syntax-ns#"
   xmlns:svg="http://www.w3.org/2000/svg"
   xmlns="http://www.w3.org/2000/svg"
   xmlns:sodipodi="http://sodipodi.sourceforge.net/DTD/sodipodi-0.dtd"
   xmlns:inkscape="http://www.inkscape.org/namespaces/inkscape"
   inkscape:version="0.92+devel (f26608d5cc, 2018-12-29, custom)"
   sodipodi:docname="x-office-calendar.svg"
   id="svg837"
   version="1.1"
   height="16"
   width="16">
  <metadata
     id="metadata843">
    <rdf:RDF>
      <cc:Work
         rdf:about="">
        <dc:format>image/svg+xml</dc:format>
        <dc:type
           rdf:resource="http://purl.org/dc/dcmitype/StillImage" />
      </cc:Work>
    </rdf:RDF>
  </metadata>
  <defs
     id="defs841" />
  <sodipodi:namedview
     inkscape:current-layer="svg837"
     inkscape:cy="8"
     inkscape:cx="8.0993789"
     inkscape:zoom="20.125"
     showgrid="false"
     id="namedview839"
     inkscape:window-height="480"
     inkscape:window-width="640"
     inkscape:pageshadow="2"
     inkscape:pageopacity="0"
     guidetolerance="10"
     gridtolerance="10"
     objecttolerance="10"
     borderopacity="1"
     inkscape:document-rotation="0"
     bordercolor="#666666"
     pagecolor="#ffffff" />
  <path
     style="fill:#2196f3;fill-opacity:1"
     id="path833"
     d="M3.984-.014A1 1 0 0 0 3 1v1H2a1 1 0 0 0-1 1v11a1 1 0 0 0 1 1h12a1 1 0 0 0 1-1V3a1 1 0 0 0-1-1h-1V1a1 1 0 0 0-1.016-1.014A1 1 0 0 0 11 1v1H5V1A1 1 0 0 0 3.984-.014zM3 5h10v8H3V5z" />
  <path
     style="fill:#2196f3;fill-opacity:1"
     id="path835"
     d="M5 6a1 1 0 0 0-1 1v2a1 1 0 0 0 1 1h2a1 1 0 0 0 1-1V7a1 1 0 0 0-1-1z"
     opacity=".99"
     fill="#010101" />
</svg>
