<svg xmlns="http://www.w3.org/2000/svg" width="48" height="48">
    <defs>
        <filter id="a">
            <feGaussianBlur in="SourceAlpha" stdDeviation=".8"/>
            <feOffset dy=".4"/>
            <feComponentTransfer>
                <feFuncA slope=".3" type="linear"/>
            </feComponentTransfer>
            <feMerge>
                <feMergeNode/>
                <feMergeNode in="SourceGraphic"/>
            </feMerge>
        </filter>
    </defs>
    <rect ry="2" rx="2" y="5" x="5" height="38" width="38" fill="#607d8b" fill-rule="evenodd" filter="url(#a)"/>
    <path style="line-height:normal;font-variant-ligatures:normal;font-variant-position:normal;font-variant-caps:normal;font-variant-numeric:normal;font-variant-alternates:normal;font-feature-settings:normal;text-indent:0;text-align:start;text-decoration-line:none;text-decoration-style:solid;text-decoration-color:#000;text-transform:none;text-orientation:mixed;shape-padding:0;isolation:auto;mix-blend-mode:normal" d="M21.984 14.986A1 1 0 0 0 21 16v13c-.02 1.352 2.02 1.352 2 0v-4.514A2.472 2.472 0 0 1 25.486 22a2.47 2.47 0 0 1 2.485 2.486 1 1 0 0 0 .029.248V29c-.02 1.352 2.02 1.352 2 0v-4.5a1 1 0 0 0-.064-.365c-.184-2.3-2.104-4.135-4.45-4.135-.917 0-1.773.281-2.486.76V16a1 1 0 0 0-1.016-1.014zm11 5A1 1 0 0 0 32 21v8c-.02 1.352 2.02 1.352 2 0v-4c0-1.669 1.331-3 3-3 1.352.02 1.352-2.02 0-2-1.128 0-2.16.393-3 1.03V21a1 1 0 0 0-1.016-1.014zM15 20.006a4.985 4.985 0 0 0-3.535 1.459 5.014 5.014 0 0 0 0 7.07 5.014 5.014 0 0 0 7.07 0c.982-.942-.471-2.396-1.414-1.414a2.984 2.984 0 0 1-4.242 0 2.984 2.984 0 0 1 0-4.242 2.984 2.984 0 0 1 4.242 0c.943.982 2.396-.472 1.414-1.414A4.985 4.985 0 0 0 15 20.005z" color="#000" font-weight="400" font-family="sans-serif" white-space="normal" overflow="visible" fill="#cfd8dc" enable-background="accumulate"/>
</svg>
