<svg xmlns="http://www.w3.org/2000/svg" width="48" height="48">
    <defs>
        <filter id="a">
            <feGaussianBlur in="SourceAlpha" stdDeviation=".8"/>
            <feOffset dy=".4"/>
            <feComponentTransfer>
                <feFuncA slope=".3" type="linear"/>
            </feComponentTransfer>
            <feMerge>
                <feMergeNode/>
                <feMergeNode in="SourceGraphic"/>
            </feMerge>
        </filter>
    </defs>
    <g fill-rule="evenodd">
        <path fill="#3f51b5" d="M4 8c-1.108 0-2 .892-2 2v28c0 1.108.892 2 2 2h40c1.108 0 2-.892 2-2V10c0-1.108-.892-2-2-2H4zm1 2h2c.554 0 1 .446 1 1v2c0 .554-.446 1-1 1H5c-.554 0-1-.446-1-1v-2c0-.554.446-1 1-1zm36 0h2c.554 0 1 .446 1 1v2c0 .554-.446 1-1 1h-2c-.554 0-1-.446-1-1v-2c0-.554.446-1 1-1zM5 16h2c.554 0 1 .446 1 1v2c0 .554-.446 1-1 1H5c-.554 0-1-.446-1-1v-2c0-.554.446-1 1-1zm36 0h2c.554 0 1 .446 1 1v2c0 .554-.446 1-1 1h-2c-.554 0-1-.446-1-1v-2c0-.554.446-1 1-1zM5 22h2c.554 0 1 .446 1 1v2c0 .554-.446 1-1 1H5c-.554 0-1-.446-1-1v-2c0-.554.446-1 1-1zm36 0h2c.554 0 1 .446 1 1v2c0 .554-.446 1-1 1h-2c-.554 0-1-.446-1-1v-2c0-.554.446-1 1-1zM5 28h2c.554 0 1 .446 1 1v2c0 .554-.446 1-1 1H5c-.554 0-1-.446-1-1v-2c0-.554.446-1 1-1zm36 0h2c.554 0 1 .446 1 1v2c0 .554-.446 1-1 1h-2c-.554 0-1-.446-1-1v-2c0-.554.446-1 1-1zM5 34h2c.554 0 1 .446 1 1v2c0 .554-.446 1-1 1H5c-.554 0-1-.446-1-1v-2c0-.554.446-1 1-1zm36 0h2c.554 0 1 .446 1 1v2c0 .554-.446 1-1 1h-2c-.554 0-1-.446-1-1v-2c0-.554.446-1 1-1z" filter="url(#a)"/>
        <path fill="#1a237e" d="M4 8c-1.108 0-2 .892-2 2v28c0 1.108.892 2 2 2h6V8H4zm1 2h2c.554 0 1 .446 1 1v2c0 .554-.446 1-1 1H5c-.554 0-1-.446-1-1v-2c0-.554.446-1 1-1zm0 6h2c.554 0 1 .446 1 1v2c0 .554-.446 1-1 1H5c-.554 0-1-.446-1-1v-2c0-.554.446-1 1-1zm0 6h2c.554 0 1 .446 1 1v2c0 .554-.446 1-1 1H5c-.554 0-1-.446-1-1v-2c0-.554.446-1 1-1zm0 6h2c.554 0 1 .446 1 1v2c0 .554-.446 1-1 1H5c-.554 0-1-.446-1-1v-2c0-.554.446-1 1-1zm0 6h2c.554 0 1 .446 1 1v2c0 .554-.446 1-1 1H5c-.554 0-1-.446-1-1v-2c0-.554.446-1 1-1zm39 6c1.108 0 2-.892 2-2V10c0-1.108-.892-2-2-2h-6v32zm-1-2h-2c-.554 0-1-.446-1-1v-2c0-.554.446-1 1-1h2c.554 0 1 .446 1 1v2c0 .554-.446 1-1 1zm0-6h-2c-.554 0-1-.446-1-1v-2c0-.554.446-1 1-1h2c.554 0 1 .446 1 1v2c0 .554-.446 1-1 1zm0-6h-2c-.554 0-1-.446-1-1v-2c0-.554.446-1 1-1h2c.554 0 1 .446 1 1v2c0 .554-.446 1-1 1zm0-6h-2c-.554 0-1-.446-1-1v-2c0-.554.446-1 1-1h2c.554 0 1 .446 1 1v2c0 .554-.446 1-1 1zm0-6h-2c-.554 0-1-.446-1-1v-2c0-.554.446-1 1-1h2c.554 0 1 .446 1 1v2c0 .554-.446 1-1 1z"/>
        <path fill="#e8eaf6" stroke="#e8eaf6" stroke-linecap="round" stroke-linejoin="round" stroke-width="2" d="M19 17v14l12-7z"/>
    </g>
</svg>
