<svg xmlns="http://www.w3.org/2000/svg" width="48" height="48">
    <defs>
        <clipPath id="b">
            <path fill="#f44336" d="M0-32h24v48H0z"/>
        </clipPath>
        <filter id="a">
            <feGaussianBlur in="SourceAlpha" stdDeviation=".8"/>
            <feOffset dy=".4"/>
            <feComponentTransfer>
                <feFuncA slope=".3" type="linear"/>
            </feComponentTransfer>
            <feMerge>
                <feMergeNode/>
                <feMergeNode in="SourceGraphic"/>
            </feMerge>
        </filter>
    </defs>
    <g fill-rule="evenodd">
        <path fill="#2196f3" d="M6.97-27A2 2 0 0 0 5-25V9a2 2 0 0 0 2 2h34a2 2 0 0 0 2-2v-34c0-1.781-2.154-2.673-3.414-1.414L24-10.828 8.414-26.414A2 2 0 0 0 6.971-27z" filter="url(#a)" transform="translate(0 32)"/>
        <path fill="#03a9f4" d="M6.97-27A2 2 0 0 0 5-25V9a2 2 0 0 0 2 2h34c1.781 0 2.673-2.154 1.414-3.414l-34-34A2 2 0 0 0 6.971-27z" clip-path="url(#b)" transform="matrix(-.9961 0 0 1 47.944 32)"/>
    </g>
</svg>
