<svg xmlns="http://www.w3.org/2000/svg" width="16" height="16">
    <path d="M8 0C6.355 0 5 1.355 5 3v4c0 1.645 1.355 3 3 3s3-1.355 3-3V3c0-1.645-1.355-3-3-3zm0 2c.564 0 1 .436 1 1v4c0 .564-.436 1-1 1-.564 0-1-.436-1-1V3c0-.564.436-1 1-1zM3 6a1 1 0 0 0-1 1 6.004 6.004 0 0 0 3 5.195 5.975 5.975 0 0 0 2 .71V14H5a1 1 0 1 0 0 2h6a1 1 0 1 0 0-2H9v-1.096a5.977 5.977 0 0 0 2-.709A6.004 6.004 0 0 0 14 7a1 1 0 1 0-2 0 3.998 3.998 0 0 1-6 3.465A3.997 3.997 0 0 1 4 7a1 1 0 0 0-1-1z" style="line-height:normal;font-variant-ligatures:normal;font-variant-position:normal;font-variant-caps:normal;font-variant-numeric:normal;font-variant-alternates:normal;font-variant-east-asian:normal;font-feature-settings:normal;font-variation-settings:normal;text-indent:0;text-align:start;text-decoration-line:none;text-decoration-style:solid;text-decoration-color:#000;text-transform:none;text-orientation:mixed;white-space:normal;shape-padding:0;shape-margin:0;inline-size:0;isolation:auto;mix-blend-mode:normal;solid-color:#000;solid-opacity:1"/>
</svg>
