<svg xmlns="http://www.w3.org/2000/svg" height="16" width="16">
    <path d="M7.967 0C6.323 0 5 1.338 5 3v4c0 1.662 1.323 3 2.967 3h.066C9.677 10 11 8.662 11 7V3c0-1.662-1.323-3-2.967-3h-.066zM3 6a1 1 0 0 0-1 1 6.003 6.003 0 0 0 3 5.195 5.977 5.977 0 0 0 2 .71V14H5a1 1 0 0 0-1 1 1 1 0 0 0 1 1h6a1 1 0 0 0 1-1 1 1 0 0 0-1-1H9v-1.096a5.977 5.977 0 0 0 2-.709A6.003 6.003 0 0 0 14 7a1 1 0 0 0-1-1 1 1 0 0 0-1 1c0 1.43-.761 2.75-2 3.465a3.996 3.996 0 0 1-4 0A3.997 3.997 0 0 1 4 7a1 1 0 0 0-1-1z" style="line-height:normal;font-variant-ligatures:normal;font-variant-position:normal;font-variant-caps:normal;font-variant-numeric:normal;font-variant-alternates:normal;font-variant-east-asian:normal;font-feature-settings:normal;font-variation-settings:normal;text-indent:0;text-align:start;text-decoration-line:none;text-decoration-style:solid;text-decoration-color:#000;text-transform:none;text-orientation:mixed;white-space:normal;shape-padding:0;shape-margin:0;inline-size:0;isolation:auto;mix-blend-mode:normal;solid-color:#000;solid-opacity:1;filter-blend-mode:normal;filter-gaussianBlur-deviation:0" color="#000" font-weight="400" font-family="sans-serif" overflow="visible"/>
</svg>
