<svg xmlns="http://www.w3.org/2000/svg" width="16" height="16">
    <path style="line-height:normal;font-variant-ligatures:normal;font-variant-position:normal;font-variant-caps:normal;font-variant-numeric:normal;font-variant-alternates:normal;font-feature-settings:normal;text-indent:0;text-align:start;text-decoration-line:none;text-decoration-style:solid;text-decoration-color:#000;text-transform:none;text-orientation:mixed;shape-padding:0;isolation:auto;mix-blend-mode:normal" d="M8 0C4.693 0 2 2.693 2 6v4c0 3.307 2.693 6 6 6s6-2.693 6-6V6c0-3.307-2.693-6-6-6zM7 2.137V7a1 1 0 1 0 2 0V2.137c1.735.438 3 1.978 3 3.863v4c0 2.233-1.767 4-4 4a3.97 3.97 0 0 1-4-4V6a3.956 3.956 0 0 1 3-3.863z" color="#000" font-weight="400" font-family="sans-serif" overflow="visible"/>
</svg>
