<svg xmlns="http://www.w3.org/2000/svg" width="16" height="16">
    <path style="line-height:normal;font-variant-ligatures:normal;font-variant-position:normal;font-variant-caps:normal;font-variant-numeric:normal;font-variant-alternates:normal;font-feature-settings:normal;text-indent:0;text-align:start;text-decoration-line:none;text-decoration-style:solid;text-decoration-color:#000;text-transform:none;text-orientation:mixed;shape-padding:0;isolation:auto;mix-blend-mode:normal" d="M1 2a1 1 0 0 0-1 1v10a1 1 0 0 0 1 1h14a1 1 0 0 0 1-1V3a1 1 0 0 0-1-1zm3 2h10v8H4zm6.98.99a1 1 0 0 0-.687.303L6 9.586V11h1.414l4.293-4.293c.655-.636.185-1.745-.727-1.717z" font-weight="400" overflow="visible" color="#000" font-family="sans-serif"/>
</svg>
