<svg xmlns="http://www.w3.org/2000/svg" width="16" height="16">
    <path d="M8 0a8 8 0 0 0-8 8 8 8 0 0 0 8 8 8 8 0 0 0 8-8A8 8 0 0 0 10.428.38L8.118 5H10.5a1 1 0 0 1 .895 1.447l-2.42 4.84.709-.236a1 1 0 0 1 .632 1.898l-3 1a1 1 0 0 1-.054.016 1 1 0 0 1-.098.021 1 1 0 0 1-.1.012 1 1 0 0 1-.1.002 1 1 0 0 1-.068-.006 1 1 0 0 1-.044-.004 1 1 0 0 1-.051-.01 1 1 0 0 1-.041-.01 1 1 0 0 1-.03-.007 1 1 0 0 1-.072-.024 1 1 0 0 1-.094-.039 1 1 0 0 1-.074-.039 1 1 0 0 1-.004-.002 1 1 0 0 1-.08-.054 1 1 0 0 1-.076-.063 1 1 0 0 1-.012-.01 1 1 0 0 1-.029-.03 1 1 0 0 1-.039-.04 1 1 0 0 1-.055-.068 1 1 0 0 1-.04-.063 1 1 0 0 1-.018-.027 1 1 0 0 1-.037-.07 1 1 0 0 1-.006-.014 1 1 0 0 1-.037-.09 1 1 0 0 1-.006-.014l-1-3a1 1 0 0 1 .908-1.33 1 1 0 0 1 .99.698l.237.709L8.883 7H6.5a1 1 0 0 1-.895-1.447L8.373.018A8 8 0 0 0 8 0z"/>
</svg>
