<svg xmlns="http://www.w3.org/2000/svg" height="16" width="16">
    <g color="#000" font-weight="400" font-family="sans-serif">
        <path d="M1 10V9l6-3h2l6 3v1L9 9H7z" style="line-height:normal;font-variant-ligatures:normal;font-variant-position:normal;font-variant-caps:normal;font-variant-numeric:normal;font-variant-alternates:normal;font-variant-east-asian:normal;font-feature-settings:normal;font-variation-settings:normal;text-indent:0;text-align:start;text-decoration-line:none;text-decoration-style:solid;text-decoration-color:#000;text-transform:none;text-orientation:mixed;white-space:normal;shape-padding:0;shape-margin:0;inline-size:0;isolation:auto;mix-blend-mode:normal;solid-color:#000;solid-opacity:1;filter-blend-mode:normal;filter-gaussianBlur-deviation:0" overflow="visible"/>
        <path d="M7 5a1 1 0 0 0-.447.105l-6 3A1 1 0 0 0 0 9v1a1 1 0 0 0 1.164.986L7.082 10h1.836l5.918.986A1 1 0 0 0 16 10V9a1 1 0 0 0-.553-.895l-6-3A1 1 0 0 0 9 5H7zm.236 2h1.528l2.841 1.42-2.44-.406A1 1 0 0 0 9 8H7a1 1 0 0 0-.164.014l-2.441.406L7.236 7z" style="line-height:normal;font-variant-ligatures:normal;font-variant-position:normal;font-variant-caps:normal;font-variant-numeric:normal;font-variant-alternates:normal;font-variant-east-asian:normal;font-feature-settings:normal;font-variation-settings:normal;text-indent:0;text-align:start;text-decoration-line:none;text-decoration-style:solid;text-decoration-color:#000;text-transform:none;text-orientation:mixed;white-space:normal;shape-padding:0;shape-margin:0;inline-size:0;isolation:auto;mix-blend-mode:normal;solid-color:#000;solid-opacity:1;filter-blend-mode:normal;filter-gaussianBlur-deviation:0" overflow="visible"/>
    </g>
    <path d="M10 2a2 2 0 0 1-2 2 2 2 0 0 1-2-2 2 2 0 0 1 2-2 2 2 0 0 1 2 2"/>
    <path d="M6 2h4v12H6z"/>
    <path d="M7 12a1 1 0 0 0-.707.293l-2 2a1 1 0 0 0 1.023 1.656L8 15.055l2.684.894a1 1 0 0 0 1.023-1.656l-2-2A1 1 0 0 0 9 12H7z" style="line-height:normal;font-variant-ligatures:normal;font-variant-position:normal;font-variant-caps:normal;font-variant-numeric:normal;font-variant-alternates:normal;font-variant-east-asian:normal;font-feature-settings:normal;font-variation-settings:normal;text-indent:0;text-align:start;text-decoration-line:none;text-decoration-style:solid;text-decoration-color:#000;text-transform:none;text-orientation:mixed;white-space:normal;shape-padding:0;shape-margin:0;inline-size:0;isolation:auto;mix-blend-mode:normal;solid-color:#000;solid-opacity:1;filter-blend-mode:normal;filter-gaussianBlur-deviation:0" color="#000" font-weight="400" font-family="sans-serif" overflow="visible"/>
</svg>
