<svg xmlns="http://www.w3.org/2000/svg" width="16" height="16">
    <path style="line-height:normal;font-variant-ligatures:normal;font-variant-position:normal;font-variant-caps:normal;font-variant-numeric:normal;font-variant-alternates:normal;font-feature-settings:normal;text-indent:0;text-align:start;text-decoration-line:none;text-decoration-style:solid;text-decoration-color:#000;text-transform:none;text-orientation:mixed;shape-padding:0;isolation:auto;mix-blend-mode:normal" d="M2.98-.01a1 1 0 0 0-.687.303l-2 2a1 1 0 1 0 1.414 1.414l2-2A1 1 0 0 0 2.98-.01zm10.01 0a1 1 0 0 0-.697 1.717l2 2a1 1 0 1 0 1.414-1.414l-2-2a1 1 0 0 0-.717-.303zM8 1C4.146 1 1 4.146 1 8s3.146 7 7 7 7-3.146 7-7-3.146-7-7-7zm0 2c2.773 0 5 2.227 5 5s-2.227 5-5 5-5-2.227-5-5 2.227-5 5-5zm-.016.986A1 1 0 0 0 7 5v2.383l-1.447.722a1 1 0 1 0 .894 1.79l2-1A1 1 0 0 0 9 8V5a1 1 0 0 0-1.016-1.014z" color="#000" font-weight="400" font-family="sans-serif" overflow="visible"/>
</svg>
