<svg xmlns="http://www.w3.org/2000/svg" height="16" width="16">
    <g fill-rule="evenodd">
        <path d="M9.99 4.99c-.898 0-1.34 1.091-.697 1.717l4 4c.943.976 2.39-.471 1.414-1.414l-4-4a1 1 0 0 0-.717-.303z"/>
        <path d="M13.98 4.99a1 1 0 0 0-.687.303l-4 4a1 1 0 1 0 1.414 1.414l4-4a1 1 0 0 0-.727-1.717z"/>
    </g>
    <path d="M6.97 0a1 1 0 0 0-.677.293l-4 4A1 1 0 0 0 2 5v6a1 1 0 0 0 .293.707l4 4A1 1 0 0 0 8 15V1a1 1 0 0 0-1.03-1zM6 3.414v9.172l-2-2V5.414l2-2z" style="line-height:normal;font-variant-ligatures:normal;font-variant-position:normal;font-variant-caps:normal;font-variant-numeric:normal;font-variant-alternates:normal;font-variant-east-asian:normal;font-feature-settings:normal;font-variation-settings:normal;text-indent:0;text-align:start;text-decoration-line:none;text-decoration-style:solid;text-decoration-color:#000;text-transform:none;text-orientation:mixed;white-space:normal;shape-padding:0;shape-margin:0;inline-size:0;isolation:auto;mix-blend-mode:normal;solid-color:#000;solid-opacity:1;filter-blend-mode:normal;filter-gaussianBlur-deviation:0" color="#000" font-weight="400" font-family="sans-serif" overflow="visible"/>
</svg>
