<svg xmlns="http://www.w3.org/2000/svg" width="16" height="16">
    <path d="M7 0a1 1 0 00-1 1v1H4a1 1 0 00-1 1v12a1 1 0 001 1h8a1 1 0 001-1V3a1 1 0 00-1-1h-2V1a1 1 0 00-1-1H7zM5 4h6v9H9.732a2 2 0 01-2.365.896A2 2 0 016.27 13H5V4z"/>
    <path style="line-height:normal;font-variant-ligatures:normal;font-variant-position:normal;font-variant-caps:normal;font-variant-numeric:normal;font-variant-alternates:normal;font-variant-east-asian:normal;font-feature-settings:normal;font-variation-settings:normal;text-indent:0;text-align:start;text-decoration-line:none;text-decoration-style:solid;text-decoration-color:#000;text-transform:none;text-orientation:mixed;white-space:normal;shape-padding:0;shape-margin:0;inline-size:0;isolation:auto;mix-blend-mode:normal;solid-color:#000;solid-opacity:1" d="M7.986 5a1 1 0 00-.935.684l-1 3A1 1 0 007 10h.611l-.56 1.684a1 1 0 00.633 1.265 1 1 0 001.265-.633l1-3A1 1 0 009 8h-.611l.56-1.684a1 1 0 00-.633-1.265A1 1 0 007.986 5z" color="#000" font-weight="400" font-family="sans-serif" overflow="visible"/>
</svg>
