<svg xmlns="http://www.w3.org/2000/svg" width="16" height="16">
    <path d="M1 1a1 1 0 0 0-1 1v9a1 1 0 0 0 1 1h6v1H5a1 1 0 0 0 0 2h6a1 1 0 0 0 0-2H9v-1h6a1 1 0 0 0 1-1V2a1 1 0 0 0-1-1H1zm1 2h12v7H2V3zm4 1a1 1 0 0 0-1 1 1 1 0 0 0 1 1 1 1 0 0 0 1-1 1 1 0 0 0-1-1zm4 0a1 1 0 0 0-1 1 1 1 0 0 0 1 1 1 1 0 0 0 1-1 1 1 0 0 0-1-1zM8 6.47c-.864 0-1.727.222-2.5.669a1 1 0 0 0-.365 1.367A1 1 0 0 0 6.5 8.87a2.996 2.996 0 0 1 3 0 1 1 0 0 0 1.365-.365 1 1 0 0 0-.365-1.367A4.996 4.996 0 0 0 8 6.47z" style="line-height:normal;font-variant-ligatures:normal;font-variant-position:normal;font-variant-caps:normal;font-variant-numeric:normal;font-variant-alternates:normal;font-feature-settings:normal;text-indent:0;text-align:start;text-decoration-line:none;text-decoration-style:solid;text-decoration-color:#000;text-transform:none;text-orientation:mixed;shape-padding:0;isolation:auto;mix-blend-mode:normal"/>
</svg>
