<svg xmlns="http://www.w3.org/2000/svg" height="16" width="16">
    <path overflow="visible" font-family="sans-serif" font-weight="400" color="#000" d="M4 4C1.803 4 0 5.803 0 8s1.803 4 4 4c1.85 0 3.406-1.284 3.855-3H10v1a1 1 0 1 0 2 0V9h1v1a1 1 0 1 0 2 0V9a1 1 0 1 0 0-2H7.855C7.405 5.284 5.85 4 4 4zm0 2c1.086 0 1.943.838 1.99 1.91a1 1 0 0 0 0 .182A1.98 1.98 0 0 1 4 10c-1.116 0-2-.884-2-2s.884-2 2-2z" style="line-height:normal;font-variant-ligatures:normal;font-variant-position:normal;font-variant-caps:normal;font-variant-numeric:normal;font-variant-alternates:normal;font-feature-settings:normal;text-indent:0;text-align:start;text-decoration-line:none;text-decoration-style:solid;text-decoration-color:#000;text-transform:none;text-orientation:mixed;shape-padding:0;isolation:auto;mix-blend-mode:normal" fill="#607d8b"/>
</svg>
