<svg xmlns="http://www.w3.org/2000/svg" width="16" height="16">
    <path style="line-height:normal;font-variant-ligatures:normal;font-variant-position:normal;font-variant-caps:normal;font-variant-numeric:normal;font-variant-alternates:normal;font-feature-settings:normal;text-indent:0;text-align:start;text-decoration-line:none;text-decoration-style:solid;text-decoration-color:#000;text-transform:none;text-orientation:mixed;white-space:normal;shape-padding:0;isolation:auto;mix-blend-mode:normal;solid-color:#000;solid-opacity:1" d="M8.486 16c-2.992 0-5.442-2.428-5.482-5.412A1 1 0 0 1 3 10.529v-.015a1 1 0 0 1 0-.006 1 1 0 0 1 0-.008V4.014a1 1 0 0 1 0-.012 1 1 0 0 1 0-.017l.002-.041a1 1 0 0 1 .004-.041A3.985 3.985 0 0 1 4.992.533a3.99 3.99 0 0 1 3.987 0 3.982 3.982 0 0 1 1.972 3.163 1 1 0 0 1 .049.318V9.5a1 1 0 0 1 0 .006 1 1 0 0 1-.02.203c-.103 1.278-1.178 2.305-2.48 2.305-1.305 0-2.381-1.031-2.48-2.313A1 1 0 0 1 6 9.52v-.006a1 1 0 0 1 0-.006A1 1 0 0 1 6 9.5V5.014a1 1 0 1 1 2 0V9.5a1 1 0 0 1 0 .006 1 1 0 0 1 0 .008c0 .288.212.5.5.5.288 0 .5-.212.5-.5A1 1 0 0 1 9 9.5V4.235a1 1 0 0 1-.03-.25 1.983 1.983 0 1 0-3.97 0 1 1 0 0 1 0 .011 1 1 0 0 1 0 .018V10.5a1 1 0 0 1 0 .006 1 1 0 0 1 0 .008A3.472 3.472 0 0 0 8.486 14a3.47 3.47 0 0 0 3.485-3.486 1 1 0 0 1 .029-.248V5.014a1 1 0 1 1 2 0V10.5a1 1 0 0 1-.045.307C13.801 13.689 11.405 16 8.486 16z" color="#000" font-weight="400" font-family="sans-serif" overflow="visible"/>
</svg>
