<svg xmlns="http://www.w3.org/2000/svg" width="16" height="16">
    <g fill-rule="evenodd">
        <path d="M8 2C5.233 2 2.47 3.116.293 5.293a1 1 0 0 0 0 1.414l7 7a1 1 0 0 0 1.414 0l7-7a1 1 0 0 0 0-1.414C13.53 3.116 10.767 2 8 2zm0 2c1.92 0 3.792.794 5.451 2.135L8 11.585l-5.451-5.45C4.209 4.794 6.08 4 8 4z"/>
        <path d="M6.99 4.99a1 1 0 0 0-.697 1.717L6.586 7l-.293.293a1 1 0 1 0 1.414 1.414L8 8.414l.293.293a1 1 0 1 0 1.414-1.414L9.414 7l.293-.293A1 1 0 0 0 8.98 4.99a1 1 0 0 0-.687.303L8 5.586l-.293-.293a1 1 0 0 0-.717-.303z"/>
    </g>
</svg>
