<svg xmlns="http://www.w3.org/2000/svg" height="16" width="16">
    <path d="M5.479.473A1 1 0 0 0 5.11.54 8.005 8.005 0 0 0 0 8c0 4.406 3.594 8 8 8 3.3 0 6.267-2.034 7.459-5.111a1 1 0 0 0-1.293-1.293A5.998 5.998 0 0 1 12 10c-3.326 0-6-2.674-6-6 0-.74.137-1.475.404-2.166A1 1 0 0 0 5.48.473zM4.098 3.48C4.086 3.657 4 3.822 4 4c0 4.406 3.594 8 8 8 .178 0 .343-.086.52-.098C11.4 13.197 9.778 14 8 14c-3.326 0-6-2.674-6-6 0-1.778.803-3.401 2.098-4.52z" style="line-height:normal;font-variant-ligatures:normal;font-variant-position:normal;font-variant-caps:normal;font-variant-numeric:normal;font-variant-alternates:normal;font-variant-east-asian:normal;font-feature-settings:normal;font-variation-settings:normal;text-indent:0;text-align:start;text-decoration-line:none;text-decoration-style:solid;text-decoration-color:#000;text-transform:none;text-orientation:mixed;white-space:normal;shape-padding:0;shape-margin:0;inline-size:0;isolation:auto;mix-blend-mode:normal;solid-color:#000;solid-opacity:1;filter-blend-mode:normal;filter-gaussianBlur-deviation:0" color="#000" font-weight="400" font-family="sans-serif" overflow="visible"/>
</svg>
