<svg xmlns="http://www.w3.org/2000/svg" width="16" height="16">
    <path style="line-height:normal;font-variant-ligatures:normal;font-variant-position:normal;font-variant-caps:normal;font-variant-numeric:normal;font-variant-alternates:normal;font-feature-settings:normal;text-indent:0;text-align:start;text-decoration-line:none;text-decoration-style:solid;text-decoration-color:#000;text-transform:none;text-orientation:mixed;shape-padding:0;isolation:auto;mix-blend-mode:normal" d="M8 0a8.003 8.003 0 0 0-6.928 4 8.004 8.004 0 0 0 0 8A8.003 8.003 0 0 0 8 16a1 1 0 1 0 0-2 5.995 5.995 0 0 1-5.195-3 5.996 5.996 0 0 1 0-6A5.995 5.995 0 0 1 8 2a1 1 0 1 0 0-2z" color="#000" font-weight="400" font-family="sans-serif" overflow="visible"/>
</svg>
