<svg xmlns="http://www.w3.org/2000/svg" width="16" height="16">
    <path style="line-height:normal;font-variant-ligatures:normal;font-variant-position:normal;font-variant-caps:normal;font-variant-numeric:normal;font-variant-alternates:normal;font-feature-settings:normal;text-indent:0;text-align:start;text-decoration-line:none;text-decoration-style:solid;text-decoration-color:#000;text-transform:none;text-orientation:mixed;shape-padding:0;isolation:auto;mix-blend-mode:normal" d="M5 0C2.25 0 0 2.25 0 5c0 1.148.409 2.196 1.066 3.043a5.08 5.08 0 0 1 2.52-.936 6.459 6.459 0 0 1 1.797-1.412A3.991 3.991 0 0 1 5 4.002V4a4 4 0 0 1 .807-2.398A1 1 0 0 0 5.007 0H5z" color="#000" font-weight="400" font-family="sans-serif" overflow="visible"/>
    <path d="M8 6.024a5 5 0 0 0-3.992 2 4 4 0 0 0-.008 0 4 4 0 0 0-4 4 4 4 0 0 0 4 4h9a3 3 0 0 0 3-3 3 3 0 0 0-3-3 3 3 0 0 0-.105.004A5 5 0 0 0 8 6.024z" fill-rule="evenodd"/>
</svg>
