<?xml version="1.0" encoding="UTF-8" standalone="no"?>
<!-- Created with Inkscape (http://www.inkscape.org/) -->

<svg
   xmlns:dc="http://purl.org/dc/elements/1.1/"
   xmlns:cc="http://creativecommons.org/ns#"
   xmlns:rdf="http://www.w3.org/1999/02/22-rdf-syntax-ns#"
   xmlns:svg="http://www.w3.org/2000/svg"
   xmlns="http://www.w3.org/2000/svg"
   xmlns:sodipodi="http://sodipodi.sourceforge.net/DTD/sodipodi-0.dtd"
   xmlns:inkscape="http://www.inkscape.org/namespaces/inkscape"
   width="16"
   height="16"
   id="svg4152"
   version="1.1"
   inkscape:version="0.92.1 r"
   viewBox="0 0 16 16"
   sodipodi:docname="folder-download-symbolic.svg">
  <defs
     id="defs4154" />
  <sodipodi:namedview
     id="base"
     pagecolor="#ededed"
     bordercolor="#000000"
     borderopacity="0.49803922"
     inkscape:pageopacity="0"
     inkscape:pageshadow="2"
     inkscape:zoom="44.395603"
     inkscape:cx="6.0904389"
     inkscape:cy="7.7910127"
     inkscape:current-layer="layer1"
     showgrid="true"
     inkscape:grid-bbox="true"
     inkscape:document-units="px"
     inkscape:showpageshadow="false"
     borderlayer="true"
     inkscape:window-width="1920"
     inkscape:window-height="1012"
     inkscape:window-x="0"
     inkscape:window-y="32"
     inkscape:window-maximized="1">
    <inkscape:grid
       type="xygrid"
       id="grid4700"
       color="#000000"
       opacity="0.0627451"
       empcolor="#000000"
       empopacity="0.1254902"
       empspacing="4"
       spacingx="2"
       spacingy="2" />
  </sodipodi:namedview>
  <metadata
     id="metadata4157">
    <rdf:RDF>
      <cc:Work
         rdf:about="">
        <dc:format>image/svg+xml</dc:format>
        <dc:type
           rdf:resource="http://purl.org/dc/dcmitype/StillImage" />
        <dc:title />
      </cc:Work>
    </rdf:RDF>
  </metadata>
  <g
     id="layer1"
     inkscape:label="Layer 1"
     inkscape:groupmode="layer">
    <path
       style="color:#000000;font-style:normal;font-variant:normal;font-weight:normal;font-stretch:normal;font-size:medium;line-height:normal;font-family:sans-serif;text-indent:0;text-align:start;text-decoration:none;text-decoration-line:none;text-decoration-style:solid;text-decoration-color:#000000;letter-spacing:normal;word-spacing:normal;text-transform:none;writing-mode:lr-tb;direction:ltr;baseline-shift:baseline;text-anchor:start;white-space:normal;clip-rule:nonzero;display:inline;overflow:visible;visibility:visible;opacity:1;isolation:auto;mix-blend-mode:normal;color-interpolation:sRGB;color-interpolation-filters:linearRGB;solid-color:#000000;solid-opacity:1;fill:#000000;fill-opacity:1;fill-rule:evenodd;stroke:none;stroke-width:2;stroke-linecap:round;stroke-linejoin:round;stroke-miterlimit:4;stroke-dasharray:none;stroke-dashoffset:0;stroke-opacity:1;color-rendering:auto;image-rendering:auto;shape-rendering:auto;text-rendering:auto;enable-background:accumulate"
       d="m 3,14 c -1.3523227,-0.01913 -1.3523227,2.019125 0,2 h 10 c 1.352323,0.01912 1.352323,-2.019125 0,-2 z"
       id="path4135"
       inkscape:connector-curvature="0"
       sodipodi:nodetypes="ccccc" />
    <path
       style="color:#000000;font-style:normal;font-variant:normal;font-weight:normal;font-stretch:normal;font-size:medium;line-height:normal;font-family:sans-serif;text-indent:0;text-align:start;text-decoration:none;text-decoration-line:none;text-decoration-style:solid;text-decoration-color:#000000;letter-spacing:normal;word-spacing:normal;text-transform:none;writing-mode:lr-tb;direction:ltr;baseline-shift:baseline;text-anchor:start;white-space:normal;clip-rule:nonzero;display:inline;overflow:visible;visibility:visible;opacity:1;isolation:auto;mix-blend-mode:normal;color-interpolation:sRGB;color-interpolation-filters:linearRGB;solid-color:#000000;solid-opacity:1;fill:#000000;fill-opacity:1;fill-rule:evenodd;stroke:none;stroke-width:2;stroke-linecap:round;stroke-linejoin:round;stroke-miterlimit:4;stroke-dasharray:none;stroke-dashoffset:0;stroke-opacity:1;color-rendering:auto;image-rendering:auto;shape-rendering:auto;text-rendering:auto;enable-background:accumulate"
       d="M 7.9570312,0.015625 C 7.4276102,0.03838727 7.0078429,0.47014796 7,1 V 9.5859375 L 3.7070312,6.2929688 C 2.7645225,5.3113156 1.3113156,6.7645225 2.2929688,7.7070312 l 5,4.9999998 c 0.0013,0.0013 0.0026,0.0026 0.00391,0.0039 0.016414,0.01554 0.033351,0.03052 0.050781,0.04492 0.0077,0.0073 0.015512,0.01445 0.023438,0.02149 0.014662,0.01148 0.029642,0.02255 0.044922,0.0332 0.012158,0.0094 0.024531,0.01851 0.037109,0.02734 0.010311,0.006 0.020729,0.01191 0.03125,0.01758 0.020406,0.01246 0.041253,0.02419 0.0625,0.03516 0.025527,0.01283 0.051593,0.02456 0.078125,0.03516 0.020591,0.0078 0.041436,0.01502 0.0625,0.02149 0.010351,0.0041 0.020769,0.008 0.03125,0.01172 0.014881,0.0043 0.029859,0.0082 0.044922,0.01172 0.021975,0.0053 0.044123,0.0099 0.066406,0.01367 0.00455,6.98e-4 0.00911,0.0014 0.013672,0.002 0.023314,0.0041 0.046766,0.0074 0.070312,0.0098 h 0.00195 c 0.028576,0.0025 0.057249,0.0038 0.085937,0.0039 0.00911,1.25e-4 0.01823,1.25e-4 0.027344,0 0.033312,-9.39e-4 0.066557,-0.0035 0.099609,-0.0078 0.028204,-0.004 0.056225,-0.0092 0.083984,-0.01563 0.02034,-0.0046 0.040532,-0.0098 0.060547,-0.01562 0.017062,-0.0048 0.033995,-0.01 0.050781,-0.01563 0.026469,-0.0093 0.052533,-0.01974 0.078125,-0.03125 0.00457,-0.0019 0.00913,-0.0039 0.013672,-0.0059 0.025904,-0.01129 0.051317,-0.02367 0.076172,-0.03711 0.00458,-0.0026 0.00914,-0.0052 0.013672,-0.0078 0.024087,-0.01463 0.047546,-0.03026 0.070312,-0.04687 0.00392,-0.0026 0.00783,-0.0052 0.011719,-0.0078 0.00791,-0.0064 0.015724,-0.0129 0.023437,-0.01953 0.018722,-0.01369 0.036962,-0.02802 0.054687,-0.04297 0.00459,-0.0039 0.00915,-0.0078 0.013672,-0.01172 0.016833,-0.01571 0.033119,-0.032 0.048828,-0.04883 L 13.707031,7.7070312 C 14.688698,6.7645229 13.235478,5.3113024 12.292969,6.2929688 L 9,9.5859375 V 1 C 8.9916622,0.43668046 8.519892,-0.00858576 7.9570312,0.015625 Z"
       id="path4137"
       inkscape:connector-curvature="0"
       sodipodi:nodetypes="cccccccccccccccccccccccccccccccccccccccccc" />
  </g>
</svg>
