<svg xmlns="http://www.w3.org/2000/svg" width="48" height="48">
    <defs>
        <filter id="c" height="1.4" y="-.2" color-interpolation-filters="sRGB">
            <feFlood flood-opacity=".298" result="flood"/>
            <feComposite in="flood" in2="SourceGraphic" operator="in" result="composite1"/>
            <feGaussianBlur in="composite1" result="blur" stdDeviation=".8"/>
            <feOffset dy=".4" result="offset"/>
            <feComposite in="SourceGraphic" in2="offset" result="composite2"/>
        </filter>
        <clipPath id="b">
            <path fill="#5d4037" fill-rule="evenodd" d="M4-24a2 2 0 0 0-2 2V6a2 2 0 0 0 2 2h40a2 2 0 0 0 2-2v-28a2 2 0 0 0-2-2H28a2 2 0 0 0-1.414.586L24-20.828l-2.586-2.586A2 2 0 0 0 20-24H4z"/>
        </clipPath>
        <filter id="a" height="1.4" y="-.2" color-interpolation-filters="sRGB">
            <feFlood flood-opacity=".298" result="flood"/>
            <feComposite in="flood" in2="SourceGraphic" operator="in" result="composite1"/>
            <feGaussianBlur in="composite1" result="blur" stdDeviation=".8"/>
            <feOffset dy=".4" result="offset"/>
            <feComposite in="SourceGraphic" in2="offset" result="composite2"/>
        </filter>
    </defs>
    <g transform="translate(0 32)">
        <path fill="#795548" fill-rule="evenodd" stroke="#795548" stroke-linecap="round" stroke-linejoin="round" stroke-width="4" d="M4-22V6h40v-28H28l-4 4-4-4H4z" filter="url(#a)"/>
        <path fill="#8d6e63" fill-rule="evenodd" stroke="#8d6e63" stroke-linecap="round" stroke-linejoin="round" stroke-width="4" d="M44-22H28l-6 6H4V6h40z" clip-path="url(#b)" filter="url(#c)" transform="matrix(-1 0 0 1 48 0)"/>
        <path fill="none" stroke="#795548" stroke-linecap="round" stroke-linejoin="round" stroke-width="2" d="M20 0v-12h11V0"/>
        <circle fill="#795548" fill-rule="evenodd" cx="18" r="3"/>
        <path fill="none" stroke="#795548" stroke-width="4" d="M20-11h11"/>
        <circle fill="#795548" fill-rule="evenodd" cx="29" r="3"/>
    </g>
</svg>
