<svg xmlns="http://www.w3.org/2000/svg" width="16" height="16">
    <path fill-rule="evenodd" d="M3 14c-1.352-.02-1.352 2.02 0 2h10c1.352.02 1.352-2.02 0-2zM7.957.016A1 1 0 0 0 7 1v8.586L3.707 6.293c-.942-.982-2.396.472-1.414 1.414l5 5a1.44 1.44 0 0 0 .078.07 1.005 1.005 0 0 0 .113.078 1.002 1.002 0 0 0 .141.07c.02.009.041.016.063.022l.03.012a.897.897 0 0 0 .112.025l.014.002a.98.98 0 0 0 .07.01h.002a1.027 1.027 0 0 0 .297-.02 1.033 1.033 0 0 0 .516-.29l4.978-4.979c.982-.942-.472-2.396-1.414-1.414L9 9.586V1A1 1 0 0 0 7.957.016z"/>
</svg>
