<svg xmlns="http://www.w3.org/2000/svg" width="48" height="48">
    <defs>
        <filter id="c" height="1.4" y="-.2" color-interpolation-filters="sRGB">
            <feFlood flood-opacity=".298" result="flood"/>
            <feComposite in="flood" in2="SourceGraphic" operator="in" result="composite1"/>
            <feGaussianBlur in="composite1" result="blur" stdDeviation=".8"/>
            <feOffset dy=".4" result="offset"/>
            <feComposite in="SourceGraphic" in2="offset" result="composite2"/>
        </filter>
        <clipPath id="b">
            <path fill="#5d4037" fill-rule="evenodd" d="M4-24a2 2 0 0 0-2 2V6a2 2 0 0 0 2 2h40a2 2 0 0 0 2-2v-28a2 2 0 0 0-2-2H28a2 2 0 0 0-1.414.586L24-20.828l-2.586-2.586A2 2 0 0 0 20-24H4z"/>
        </clipPath>
        <filter id="a" height="1.4" y="-.2" color-interpolation-filters="sRGB">
            <feFlood flood-opacity=".298" result="flood"/>
            <feComposite in="flood" in2="SourceGraphic" operator="in" result="composite1"/>
            <feGaussianBlur in="composite1" result="blur" stdDeviation=".8"/>
            <feOffset dy=".4" result="offset"/>
            <feComposite in="SourceGraphic" in2="offset" result="composite2"/>
        </filter>
    </defs>
    <g fill-rule="evenodd">
        <path fill="#795548" stroke="#795548" stroke-linecap="round" stroke-linejoin="round" stroke-width="4" d="M4-22V6h40v-28H28l-4 4-4-4H4z" filter="url(#a)" transform="translate(0 32)"/>
        <path fill="#8d6e63" stroke="#8d6e63" stroke-linecap="round" stroke-linejoin="round" stroke-width="4" d="M44-22H28l-6 6H4V6h40z" clip-path="url(#b)" filter="url(#c)" transform="matrix(-1 0 0 1 48 32)"/>
        <path fill="#795548" d="M23.984 18a1 1 0 0 0-.691.293l-5.9 5.9a1 1 0 0 0-.19.19l-1.91 1.91c-.982.942.472 2.396 1.414 1.414l.293-.293V34a1 1 0 0 0 1 1h12a1 1 0 0 0 1-1v-6.586l.293.293c.942.982 2.396-.472 1.414-1.414l-1.912-1.912a1 1 0 0 0-.191-.192l-5.897-5.896a1 1 0 0 0-.723-.293zM24 20.414l5 5V33h-3v-4a1 1 0 0 0-1-1h-2a1 1 0 0 0-1 1v4h-3v-7.586z"/>
    </g>
</svg>
