<svg xmlns="http://www.w3.org/2000/svg" width="48" height="48">
    <defs>
        <filter id="a">
            <feGaussianBlur in="SourceAlpha" stdDeviation=".8"/>
            <feOffset dy=".4"/>
            <feComponentTransfer>
                <feFuncA slope=".3" type="linear"/>
            </feComponentTransfer>
            <feMerge>
                <feMergeNode/>
                <feMergeNode in="SourceGraphic"/>
            </feMerge>
        </filter>
        <clipPath id="b">
            <rect fill="#673ab7" fill-rule="evenodd" width="32" height="44" x="8" y="-30" rx="2" ry="2"/>
        </clipPath>
    </defs>
    <g transform="translate(0 32)">
        <rect fill="#673ab7" fill-rule="evenodd" width="32" height="44" x="8" y="-30" filter="url(#a)" rx="2" ry="2"/>
        <path fill="#4527a0" d="M10-30c-1.108 0-2 .892-2 2v40c0 1.108.892 2 2 2h3v-44z"/>
        <path opacity=".1" d="M35-30l-2 2 .297.297a.985.985 0 0 0-.192.256l-6 12a1 1 0 0 0 .188 1.154L40-1.586V-25l-5-5z"/>
        <path fill="#d1c4e9" fill-rule="evenodd" d="M27-30v15a1 1 0 0 0 1.555.832L31-15.798l2.445 1.63A1 1 0 0 0 35-15v-15z" clip-path="url(#b)" filter="url(#a)"/>
        <path fill="#4527a0" stroke="#4527a0" stroke-linecap="round" stroke-linejoin="round" stroke-width="2" d="M19-5h15v2H19zm2 6h11v2H21z"/>
    </g>
</svg>
