<svg 
    xmlns="http://www.w3.org/2000/svg" width="48" height="48">
    <defs>
        <filter id="a">
            <feGaussianBlur in="SourceAlpha" stdDeviation=".8"/>
            <feOffset dy=".4"/>
            <feComponentTransfer>
                <feFuncA slope=".3" type="linear"/>
            </feComponentTransfer>
            <feMerge>
                <feMergeNode/>
                <feMergeNode in="SourceGraphic"/>
            </feMerge>
        </filter>
        <clipPath id="b">
            <rect fill="#009688" fill-rule="evenodd" width="40" height="28" x="-44" y="-22" rx="2" ry="2"/>
        </clipPath>
        <clipPath id="f">
            <path fill="#cfd8dc" fill-rule="evenodd" d="M21-17a2 2 0 0 0-1.414.586L18.172-15H14a2 2 0 0 0-2 2v12a2 2 0 0 0 2 2h20a2 2 0 0 0 2-2v-12a2 2 0 0 0-2-2h-4.172l-1.414-1.414A2 2 0 0 0 27-17z"/>
        </clipPath>
        <clipPath id="d">
            <path fill="#009688" fill-rule="evenodd" d="M4-24a2 2 0 0 0-2 2v8a2 2 0 0 0 2 2.027v7.948a2 2 0 0 0-.03-.002A2 2 0 0 0 2-2v8a2 2 0 0 0 2 2h8a2 2 0 0 0 2.027-2h19.946A2 2 0 0 0 36 8h8a2 2 0 0 0 2-2v-8a2 2 0 0 0-2-2.025v-7.948A2 2 0 0 0 46-14v-8a2 2 0 0 0-2-2h-8a2 2 0 0 0-2.027 2H14.027A2 2 0 0 0 12-24z"/>
        </clipPath>
    </defs>
    <g transform="translate(0 32)">
        <path fill="#009688" fill-rule="evenodd" d="M4 8a2 2 0 0 0-2 2v8a2 2 0 0 0 2 2.027v7.948a2 2 0 0 0-.03-.002A2 2 0 0 0 2 30v8a2 2 0 0 0 2 2h8a2 2 0 0 0 2.027-2h19.946A2 2 0 0 0 36 40h8a2 2 0 0 0 2-2v-8a2 2 0 0 0-2-2.025v-7.948A2 2 0 0 0 46 18v-8a2 2 0 0 0-2-2h-8a2 2 0 0 0-2.027 2H14.027A2 2 0 0 0 12 8H4z" filter="url(#a)" transform="translate(0 -32)"/>
        <path fill="#4db6ac" fill-rule="evenodd" d="M-44-24a2 2 0 0 0-2 2v8a2 2 0 1 0 4 0v-6h6a2 2 0 1 0 0-4zm32 0a2 2 0 1 0 0 4h6v6a2 2 0 1 0 4 0v-8a2 2 0 0 0-2-2zM-44.03-4.027A2 2 0 0 0-46-2v8a2 2 0 0 0 2 2h8a2 2 0 1 0 0-4h-6v-6a2 2 0 0 0-2.03-2.027zm40 0A2 2 0 0 0-6-2v6h-6a2 2 0 1 0 0 4h8a2 2 0 0 0 2-2v-8a2 2 0 0 0-2.03-2.027z" clip-path="url(#b)" filter="url(#a)" transform="translate(48)"/>
        <path fill-rule="evenodd" stroke="#000" stroke-linecap="round" stroke-linejoin="round" stroke-width="4" opacity=".1" d="M14-1l9 9h23v-9L34-13z" clip-path="url(#d)"/>
        <path fill="#b2dfdb" fill-rule="evenodd" d="M4-24a2 2 0 0 0-2 2v8a2 2 0 1 0 4 0v-6h6a2 2 0 1 0 0-4zm32 0a2 2 0 1 0 0 4h6v6a2 2 0 1 0 4 0v-8a2 2 0 0 0-2-2zM3.97-4.027A2 2 0 0 0 2-2v8a2 2 0 0 0 2 2h8a2 2 0 1 0 0-4H6v-6a2 2 0 0 0-2.03-2.027zm40 0A2 2 0 0 0 42-2v6h-6a2 2 0 1 0 0 4h8a2 2 0 0 0 2-2v-8a2 2 0 0 0-2.03-2.027z"/>
        <path fill="#cfd8dc" fill-rule="evenodd" d="M21-17a2 2 0 0 0-1.414.586L18.172-15H14a2 2 0 0 0-2 2v12a2 2 0 0 0 2 2h20a2 2 0 0 0 2-2v-12a2 2 0 0 0-2-2h-4.172l-1.414-1.414A2 2 0 0 0 27-17z" filter="url(#a)"/>
        <path fill-rule="evenodd" stroke="#000" stroke-linecap="round" stroke-linejoin="round" stroke-width="2" opacity=".1" d="M20.464-3.464l7.072-7.072 16.97 16.971-7.071 7.071z" clip-path="url(#f)"/>
        <circle fill="#212121" stroke="#eceff1" stroke-linecap="round" stroke-linejoin="round" stroke-width="2" cx="24" cy="-7" r="5" filter="url(#a)"/>
    </g>
</svg>