<svg xmlns="http://www.w3.org/2000/svg" width="48" height="48"><defs><filter id="a"><feGaussianBlur in="SourceAlpha" stdDeviation=".8"/><feOffset dy=".4"/><feComponentTransfer><feFuncA slope=".3" type="linear"/></feComponentTransfer><feMerge><feMergeNode/><feMergeNode in="SourceGraphic"/></feMerge></filter></defs><g transform="translate(0 32)"><circle fill="#4caf50" fill-rule="evenodd" cx="24" cy="-8" r="22" filter="url(#a)"/><path fill="none" stroke="#e8f5e9" stroke-linecap="round" stroke-linejoin="round" stroke-width="2" d="M14.492-3.36a15 6 0 0 1-4.48-6.807 15 6 0 0 1 14.775-3.825 15 6 0 0 1 13.691 4.424 15 6 0 0 1-6.24 6.582"/><circle fill="#e8f5e9" fill-rule="evenodd" cx="24" cy="-8" r="2"/><path fill="none" stroke="#e8f5e9" stroke-linecap="round" stroke-linejoin="round" stroke-width="2" d="M27.162-13.647A15 6 60 0 1 32.096 3.23a15 6 60 0 1-10.51-3.7 15 6 60 0 1-7.26-17.695 15 6 60 0 1 8.904-.215"/><path fill="none" stroke="#e8f5e9" stroke-linecap="round" stroke-linejoin="round" stroke-width="2" d="M23.32 1.617a6 15 30 0 1-8.635 1.498A6 15 30 0 1 18.253-11.4a6 15 30 0 1 10.783-10.234 6 15 30 0 1 2.923 8.353"/></g></svg>