<svg 
    xmlns="http://www.w3.org/2000/svg" width="48" height="48">
    <defs>
        <filter id="a">
            <feGaussianBlur in="SourceAlpha" stdDeviation=".8"/>
            <feOffset dy=".4"/>
            <feComponentTransfer>
                <feFuncA slope=".3" type="linear"/>
            </feComponentTransfer>
            <feMerge>
                <feMergeNode/>
                <feMergeNode in="SourceGraphic"/>
            </feMerge>
        </filter>
    </defs>
    <g fill-rule="evenodd" transform="translate(0 32)">
        <path fill="#ff9800" d="M25.443 2.23a2 2 0 0 0-1.392 3.436l6.406 6.406a17 17 0 0 0-1.232-.06A2 2 0 0 0 29 12H9a2 2 0 1 0 0 4h9.072a17 17 0 0 0-.972.865 2 2 0 0 0-.121.114L2.838 31.12a2 2 0 1 0 2.828 2.828l6.406-6.406A17 17 0 0 0 12 29a17 17 0 0 0 17 17 17 17 0 0 0 17-17 17 17 0 0 0-4.857-11.895 2 2 0 0 0-.122-.126L26.88 2.838a2 2 0 0 0-1.436-.608z" filter="url(#a)" transform="translate(0 -32)"/>
        <circle fill="#fff" cx="29" cy="-3" r="11"/>
        <circle fill="#3f51b5" cx="29" cy="-3" r="7"/>
    </g>
</svg>