<svg 
    xmlns="http://www.w3.org/2000/svg" width="48" height="48">
    <defs>
        <filter id="a">
            <feGaussianBlur in="SourceAlpha" stdDeviation=".8"/>
            <feOffset dy=".4"/>
            <feComponentTransfer>
                <feFuncA slope=".3" type="linear"/>
            </feComponentTransfer>
            <feMerge>
                <feMergeNode/>
                <feMergeNode in="SourceGraphic"/>
            </feMerge>
        </filter>
    </defs>
    <g fill-rule="evenodd" transform="translate(0 32)">
        <rect fill="#795548" width="44" height="32" x="2" y="-24" filter="url(#a)" rx="2" ry="2"/>
        <path opacity=".1" d="M18-20c-.058 0-.112.01-.168.014a12.001 12.001 0 0 0-.326-.004A12.001 12.001 0 0 0 9.516.484L17.03 8H44c1.108 0 2-.892 2-2v-20.828l-4.586-4.586A2 2 0 0 0 40-20H18z"/>
        <g filter="url(#a)">
            <path fill="#ffc107" d="M18-20a2 2 0 0 0-.2.008A12.004 12.004 0 0 0 7.608-14a12.008 12.008 0 0 0 0 12C9.75 1.71 13.716 4 18 4a2 2 0 1 0 0-4 7.991 7.991 0 0 1-6.928-4 7.992 7.992 0 0 1 0-8A7.991 7.991 0 0 1 18-16h22a2 2 0 1 0 0-4H18z"/>
            <rect fill="#2196f3" width="4" height="18" x="22" y="-14" rx="1" ry="1"/>
            <rect fill="#ff9800" width="4" height="14" x="27" y="-10" rx="1" ry="1"/>
            <rect fill="#4caf50" width="4" height="16" x="32" y="-12" rx="1" ry="1"/>
            <rect fill="#e91e63" width="4" height="12" x="37" y="-8" rx="1" ry="1"/>
        </g>
    </g>
</svg>