<svg xmlns="http://www.w3.org/2000/svg" width="48" height="48">
    <defs>
        <clipPath id="b">
            <path fill-rule="evenodd" opacity=".513" d="M24-18h24v-14L.34-28.98 15.34-3z"/>
        </clipPath>
        <clipPath id="c">
            <path fill-rule="evenodd" opacity=".513" d="M24-18h24v-14L.34-28.98 15.34-3z"/>
        </clipPath>
        <clipPath id="d">
            <path fill-rule="evenodd" opacity=".513" d="M24-18h24v-14L.34-28.98 15.34-3z"/>
        </clipPath>
        <filter id="a">
            <feGaussianBlur in="SourceAlpha" stdDeviation=".8"/>
            <feOffset dy=".4"/>
            <feComponentTransfer>
                <feFuncA slope=".3" type="linear"/>
            </feComponentTransfer>
            <feMerge>
                <feMergeNode/>
                <feMergeNode in="SourceGraphic"/>
            </feMerge>
        </filter>
    </defs>
    <g filter="url(#a)" transform="translate(0 32)">
        <circle fill="#fff" fill-rule="evenodd" cx="24" cy="-8" r="20" color="#000" overflow="visible"/>
        <circle fill="#2196f3" cx="24" cy="-8" r="8"/>
        <path fill="#1976d2" d="M24-30C11.92-30 2-20.08 2-8s9.92 22 22 22S46 4.08 46-8s-9.92-22-22-22zm0 12c5.594 0 10 4.406 10 10S29.594 2 24 2 14-2.406 14-8s4.406-10 10-10z" clip-path="url(#b)" color="#000" font-family="sans-serif" font-weight="400" overflow="visible"/>
        <path fill="#2196f3" d="M24-30C11.92-30 2-20.08 2-8s9.92 22 22 22S46 4.08 46-8s-9.92-22-22-22zm0 12c5.594 0 10 4.406 10 10S29.594 2 24 2 14-2.406 14-8s4.406-10 10-10z" clip-path="url(#c)" color="#000" font-family="sans-serif" font-weight="400" overflow="visible" transform="rotate(-120 24 -8)"/>
        <path fill="#64b5f6" d="M24-30C11.92-30 2-20.08 2-8s9.92 22 22 22S46 4.08 46-8s-9.92-22-22-22zm0 12c5.594 0 10 4.406 10 10S29.594 2 24 2 14-2.406 14-8s4.406-10 10-10z" clip-path="url(#d)" color="#000" font-family="sans-serif" font-weight="400" overflow="visible" transform="rotate(120 24 -8)"/>
    </g>
</svg>
