<svg xmlns="http://www.w3.org/2000/svg" width="48" height="48">
    <defs>
        <filter id="a">
            <feGaussianBlur in="SourceAlpha" stdDeviation=".8"/>
            <feOffset dy=".4"/>
            <feComponentTransfer>
                <feFuncA slope=".3" type="linear"/>
            </feComponentTransfer>
            <feMerge>
                <feMergeNode/>
                <feMergeNode in="SourceGraphic"/>
            </feMerge>
        </filter>
    </defs>
    <circle r="22" cy="24" cx="24" fill="#fafafa" fill-rule="evenodd" filter="url(#a)"/>
    <path style="line-height:normal;font-variant-ligatures:normal;font-variant-position:normal;font-variant-caps:normal;font-variant-numeric:normal;font-variant-alternates:normal;font-feature-settings:normal;text-indent:0;text-align:start;text-decoration-line:none;text-decoration-style:solid;text-decoration-color:#000;text-transform:none;text-orientation:mixed;shape-padding:0;isolation:auto;mix-blend-mode:normal" d="M16.984 19.986A1 1 0 0 0 16 21v3a1 1 0 0 0 .03.25 1 1 0 0 0-.03.25 3.502 3.502 0 0 0 5.25 3.031A3.504 3.504 0 0 0 23 24.5a1 1 0 0 0-.03-.25A1 1 0 0 0 23 24v-3a1 1 0 1 0-2 0v3a1 1 0 0 0 .03.25 1 1 0 0 0-.03.25c0 .538-.285 1.03-.75 1.299a1.496 1.496 0 0 1-1.5 0A1.496 1.496 0 0 1 18 24.5a1 1 0 0 0-.03-.25A1 1 0 0 0 18 24v-3a1 1 0 0 0-1.016-1.014zm8 0A1 1 0 0 0 24 21v6c0 1.333 2 1.333 2 0v-2h2.5c1.369 0 2.5-1.131 2.5-2.5S29.869 20 28.5 20h-3.346a1 1 0 0 0-.17-.014zM26 22h2.5c.288 0 .5.212.5.5 0 .288-.212.5-.5.5H26zm8.5-2a1 1 0 0 0-.28.037 2.49 2.49 0 0 0-1.886 1.213 2.504 2.504 0 0 0 0 2.5A2.505 2.505 0 0 0 34.5 25h2c.288 0 .5.212.5.5 0 .288-.212.5-.5.5H33c-1.333 0-1.333 2 0 2h3.5a1 1 0 0 0 .219-.021C37.986 27.864 39 26.794 39 25.5c0-1.369-1.131-2.5-2.5-2.5h-2a.497.497 0 0 1-.434-.25.496.496 0 0 1 0-.5.497.497 0 0 1 .434-.25H38c1.333 0 1.333-2 0-2z" font-weight="400" overflow="visible" color="#000" font-family="sans-serif" white-space="normal" fill="#212121" enable-background="accumulate"/>
    <path d="M33.9 33.9a14 14 0 0 1-19.8 0 14 14 0 0 1 0-19.8 14 14 0 0 1 19.8 0" fill="none" stroke="#212121" stroke-width="4" stroke-linecap="round" stroke-linejoin="round"/>
</svg>
