<svg xmlns="http://www.w3.org/2000/svg" width="48" height="48">
    <defs>
        <filter id="a">
            <feGaussianBlur in="SourceAlpha" stdDeviation=".8"/>
            <feOffset dy=".4"/>
            <feComponentTransfer>
                <feFuncA slope=".3" type="linear"/>
            </feComponentTransfer>
            <feMerge>
                <feMergeNode/>
                <feMergeNode in="SourceGraphic"/>
            </feMerge>
        </filter>
    </defs>
    <g stroke-linecap="round" stroke-linejoin="round">
        <path fill="#212121" fill-rule="evenodd" stroke="#212121" stroke-width="4" d="M40 9H18V-3h-4v-12H6v-6h8v-4h26v10h-4v14h4z" filter="url(#a)" transform="translate(0 32)"/>
        <path fill="none" stroke="#ede7f6" stroke-width="2" d="M15 12H7v4h8V8m24 0h-8v4h8v4h-8"/>
        <path fill="none" stroke="#d1c4e9" stroke-width="2" d="M27 20v8h8v-8"/>
        <path fill="none" stroke="#b39ddb" stroke-width="2" d="M19 40v-8h4v8-8h4v8m4-4h8v-4h-8v8h8"/>
        <path fill="none" stroke="#d1c4e9" stroke-width="2" d="M15 28v-8h4v8-8h4v8"/>
        <path fill="none" stroke="#ede7f6" stroke-width="2" d="M19 12h8V8h-8v8h8"/>
    </g>
</svg>
