<svg 
    xmlns="http://www.w3.org/2000/svg" width="48" height="48" enable-background="new">
    <defs>
        <clipPath id="b">
            <circle fill-rule="evenodd" cx="24" cy="-8" r="22"/>
        </clipPath>
        <clipPath id="c">
            <path fill="#2196f3" fill-rule="evenodd" d="M-24-30a22 22 0 0 0-16.84 7.848l-1.37-2.743A2 2 0 0 0-46-24v16a22 22 0 0 0 .072 1.695c.053.68.13 1.354.244 2.018a22 22 0 0 0 .05.23c.106.585.236 1.16.388 1.729a22 22 0 0 0 .207.693c.127.42.263.835.414 1.244a22 22 0 0 0 .29.739c.155.378.321.75.497 1.117a22 22 0 0 0 .37.756c.216.412.452.813.695 1.21a22 22 0 0 0 .302.512 22 22 0 0 0 .04.055c.336.516.696 1.016 1.074 1.502a22 22 0 0 0 .533.639c.252.3.507.597.775.884a22 22 0 0 0 .61.623c.287.285.585.558.888.827a22 22 0 0 0 .604.523c.369.303.751.59 1.14.87a22 22 0 0 0 .461.34c.55.372 1.119.718 1.703 1.042a22 22 0 0 0 .487.248c.439.23.884.448 1.342.649a22 22 0 0 0 .68.277c.405.162.817.313 1.236.451a22 22 0 0 0 .752.234c.152.045.298.102.453.143.282.076.566.125.85.19a22 22 0 0 0 .675.152c.547.106 1.095.184 1.643.248a22 22 0 0 0 .384.053 22.06 22.06 0 0 0 2.018.101A22 22 0 0 0-24 14a22 22 0 0 0 1.865-.092 21.982 21.982 0 0 0 1.649-.201 22 22 0 0 0 .767-.148c.4-.08.796-.165 1.19-.266a22 22 0 0 0 .834-.234c.38-.115.757-.243 1.13-.377a22 22 0 0 0 .786-.29c.42-.169.83-.36 1.24-.554a22 22 0 0 0 .795-.389c.493-.26.978-.537 1.451-.834a22 22 0 0 0 .62-.418c.36-.244.718-.495 1.066-.761a22 22 0 0 0 .59-.473c.345-.284.68-.58 1.01-.887a22 22 0 0 0 .501-.472c.382-.38.748-.777 1.104-1.186a22 22 0 0 0 .273-.305c.434-.519.847-1.06 1.236-1.625a22 22 0 0 0 .28-.437c.227-.346.457-.69.666-1.051.05-.086.088-.177.136-.264a22 22 0 0 0 .327-.623c.21-.406.41-.814.593-1.228a22 22 0 0 0 .286-.678c.17-.424.325-.85.468-1.281a22 22 0 0 0 .215-.658c.153-.515.28-1.034.395-1.555a22 22 0 0 0 .1-.414c.13-.655.228-1.314.298-1.975a22 22 0 0 0 .047-.664c.033-.44.058-.88.064-1.32A22 22 0 0 0-2-8a22 22 0 0 0-.027-.805c-.006-.146-.008-.293-.016-.44a22 22 0 0 0-.08-.874c-.039-.401-.086-.8-.147-1.2a22 22 0 0 0-.146-.85 20.86 20.86 0 0 0-.254-1.134 22 22 0 0 0-.215-.836 22.025 22.025 0 0 0-.525-1.574A22 22 0 0 0-3.508-16a21.96 21.96 0 0 0-.814-1.82 22 22 0 0 0-.303-.563 21.88 21.88 0 0 0-.715-1.246 22 22 0 0 0-.37-.568 21.874 21.874 0 0 0-.813-1.137 22 22 0 0 0-.42-.541 22.033 22.033 0 0 0-.971-1.105 22 22 0 0 0-.404-.442c-.044-.044-.082-.091-.125-.135-.067-.068-.142-.124-.217-.181A22 22 0 0 0-24-30z"/>
        </clipPath>
        <filter id="a">
            <feGaussianBlur in="SourceAlpha" stdDeviation=".8"/>
            <feOffset dy=".4"/>
            <feComponentTransfer>
                <feFuncA slope=".3" type="linear"/>
            </feComponentTransfer>
            <feMerge>
                <feMergeNode/>
                <feMergeNode in="SourceGraphic"/>
            </feMerge>
        </filter>
    </defs>
    <g fill-rule="evenodd">
        <path fill="#2196f3" d="M24 2A22 22 0 0 0 7.16 9.848L5.79 7.105A2 2 0 0 0 2 8v16a22 22 0 0 0 .072 1.695c.053.68.13 1.354.244 2.018a22 22 0 0 0 .05.23c.106.585.236 1.16.388 1.729a22 22 0 0 0 .207.693c.127.42.263.835.414 1.244a22 22 0 0 0 .29.739c.155.378.321.75.497 1.117a22 22 0 0 0 .37.756c.216.412.452.813.695 1.21a22 22 0 0 0 .302.512 22 22 0 0 0 .04.055c.336.516.696 1.016 1.074 1.502a22 22 0 0 0 .533.639c.252.3.507.597.775.884a22 22 0 0 0 .61.623c.287.285.585.558.888.827a22 22 0 0 0 .604.523c.369.303.751.59 1.14.87a22 22 0 0 0 .461.34c.55.372 1.119.718 1.703 1.042a22 22 0 0 0 .487.248c.439.23.884.448 1.342.649a22 22 0 0 0 .68.277c.405.162.817.313 1.236.451a22 22 0 0 0 .752.234c.152.045.298.102.453.143.282.076.566.125.85.19a22 22 0 0 0 .675.152c.547.106 1.095.184 1.643.248a22 22 0 0 0 .384.053 22.06 22.06 0 0 0 2.018.101A22 22 0 0 0 24 46a22 22 0 0 0 1.865-.092 21.981 21.981 0 0 0 1.649-.201 22 22 0 0 0 .767-.148c.4-.08.796-.165 1.19-.266a22 22 0 0 0 .834-.234c.38-.115.757-.243 1.13-.377a22 22 0 0 0 .786-.29c.42-.169.83-.36 1.24-.554a22 22 0 0 0 .795-.389c.493-.26.978-.537 1.451-.834a22 22 0 0 0 .62-.418c.36-.244.718-.495 1.066-.761a22 22 0 0 0 .59-.473c.345-.284.68-.58 1.01-.887a22 22 0 0 0 .501-.472c.382-.38.748-.777 1.104-1.186a22 22 0 0 0 .273-.305c.434-.519.847-1.06 1.236-1.625a22 22 0 0 0 .28-.437c.227-.346.457-.69.666-1.051.05-.086.088-.177.136-.264a22 22 0 0 0 .327-.623c.21-.406.41-.814.593-1.228a22 22 0 0 0 .286-.678c.17-.424.325-.85.468-1.281a22 22 0 0 0 .215-.658c.153-.515.28-1.034.395-1.555a22 22 0 0 0 .1-.414c.13-.655.228-1.314.298-1.975a22 22 0 0 0 .047-.664c.033-.44.058-.88.064-1.32A22 22 0 0 0 46 24a22 22 0 0 0-.027-.805c-.006-.146-.008-.293-.016-.44a22 22 0 0 0-.08-.874c-.039-.401-.086-.8-.147-1.2a22 22 0 0 0-.146-.85 20.86 20.86 0 0 0-.254-1.134 22 22 0 0 0-.215-.836 22.025 22.025 0 0 0-.525-1.574 22 22 0 0 0-.098-.287 21.96 21.96 0 0 0-.814-1.82 22 22 0 0 0-.303-.563 21.88 21.88 0 0 0-.715-1.246 22 22 0 0 0-.37-.568 21.874 21.874 0 0 0-.813-1.137 22 22 0 0 0-.42-.541 22.033 22.033 0 0 0-.971-1.105 22 22 0 0 0-.404-.442c-.044-.044-.082-.091-.125-.135-.067-.068-.142-.124-.217-.181A22 22 0 0 0 24 2z" filter="url(#a)"/>
        <path opacity=".1" d="M15.97 6a2 2 0 0 0-1.866 1.367l-4 12a2 2 0 0 0-.088.385l-2 16a2 2 0 0 0 1.435 2.172l14 4a2 2 0 0 0 .942.037l10-2a2 2 0 0 0 1.396-1.066l4-8a2 2 0 0 0-.375-2.31l-22-22A2 2 0 0 0 15.971 6z"/>
        <path opacity=".1" d="M3.97-26A2 2 0 0 0 2-24v4a2 2 0 0 0 2 2h4a2 2 0 0 0 1.414-3.414l-4-4A2 2 0 0 0 3.971-26z" clip-path="url(#b)" transform="translate(0 32)"/>
        <path fill="#ff9800" d="M-43.986-26A2 2 0 0 0-46-24v16c0 9.948 6.698 18.675 16.307 21.25C-20.085 15.825-9.921 11.615-4.947 3s3.538-19.523-3.496-26.557a2 2 0 0 0-1.436-.605 2 2 0 0 0-1.523.71A2 2 0 0 0-12-22v14c0 4.29-2.284 8.247-6 10.393A11.992 11.992 0 0 1-32.941 0H-26c2.705.038 2.705-4.038 0-4h-8v-3h2a2 2 0 0 0 2-2v-3.764l2.895-1.447C-25.218-15.155-25.89-18-28-18h-2v-6c0-2.11-2.845-2.782-3.79-.895L-35.235-22h-5.528l-1.447-2.895A2 2 0 0 0-43.986-26z" clip-path="url(#c)" filter="url(#a)" transform="translate(48 32)"/>
    </g>
</svg>