<svg xmlns="http://www.w3.org/2000/svg" width="48" height="48"><defs><filter id="a"><feGaussianBlur in="SourceAlpha" stdDeviation=".8"/><feOffset dy=".4"/><feComponentTransfer><feFuncA slope=".3" type="linear"/></feComponentTransfer><feMerge><feMergeNode/><feMergeNode in="SourceGraphic"/></feMerge></filter><clipPath id="c"><rect fill="none" stroke="#607d8b" stroke-linecap="round" stroke-linejoin="round" stroke-width=".1" width="32" height="44" x="8" y="2" rx="2" ry="2"/></clipPath><clipPath id="b"><rect fill="none" stroke="#607d8b" stroke-linecap="round" stroke-linejoin="round" stroke-width=".1" width="32" height="44" x="8" y="-30" rx="2" ry="2"/></clipPath></defs><g transform="translate(0 32)"><rect fill="#fafafa" fill-rule="evenodd" width="32" height="44" x="8" y="-30" filter="url(#a)" rx="2" ry="2"/><circle fill="#f44336" cx="24" cy="-18" r="6"/><path fill-rule="evenodd" stroke="#000" stroke-linejoin="round" stroke-width="2" opacity=".1" d="M22-9l4 4v-4L40 5v9H20V-1z" clip-path="url(#b)"/><path fill="#b0bec5" fill-rule="evenodd" stroke="#b0bec5" stroke-linecap="round" stroke-linejoin="round" stroke-width="2" d="M22 23l-6 13 4 10h8l4-10-6-13v11.541A4 4 0 0 1 28 38a4 4 0 0 1-4 4 4 4 0 0 1-4-4 4 4 0 0 1 2-3.459V23z" clip-path="url(#c)" filter="url(#a)" transform="translate(0 -32)"/></g></svg>