<svg xmlns="http://www.w3.org/2000/svg" width="48" height="48"><defs><filter id="a"><feGaussianBlur in="SourceAlpha" stdDeviation=".8"/><feOffset dy=".4"/><feComponentTransfer><feFuncA slope=".3" type="linear"/></feComponentTransfer><feMerge><feMergeNode/><feMergeNode in="SourceGraphic"/></feMerge></filter></defs><g transform="translate(0 32)"><rect fill="#fafafa" fill-rule="evenodd" width="38" height="38" x="5" y="-27" filter="url(#a)" rx="2" ry="2"/><path fill="#ffeb3b" fill-rule="evenodd" d="M7-27c-1.108 0-2 .892-2 2v17h19v-19H7z"/><path fill="#8bc34a" fill-rule="evenodd" d="M5 9c0 1.108.892 2 2 2h17V-8H5z"/><path fill="#ff9800" fill-rule="evenodd" d="M41 11c1.108 0 2-.892 2-2V-8H24v19z"/><path fill-opacity=".941" fill-rule="evenodd" opacity=".56" d="M16.97-5a1 1 0 0 0-.77.4l-6 8A1 1 0 0 0 11 5h5v2a1 1 0 1 0 2 0V5h1a1 1 0 1 0 0-2h-1v-7a1 1 0 0 0-1.03-1zM16-1v4h-3z"/><path fill-opacity=".941" opacity=".56" d="M33-5a3.515 3.515 0 0 0-3.5 3.5c0 .937.379 1.79.986 2.42C29.588 1.655 29 2.758 29 4c0 2.197 1.803 4 4 4s4-1.803 4-4c0-1.242-.588-2.345-1.486-3.08.607-.63.986-1.483.986-2.42C36.5-3.421 34.921-5 33-5zm0 2c.84 0 1.5.66 1.5 1.5S33.84 0 33 0s-1.5-.66-1.5-1.5S32.16-3 33-3zm0 5c1.116 0 2 .884 2 2s-.884 2-2 2-2-.884-2-2 .884-2 2-2z"/><path fill-opacity=".941" fill-rule="evenodd" opacity=".56" d="M15-24c-2.197 0-4 1.803-4 4a1 1 0 1 0 2 0c0-1.116.884-2 2-2s2 .884 2 2c0 .667-.342 1.451-1.281 2.625-.94 1.174-2.426 2.668-4.426 4.668A1 1 0 0 0 12-11h6a1 1 0 1 0 0-2h-3.678c1.074-1.093 2.273-2.267 2.96-3.125 1.015-1.27 1.653-2.438 1.706-3.705a1 1 0 0 0 .002-.027A1 1 0 0 0 19-20a1 1 0 0 0-.021-.219C18.862-22.314 17.122-24 15-24z"/></g></svg>