<svg 
    xmlns="http://www.w3.org/2000/svg" width="48" height="48">
    <defs>
        <filter id="a">
            <feGaussianBlur in="SourceAlpha" stdDeviation=".8"/>
            <feOffset dy=".4"/>
            <feComponentTransfer>
                <feFuncA slope=".3" type="linear"/>
            </feComponentTransfer>
            <feMerge>
                <feMergeNode/>
                <feMergeNode in="SourceGraphic"/>
            </feMerge>
        </filter>
    </defs>
    <g transform="translate(0 32)">
        <rect fill="#212121" fill-rule="evenodd" width="44" height="32" x="2" y="-24" filter="url(#a)" rx="2" ry="2"/>
        <path fill="none" stroke="#9e9e9e" stroke-linecap="round" stroke-linejoin="round" stroke-width="2" d="M15-20h-2v6h2m0 12h-2v6h2m18-24h2v6h-2m0 12h2v6h-2"/>
        <path fill="none" stroke="#4caf50" stroke-linecap="round" stroke-linejoin="round" stroke-width="2" d="M18-20v6m12-6v6m-8 3v6m4-6v6m-8 3v6m0-15v6m12-6v6m0 3v6"/>
        <path fill="none" stroke="#9e9e9e" stroke-linecap="round" stroke-linejoin="round" stroke-width="2" d="M15-11h-2v6h2m18-6h2v6h-2"/>
    </g>
</svg>