<svg xmlns="http://www.w3.org/2000/svg" width="48" height="48">
    <defs>
        <filter id="a">
            <feGaussianBlur in="SourceAlpha" stdDeviation=".8"/>
            <feOffset dy=".4"/>
            <feComponentTransfer>
                <feFuncA slope=".3" type="linear"/>
            </feComponentTransfer>
            <feMerge>
                <feMergeNode/>
                <feMergeNode in="SourceGraphic"/>
            </feMerge>
        </filter>
        <clipPath id="c">
            <path fill="#dcedc8" d="M-34.03 13.973A2 2 0 0 0-36 16v4a10.002 10.002 0 0 0 10 10h2v-4h-2a2 2 0 1 0 0-4 5.997 5.997 0 0 1-4.242-1.758A5.997 5.997 0 0 1-32 16a2 2 0 0 0-2.03-2.027z"/>
        </clipPath>
        <clipPath id="b">
            <circle fill="#8bc34a" fill-rule="evenodd" cx="24" cy="-8" r="22"/>
        </clipPath>
    </defs>
    <g transform="translate(0 32)">
        <circle fill="#8bc34a" fill-rule="evenodd" cx="24" cy="-8" r="22" filter="url(#a)"/>
        <path fill="#dcedc8" d="M17.94 13.943A4 4 0 0 0 14 18v2.46c-.081-.072-.165-.14-.242-.218A5.997 5.997 0 0 1 12 16a2 2 0 0 0-2.03-2.027A2 2 0 0 0 8 16v4c0 2.651 1.055 5.195 2.93 7.07a9.992 9.992 0 0 0 3.558 2.282A12 12 0 0 0 20 36.392a12.016 12.016 0 0 0 12 0A12.013 12.013 0 0 0 37.824 28H40a2 2 0 0 0 2-2v-2a2 2 0 0 0-2-2h-8.203A9.937 9.937 0 0 0 32 20v-4a2 2 0 0 0-2.03-2.027A2 2 0 0 0 28 16c0 3.337-2.663 6-6 6v-4a4 4 0 0 0-4.06-4.057z" filter="url(#a)" transform="translate(0 -32)"/>
        <path fill="#251212" fill-rule="evenodd" stroke="#000" stroke-linecap="round" stroke-linejoin="round" stroke-width="4" opacity=".1" d="M30-16l8 8h2l8 8v16H34L19 1l1-16L30-5z" clip-path="url(#b)"/>
        <path fill="#f1f8e9" d="M17.94-18.057A4 4 0 0 0 14-14v8a4 4 0 0 0 .014.4A12.012 12.012 0 0 0 20 4.393a12.016 12.016 0 0 0 12 0A12.013 12.013 0 0 0 37.824-4H40a2 2 0 0 0 2-2v-2a2 2 0 0 0-2-2h-8.203A9.937 9.937 0 0 0 32-12v-4a2 2 0 0 0-2.03-2.027A2 2 0 0 0 28-16c0 3.337-2.663 6-6 6v-4a4 4 0 0 0-4.06-4.057z"/>
        <path fill="#f1f8e9" d="M-26.06 13.943A4 4 0 0 0-30 18v8a4 4 0 0 0 .014.4A12.012 12.012 0 0 0-24 36.393a12.016 12.016 0 0 0 12 0A12.013 12.013 0 0 0-6.176 28H-4a2 2 0 0 0 2-2v-2a2 2 0 0 0-2-2h-8.203A9.937 9.937 0 0 0-12 20v-4a2 2 0 0 0-2.03-2.027A2 2 0 0 0-16 16c0 3.337-2.663 6-6 6v-4a4 4 0 0 0-4.06-4.057z" clip-path="url(#c)" filter="url(#a)" transform="translate(44 -32)"/>
        <path fill="#424242" d="M16-15a1 1 0 0 0-1 1 1 1 0 0 0 1 1 1 1 0 0 0 1-1 1 1 0 0 0-1-1zm3 0a1 1 0 0 0-1 1 1 1 0 0 0 1 1 1 1 0 0 0 1-1 1 1 0 0 0-1-1zm-3 3a1 1 0 0 0-1 1v1a1 1 0 0 0 1.447.895l2-1A1 1 0 0 0 18-12z"/>
    </g>
</svg>
