<svg 
    xmlns="http://www.w3.org/2000/svg" width="48" height="48">
    <defs>
        <filter id="a">
            <feGaussianBlur in="SourceAlpha" stdDeviation=".8"/>
            <feOffset dy=".4"/>
            <feComponentTransfer>
                <feFuncA slope=".3" type="linear"/>
            </feComponentTransfer>
            <feMerge>
                <feMergeNode/>
                <feMergeNode in="SourceGraphic"/>
            </feMerge>
        </filter>
        <clipPath id="b">
            <path fill="#212121" fill-rule="evenodd" d="M23.984-30a1 1 0 0 0-.691.293l-20 20a1 1 0 0 0 .26 1.602L11.763-4l-4.21 2.105a1 1 0 0 0 0 1.79L15.763 4l-4.21 2.105a1 1 0 0 0 0 1.79l12 6a1 1 0 0 0 .894 0l8-4a1 1 0 0 0 0-1.79L28.237 6l8.21-4.105a1 1 0 0 0 0-1.79L32.237-2l12.21-6.105a1 1 0 0 0 .26-1.602l-20-20a1 1 0 0 0-.723-.293z"/>
        </clipPath>
    </defs>
    <g fill-rule="evenodd">
        <path fill="#263238" stroke="#263238" stroke-linecap="round" stroke-linejoin="round" stroke-width="2" d="M24-29L4-9l10 5-6 3 10 5-6 3 12 6 8-4-6-3 10-5-6-3 14-7z" filter="url(#a)" transform="translate(0 32)"/>
        <path fill="#eceff1" d="M23.984-33a1 1 0 0 0-.691.293l-14 14a1 1 0 0 0 .26 1.602l6 3a1 1 0 0 0 .894 0L20-15.883l5.553 2.778a1 1 0 0 0 .894 0L32-15.883l1.553.778a1 1 0 0 0 .894 0l4-2a1 1 0 0 0 .26-1.602l-14-14a1 1 0 0 0-.723-.293z" clip-path="url(#b)" transform="translate(0 32)"/>
    </g>
</svg>