<svg 
    xmlns="http://www.w3.org/2000/svg" width="48" height="48">
    <defs>
        <filter id="a">
            <feGaussianBlur in="SourceAlpha" stdDeviation=".8"/>
            <feOffset dy=".4"/>
            <feComponentTransfer>
                <feFuncA slope=".3" type="linear"/>
            </feComponentTransfer>
            <feMerge>
                <feMergeNode/>
                <feMergeNode in="SourceGraphic"/>
            </feMerge>
        </filter>
    </defs>
    <g transform="translate(0 32)">
        <circle fill="#fafafa" fill-rule="evenodd" cx="24" cy="-8" r="22" filter="url(#a)"/>
        <path fill="none" stroke="#3f51b5" stroke-linecap="round" stroke-linejoin="round" stroke-width="2" d="M12-7v8m8-8v8m8-8v4m8-8v8"/>
        <path fill="#fafafa" fill-rule="evenodd" stroke="#3f51b5" stroke-linecap="round" stroke-linejoin="round" stroke-width="2" d="M12-7a4 4 0 0 1 4-4 4 4 0 0 1 4 4m0 0a4 4 0 0 1 4-4 4 4 0 0 1 4 4m8 4a4 4 0 0 1-2 3.464 4 4 0 0 1-4 0A4 4 0 0 1 28-3m0-12a4 4 0 0 1 4-4 4 4 0 0 1 4 4"/>
        <circle fill="#3f51b5" fill-rule="evenodd" cx="32" cy="-15" r="1"/>
    </g>
</svg>