<svg xmlns="http://www.w3.org/2000/svg" width="48" height="48">
    <defs>
        <filter id="a">
            <feGaussianBlur in="SourceAlpha" stdDeviation=".8"/>
            <feOffset dy=".4"/>
            <feComponentTransfer>
                <feFuncA slope=".3" type="linear"/>
            </feComponentTransfer>
            <feMerge>
                <feMergeNode/>
                <feMergeNode in="SourceGraphic"/>
            </feMerge>
        </filter>
    </defs>
    <g fill-rule="evenodd" transform="translate(0 32)">
        <path fill="#fafafa" d="M18 2l-4 4v4H4c-1.108 0-2 .892-2 2v28c0 1.108.892 2 2 2h40c1.108 0 2-.892 2-2V12c0-1.108-.892-2-2-2H34V6l-4-4H18zm0 4h12v4H18V6z" filter="url(#a)" transform="translate(0 -32)"/>
        <circle fill="#2196f3" cx="24" cy="-6" r="2"/>
        <circle fill="#2196f3" cx="24" cy="-12" r="2"/>
        <circle fill="#2196f3" cx="30" cy="-12" r="2"/>
        <circle fill="#2196f3" cx="30" cy="-6" r="2"/>
        <circle fill="#2196f3" cx="30" r="2"/>
        <circle fill="#2196f3" cx="24" r="2"/>
        <circle fill="#2196f3" cx="18" r="2"/>
        <circle fill="#2196f3" cx="18" cy="-6" r="2"/>
        <circle fill="#2196f3" cx="18" cy="-12" r="2"/>
    </g>
</svg>
