<svg xmlns="http://www.w3.org/2000/svg" width="48" height="48"><defs><filter id="a"><feGaussianBlur in="SourceAlpha" stdDeviation=".8"/><feOffset dy=".4"/><feComponentTransfer><feFuncA slope=".3" type="linear"/></feComponentTransfer><feMerge><feMergeNode/><feMergeNode in="SourceGraphic"/></feMerge></filter></defs><g transform="translate(0 32)"><path fill="#cfd8dc" fill-rule="evenodd" d="M17-26a2 2 0 0 0-1.414.586L12.172-22H4a2 2 0 0 0-2 2V6a2 2 0 0 0 2 2h40a2 2 0 0 0 2-2v-26a2 2 0 0 0-2-2h-8.172l-3.414-3.414A2 2 0 0 0 31-26z" filter="url(#a)"/><path fill="#b0bec5" d="M2-16h44V2H2z"/><path opacity=".1" d="M31.777-14.777L16.223.777 23.445 8H44a2 2 0 0 0 2-2V-.557l-14.223-14.22z"/><circle fill="#212121" stroke="#eceff1" stroke-linecap="round" stroke-linejoin="round" stroke-width="4" cx="24" cy="-7" r="9" filter="url(#a)"/><circle fill="#f44336" cx="8" cy="-16" r="2"/></g></svg>