<svg 
    xmlns="http://www.w3.org/2000/svg" width="48" height="48">
    <defs>
        <filter id="a">
            <feGaussianBlur in="SourceAlpha" stdDeviation=".8"/>
            <feOffset dy=".4"/>
            <feComponentTransfer>
                <feFuncA slope=".3" type="linear"/>
            </feComponentTransfer>
            <feMerge>
                <feMergeNode/>
                <feMergeNode in="SourceGraphic"/>
            </feMerge>
        </filter>
        <clipPath id="d">
            <rect fill-rule="evenodd" width="48" height="24" y="-32" rx="2" ry="2"/>
        </clipPath>
        <clipPath id="b">
            <rect fill="#2196f3" fill-rule="evenodd" width="38" height="38" x="5" y="-27" rx="2" ry="2"/>
        </clipPath>
    </defs>
    <g transform="translate(0 32)">
        <rect fill="#2196f3" fill-rule="evenodd" width="38" height="38" x="5" y="-27" filter="url(#a)" rx="2" ry="2"/>
        <path fill-rule="evenodd" stroke="#000" stroke-linecap="round" stroke-linejoin="round" stroke-width="4" opacity=".1" d="M38-22L10 6l10 10h28v-28z" clip-path="url(#b)"/>
        <rect fill="#fafafa" fill-rule="evenodd" width="32" height="32" x="8" y="-24" filter="url(#a)" rx="2" ry="2"/>
        <path fill="none" stroke="#616161" stroke-linecap="round" stroke-linejoin="round" stroke-width="4" d="M27-14h7L29-2m-8-8.5c0 4-7 8.5-7 8.5h7m-7-8.528A3.472 3.472 0 0 1 17.472-14a3.472 3.472 0 0 1 3.471 3.472"/>
        <rect fill-rule="evenodd" opacity=".1" width="32" height="32" x="8" y="-24" clip-path="url(#d)" rx="2" ry="2"/>
    </g>
</svg>