<svg xmlns="http://www.w3.org/2000/svg" width="48" height="48"><defs><filter id="a"><feGaussianBlur in="SourceAlpha" stdDeviation=".8"/><feOffset dy=".4"/><feComponentTransfer><feFuncA slope=".3" type="linear"/></feComponentTransfer><feMerge><feMergeNode/><feMergeNode in="SourceGraphic"/></feMerge></filter><clipPath id="b"><path fill="#212121" fill-rule="evenodd" d="M-20-30a2 2 0 0 0-2 2v10h-4L-46 2v10a2 2 0 0 0 2 2h16a2 2 0 0 0 2-2V2h4l20-20v-10a2 2 0 0 0-2-2h-16z"/></clipPath></defs><g transform="translate(0 32)"><path fill="#1a237e" fill-rule="evenodd" d="M28 2a2 2 0 0 0-2 2v10h-4L2 34v10a2 2 0 0 0 2 2h16a2 2 0 0 0 2-2V34h4l20-20V4a2 2 0 0 0-2-2H28z" filter="url(#a)" transform="translate(0 -32)"/><rect fill="#3f51b5" fill-rule="evenodd" width="4" height="12" x="22" y="-14" rx="0" ry="0"/><path fill="none" opacity=".1" d="M22-18l4 4V2h-4z"/><path fill="#1a237e" fill-rule="evenodd" d="M-20-30a2 2 0 0 0-2 2V2l20-20v-10a2 2 0 0 0-2-2zm-6 12L-46 2v10a2 2 0 0 0 2 2h16a2 2 0 0 0 2-2z" clip-path="url(#b)" filter="url(#a)" transform="translate(48)"/><path fill="#3f51b5" fill-rule="evenodd" d="M30-30h12v16L30-2zM6-2l12-12v28H6z"/></g></svg>