<svg 
    xmlns="http://www.w3.org/2000/svg" width="48" height="48">
    <defs>
        <filter id="a">
            <feGaussianBlur in="SourceAlpha" stdDeviation=".8"/>
            <feOffset dy=".4"/>
            <feComponentTransfer>
                <feFuncA slope=".3" type="linear"/>
            </feComponentTransfer>
            <feMerge>
                <feMergeNode/>
                <feMergeNode in="SourceGraphic"/>
            </feMerge>
        </filter>
        <clipPath id="b">
            <circle fill="#ffeb3b" cx="-32" cy="-12" r="14"/>
        </clipPath>
    </defs>
    <path fill="#ffeb3b" d="M16 6A14 14 0 0 0 2 20a14 14 0 0 0 4.215 9.994A10 10 0 0 0 6 32a10 10 0 0 0 10 10h22a8 8 0 0 0 8-8 8 8 0 0 0-8-8 8 8 0 0 0-.21.008 10 10 0 0 0-7.925-7.822A14 14 0 0 0 16 6z" filter="url(#a)"/>
    <path fill="#fafafa" d="M-20-14a10 10 0 0 0-8.445 4.666A10 10 0 0 0-32-10 10 10 0 0 0-42 0a10 10 0 0 0 10 10h22a8 8 0 0 0 8-8 8 8 0 0 0-8-8 8 8 0 0 0-.21.008A10 10 0 0 0-20-14z" clip-path="url(#b)" filter="url(#a)" transform="translate(48 32)"/>
    <path fill="#fafafa" d="M28 18a10 10 0 0 0-8.445 4.666A10 10 0 0 0 16 22 10 10 0 0 0 6 32a10 10 0 0 0 10 10h22a8 8 0 0 0 8-8 8 8 0 0 0-8-8 8 8 0 0 0-.21.008A10 10 0 0 0 28 18z"/>
</svg>