<svg xmlns="http://www.w3.org/2000/svg" width="48" height="48"><defs><filter id="a"><feGaussianBlur in="SourceAlpha" stdDeviation=".8"/><feOffset dy=".4"/><feComponentTransfer><feFuncA slope=".3" type="linear"/></feComponentTransfer><feMerge><feMergeNode/><feMergeNode in="SourceGraphic"/></feMerge></filter><clipPath id="b"><rect fill="none" stroke="#000" stroke-linecap="round" stroke-linejoin="round" stroke-width=".1" width="32" height="44" x="8" y="-30" rx="2" ry="2"/></clipPath><clipPath id="c"><rect fill="#b0bec5" fill-rule="evenodd" width="24" height="16" x="12" y="-26" rx="2" ry="2"/></clipPath><clipPath id="d"><rect fill="#b0bec5" fill-rule="evenodd" width="24" height="16" x="12" y="-26" rx="2" ry="2"/></clipPath></defs><g fill-rule="evenodd" transform="translate(0 32)"><rect fill="#2196f3" width="32" height="44" x="8" y="-30" filter="url(#a)" rx="2" ry="2"/><path stroke="#000" stroke-linecap="round" stroke-linejoin="round" stroke-width="4" opacity=".1" d="M14-24h20l8 8v32H22l-8-8V-4h8l-8-8z" clip-path="url(#b)"/><rect fill="#64b5f6" width="24" height="16" x="12" y="-26" filter="url(#a)" rx="2" ry="2"/><rect fill="#64b5f6" width="24" height="16" x="12" y="-6" filter="url(#a)" rx="2" ry="2"/><path stroke="#000" stroke-linecap="round" stroke-linejoin="round" stroke-width="4" opacity=".1" d="M20-20h8l10 10v2h-6z" clip-path="url(#c)"/><path fill="#e3f2fd" d="M20-22a2 2 0 1 0 0 4h8a2 2 0 1 0 0-4h-8z" filter="url(#a)"/><path stroke="#000" stroke-linecap="round" stroke-linejoin="round" stroke-width="4" opacity=".1" d="M20-20h8l10 10v2h-6z" clip-path="url(#d)" transform="translate(0 20)"/><path fill="#e3f2fd" d="M20-2a2 2 0 1 0 0 4h8a2 2 0 1 0 0-4h-8z" filter="url(#a)"/></g></svg>