<svg 
    xmlns="http://www.w3.org/2000/svg" width="48" height="48">
    <defs>
        <filter id="a">
            <feGaussianBlur in="SourceAlpha" stdDeviation=".8"/>
            <feOffset dy=".4"/>
            <feComponentTransfer>
                <feFuncA slope=".3" type="linear"/>
            </feComponentTransfer>
            <feMerge>
                <feMergeNode/>
                <feMergeNode in="SourceGraphic"/>
            </feMerge>
        </filter>
    </defs>
    <g transform="translate(0 32)">
        <rect fill="#b0bec5" fill-rule="evenodd" width="44" height="30" x="2" y="-23" filter="url(#a)" rx="2" ry="2"/>
        <path fill="#009688" d="M4-23c-1.108 0-2 .892-2 2V5c0 1.108.892 2 2 2h28v-30H4z"/>
        <path fill="none" stroke="#e0f2f1" stroke-linecap="round" stroke-width="2" d="M7-11a3 3 0 0 1-3 3m3-3a3 3 0 0 1 3-3 3 3 0 0 1 3 3m10 7A5 5 0 0 1 20.5.33a5 5 0 0 1-5 0A5 5 0 0 1 13-4m10-8a5 5 0 0 1 5-5"/>
        <path fill="none" stroke="#e0f2f1" stroke-width="2" d="M13-11v7m10-8v8m5-13h4"/>
        <path opacity=".1" d="M35.465-11.465l6.293 6.293-1.465 1.465a.98.98 0 0 0-.225.361l-2.361-2.361a1 1 0 0 0-1.414 0l-2 2a1 1 0 0 0 0 1.414L36.656.07a.985.985 0 0 0-.363.223l-2 2a1 1 0 0 0 0 1.414L37.586 7H44c1.108 0 1.942-.894 2-2v-20.07l-3.465-3.465z"/>
        <path fill="#eceff1" d="M39-20a5 5 0 1 0 0 10 5 5 0 0 0 0-10zM35-6c-.554 0-1 .446-1 1v2c0 .554.446 1 1 1h2c.554 0 1-.446 1-1v-2c0-.554-.446-1-1-1zm6 0c-.554 0-1 .446-1 1v2c0 .554.446 1 1 1h2c.554 0 1-.446 1-1v-2c0-.554-.446-1-1-1zm-6 6c-.554 0-1 .446-1 1v2c0 .554.446 1 1 1h2c.554 0 1-.446 1-1V1c0-.554-.446-1-1-1zm6 0c-.554 0-1 .446-1 1v2c0 .554.446 1 1 1h2c.554 0 1-.446 1-1V1c0-.554-.446-1-1-1z" filter="url(#a)"/>
        <path fill="none" stroke="#e0f2f1" stroke-width="2" d="M2-8h2"/>
    </g>
</svg>