<svg 
    xmlns="http://www.w3.org/2000/svg" width="48" height="48">
    <defs>
        <filter id="a">
            <feGaussianBlur in="SourceAlpha" stdDeviation=".8"/>
            <feOffset dy=".4"/>
            <feComponentTransfer>
                <feFuncA slope=".3" type="linear"/>
            </feComponentTransfer>
            <feMerge>
                <feMergeNode/>
                <feMergeNode in="SourceGraphic"/>
            </feMerge>
        </filter>
        <clipPath id="b">
            <path fill-rule="evenodd" opacity=".1" d="M16 0l16-16L56 8 40 24z"/>
        </clipPath>
    </defs>
    <g fill="#b0bec5" fill-rule="evenodd" stroke="#b0bec5" filter="url(#a)" transform="translate(0 32)">
        <path stroke-width="4" d="M14-18L34 2"/>
        <path stroke-linecap="round" stroke-linejoin="round" stroke-width="2" d="M11-27a6 6 0 0 0-.924.076L15-22l-5 5-4.922-4.922A6 6 0 0 0 5-21a6 6 0 0 0 6 6 6 6 0 0 0 6-6 6 6 0 0 0-6-6zm26 38a6 6 0 0 0 .924-.076L33 6l5-5 4.922 4.922A6 6 0 0 0 43 5a6 6 0 0 0-6-6 6 6 0 0 0-6 6 6 6 0 0 0 6 6z"/>
    </g>
    <g fill-rule="evenodd" stroke="#000" opacity=".1" clip-path="url(#b)" transform="translate(0 32)">
        <path stroke-width="4" d="M14-18L34 2"/>
        <path stroke-linecap="round" stroke-linejoin="round" stroke-width="2" d="M11-27a6 6 0 0 0-.924.076L15-22l-5 5-4.922-4.922A6 6 0 0 0 5-21a6 6 0 0 0 6 6 6 6 0 0 0 6-6 6 6 0 0 0-6-6zm26 38a6 6 0 0 0 .924-.076L33 6l5-5 4.922 4.922A6 6 0 0 0 43 5a6 6 0 0 0-6-6 6 6 0 0 0-6 6 6 6 0 0 0 6 6z"/>
    </g>
    <path fill="none" stroke="#b0bec5" stroke-width="4" d="M41-25L18-2" filter="url(#a)" transform="translate(0 32)"/>
    <path fill="#2196f3" fill-rule="evenodd" stroke="#2196f3" stroke-linejoin="round" stroke-width="2" d="M5 6l5 5L22-1l-5-5z" filter="url(#a)" transform="translate(0 32)"/>
</svg>