<svg xmlns="http://www.w3.org/2000/svg" width="16" height="16">
    <path fill-rule="evenodd" d="M8 0C3.594 0 0 3.594 0 8c0 4.406 3.594 8 8 8 4.406 0 8-3.594 8-8 0-4.406-3.594-8-8-8zm0 2c.099 0 .236.035.465.262.23.226.503.633.738 1.181.382.89.657 2.147.752 3.557h-3.91c.095-1.41.37-2.666.752-3.557.235-.548.509-.955.738-1.181C7.765 2.035 7.901 2 8 2zm-3.12.877C4.419 4.036 4.13 5.446 4.042 7H2.09a5.97 5.97 0 0 1 2.79-4.123zm6.24 0A5.97 5.97 0 0 1 13.91 7h-1.95c-.088-1.554-.377-2.964-.84-4.123zM2.09 9h1.95c.088 1.554.377 2.964.84 4.123A5.97 5.97 0 0 1 2.09 9zm3.955 0h3.91c-.095 1.41-.37 2.666-.752 3.557-.235.548-.509.955-.738 1.181-.23.227-.366.262-.465.262-.099 0-.236-.035-.465-.262-.23-.226-.503-.633-.738-1.181-.382-.89-.657-2.147-.752-3.557zm5.914 0h1.951a5.97 5.97 0 0 1-2.79 4.123c.462-1.159.75-2.569.839-4.123z"/>
</svg>
