<svg xmlns="http://www.w3.org/2000/svg" width="48" height="48"><defs><filter id="a"><feGaussianBlur in="SourceAlpha" stdDeviation=".8"/><feOffset dy=".4"/><feComponentTransfer><feFuncA slope=".3" type="linear"/></feComponentTransfer><feMerge><feMergeNode/><feMergeNode in="SourceGraphic"/></feMerge></filter><clipPath id="b"><rect fill="#cfd8dc" fill-rule="evenodd" width="32" height="44" x="8" y="-30" rx="2" ry="2"/></clipPath></defs><g transform="translate(0 32)"><rect fill="#cfd8dc" fill-rule="evenodd" width="32" height="44" x="8" y="-30" filter="url(#a)" rx="2" ry="2"/><path fill-rule="evenodd" stroke="#000" stroke-linecap="round" stroke-linejoin="round" stroke-width="4" opacity=".1" d="M16-6l16-16 10 10v32z" clip-path="url(#b)"/><circle fill="#ffc107" cx="24" cy="-14" r="10"/><path fill="#212121" d="M24 6a12 12 0 0 0-6.621 2H16c-1.108 0-2 .892-2 2v1.38A12 12 0 0 0 12 18a12 12 0 0 0 2 6.621V26c0 1.108.892 2 2 2h1.38A12 12 0 0 0 24 30a12 12 0 0 0 6.621-2H32c1.108 0 2-.892 2-2v-1.38A12 12 0 0 0 36 18a12 12 0 0 0-2-6.621V10c0-1.108-.892-2-2-2h-1.38A12 12 0 0 0 24 6zm0 4a8 8 0 0 1 8 8 8 8 0 0 1-8 8 8 8 0 0 1-8-8 8 8 0 0 1 8-8zm0 4a4 4 0 0 0-4 4 4 4 0 0 0 4 4 4 4 0 0 0 4-4 4 4 0 0 0-4-4z" filter="url(#a)" transform="translate(0 -32)"/><circle fill="#90a4ae" fill-opacity=".941" cx="32" cy="6" r="4"/></g></svg>