<svg xmlns="http://www.w3.org/2000/svg" width="48" height="48">
    <defs>
        <filter id="a">
            <feGaussianBlur in="SourceAlpha" stdDeviation=".8"/>
            <feOffset dy=".4"/>
            <feComponentTransfer>
                <feFuncA slope=".3" type="linear"/>
            </feComponentTransfer>
            <feMerge>
                <feMergeNode/>
                <feMergeNode in="SourceGraphic"/>
            </feMerge>
        </filter>
    </defs>
    <g transform="translate(0 32)">
        <circle fill="#e91e63" fill-rule="evenodd" cx="24" cy="-8" r="22" filter="url(#a)"/>
        <path fill="none" stroke="#fce4ec" stroke-width="2" d="M24-8H12m24 0H24m0 0l-6-10.392M30 2.392L24-8m0 0L18 2.392m12-20.784L24-8"/>
        <circle fill="#fce4ec" fill-rule="evenodd" cx="24" cy="-8" r="3"/>
        <path fill="none" stroke="#fce4ec" stroke-width="2" d="M12-8l6-10.392M36-8l-6-10.392M36-8L30 2.392"/>
        <circle fill="#fce4ec" fill-rule="evenodd" cx="36" cy="-8" r="3"/>
        <path fill="none" stroke="#fce4ec" stroke-width="2" d="M18 2.392L12-8"/>
        <circle fill="#fce4ec" fill-rule="evenodd" cx="12" cy="-8" r="3"/>
        <path fill="none" stroke="#fce4ec" stroke-width="2" d="M18-18.392h12"/>
        <circle fill="#fce4ec" fill-rule="evenodd" cx="30.928" cy="16.785" r="3" transform="rotate(-60)"/>
        <circle fill="#fce4ec" fill-rule="evenodd" cx="-6.928" cy="-24.785" r="3" transform="rotate(60)"/>
        <path fill="none" stroke="#fce4ec" stroke-width="2" d="M30 2.392H18"/>
        <circle fill="#fce4ec" fill-rule="evenodd" cx="6.928" cy="16.785" r="3" transform="rotate(-60)"/>
        <circle fill="#fce4ec" fill-rule="evenodd" cx="17.072" cy="-24.785" r="3" transform="rotate(60)"/>
    </g>
</svg>
