<svg xmlns="http://www.w3.org/2000/svg" width="48" height="48">
    <defs>
        <clipPath id="d">
            <path fill="#3f51b5" fill-rule="evenodd" d="M2-17.86V1.86l8 4.28 14-9.333L38 6.14l8-4.282V-17.86l-8-4.282-14 9.334-14-9.334zm8 5.335L16.79-8 10-3.475zm28 0v9.05L31.21-8z"/>
        </clipPath>
        <filter id="a">
            <feGaussianBlur in="SourceAlpha" stdDeviation=".8"/>
            <feOffset dy=".4"/>
            <feComponentTransfer>
                <feFuncA slope=".3" type="linear"/>
            </feComponentTransfer>
            <feMerge>
                <feMergeNode/>
                <feMergeNode in="SourceGraphic"/>
            </feMerge>
        </filter>
        <clipPath id="b">
            <path fill="#3f51b5" fill-rule="evenodd" d="M50-17.86V1.86l8 4.28 14-9.333L86 6.14l8-4.282V-17.86l-8-4.282-14 9.334-14-9.334zm8 5.335L64.79-8 58-3.475zm28 0v9.05L79.21-8z"/>
        </clipPath>
        <clipPath id="e">
            <path fill="#3f51b5" fill-rule="evenodd" d="M50-17.86V1.86l8 4.28 14-9.333L86 6.14l8-4.282V-17.86l-8-4.282-14 9.334-14-9.334zm8 5.335L64.79-8 58-3.475zm28 0v9.05L79.21-8z"/>
        </clipPath>
        <clipPath id="c">
            <path fill="#3f51b5" fill-rule="evenodd" d="M2-17.86V1.86l8 4.28 14-9.333L38 6.14l8-4.282V-17.86l-8-4.282-14 9.334-14-9.334zm8 5.335L16.79-8 10-3.475zm28 0v9.05L31.21-8z"/>
        </clipPath>
    </defs>
    <g fill-rule="evenodd">
        <path fill="#3f51b5" d="M2-17.86V1.86l8 4.28 14-9.333L38 6.14l8-4.282V-17.86l-8-4.282-14 9.334-14-9.334zm8 5.335L16.79-8 10-3.475zm28 0v9.05L31.21-8z" filter="url(#a)" transform="translate(0 32)"/>
        <path opacity=".1" d="M2 14.133l8 8v-8z"/>
        <path fill="#3f51b5" d="M52.89-25.547l-4.437 6.656 3.328 2.22 36 24 3.328 2.218 4.438-6.656L92.219.67l-36-24-3.328-2.218z" clip-path="url(#b)" filter="url(#a)" transform="translate(-48 32)"/>
        <path opacity=".1" d="M18-4l12-8L50 0 36 10z" clip-path="url(#c)" transform="translate(0 32)"/>
        <path fill="#3f51b5" fill-opacity=".941" d="M43.11-25.547l-3.329 2.219-36 24L.453 2.89l4.438 6.656 3.328-2.219 36-24 3.328-2.219-4.438-6.656z" clip-path="url(#d)" filter="url(#a)" transform="translate(0 32)"/>
        <path fill="#3f51b5" d="M86-24V8h8v-32h-8z" clip-path="url(#e)" filter="url(#a)" transform="translate(-48 32)"/>
    </g>
</svg>
