<svg xmlns="http://www.w3.org/2000/svg" width="48" height="48"><defs><filter id="a"><feGaussianBlur in="SourceAlpha" stdDeviation=".8"/><feOffset dy=".4"/><feComponentTransfer><feFuncA slope=".3" type="linear"/></feComponentTransfer><feMerge><feMergeNode/><feMergeNode in="SourceGraphic"/></feMerge></filter><clipPath id="b"><path fill="#ff9800" fill-rule="evenodd" d="M22-27a2 2 0 0 0-1.877 1.31L9.603 3H7c-1.108 0-2 .892-2 2v4c0 1.108.892 2 2 2h34c1.108 0 2-.892 2-2V5c0-1.108-.892-2-2-2h-2.604L27.877-25.69A2 2 0 0 0 26-27h-4z"/></clipPath><clipPath id="d"><path fill="#f57c00" fill-rule="evenodd" d="M22-27a2 2 0 0 0-1.877 1.31L9.603 3H7c-1.108 0-2 .892-2 2v4c0 1.108.892 2 2 2h34c1.108 0 2-.892 2-2V5c0-1.108-.892-2-2-2h-2.604L27.877-25.69A2 2 0 0 0 26-27h-4z"/></clipPath><clipPath id="c"><path fill="#f57c00" fill-rule="evenodd" d="M22-27a2 2 0 0 0-1.877 1.31L9.603 3H7c-1.108 0-2 .892-2 2v4c0 1.108.892 2 2 2h34c1.108 0 2-.892 2-2V5c0-1.108-.892-2-2-2h-2.604L27.877-25.69A2 2 0 0 0 26-27h-4z"/></clipPath></defs><g fill-rule="evenodd" transform="translate(0 32)"><path fill="#f57c00" d="M22 5a2 2 0 0 0-1.877 1.31L9.603 35H7c-1.108 0-2 .892-2 2v4c0 1.108.892 2 2 2h34c1.108 0 2-.892 2-2v-4c0-1.108-.892-2-2-2h-2.604L27.877 6.31A2 2 0 0 0 26 5h-4z" filter="url(#a)" transform="translate(0 -32)"/><rect fill="#ff9800" width="38" height="8" x="5" y="3" clip-path="url(#b)" filter="url(#a)" rx="2" ry="2"/><rect fill="#fff3e0" width="32" height="7" x="8" y="-9" clip-path="url(#c)" rx="0" ry="0"/><rect fill="#fff3e0" width="32" height="7" x="8" y="-21" clip-path="url(#d)" rx="0" ry="0"/></g></svg>