<svg xmlns="http://www.w3.org/2000/svg" width="48" height="48">
    <defs>
        <filter id="a">
            <feGaussianBlur in="SourceAlpha" stdDeviation=".8"/>
            <feOffset dy=".4"/>
            <feComponentTransfer>
                <feFuncA slope=".3" type="linear"/>
            </feComponentTransfer>
            <feMerge>
                <feMergeNode/>
                <feMergeNode in="SourceGraphic"/>
            </feMerge>
        </filter>
        <clipPath id="b">
            <rect ry="2" rx="2" y="10.912" x="-37.902" height="38" width="38" transform="rotate(15)" fill="#fff"/>
        </clipPath>
    </defs>
    <rect ry="2" rx="2" y="5" x="5" height="38" width="38" filter="url(#a)" fill="#fff"/>
    <g transform="rotate(-15 -1 -165.894)" clip-path="url(#b)">
        <path fill="#e91e63" d="M-38 34h24v14h-24z"/>
        <rect ry="0" y="12" x="-50" height="24" width="14" fill="#26a69a"/>
        <path fill="#ffc107" d="M-16 12h14v24h-14z"/>
        <path fill="#4fc3f7" d="M-38 0h24v14h-24z"/>
        <path fill="#0097a7" d="M-50 0h14v14h-14z"/>
        <path fill="#7cb342" d="M-16 0h14v14h-14z"/>
        <path fill="#c62828" d="M-16 34h14v14h-14z"/>
        <rect ry="0" y="34" x="-50" height="14" width="14" fill="#ad1457"/>
    </g>
    <path d="M27 18h-3m0 12h-3m3-6a3 3 0 0 1-2.598-1.5 3 3 0 0 1 0-3A3 3 0 0 1 24 18m0 6a3 3 0 0 1 3 3 3 3 0 0 1-3 3" fill="none" stroke="#212121" stroke-width="4" stroke-linecap="round" stroke-linejoin="round"/>
</svg>
