<svg xmlns="http://www.w3.org/2000/svg" width="48" height="48">
    <defs>
        <filter id="a">
            <feGaussianBlur in="SourceAlpha" stdDeviation=".8"/>
            <feOffset dy=".4"/>
            <feComponentTransfer>
                <feFuncA slope=".3" type="linear"/>
            </feComponentTransfer>
            <feMerge>
                <feMergeNode/>
                <feMergeNode in="SourceGraphic"/>
            </feMerge>
        </filter>
    </defs>
    <path d="M24 2A22 22 0 0 0 2 24a22 22 0 0 0 22 22 22 22 0 0 0 22-22A22 22 0 0 0 24 2zm0 6a12 16 0 0 1 12 16 12 16 0 0 1-12 16 12 16 0 0 1-12-16A12 16 0 0 1 24 8z" fill="#f44336" fill-rule="evenodd" filter="url(#a)"/>
</svg>
