<svg xmlns="http://www.w3.org/2000/svg" width="48" height="48">
    <defs>
        <filter id="a">
            <feGaussianBlur in="SourceAlpha" stdDeviation=".8"/>
            <feOffset dy=".4"/>
            <feComponentTransfer>
                <feFuncA slope=".3" type="linear"/>
            </feComponentTransfer>
            <feMerge>
                <feMergeNode/>
                <feMergeNode in="SourceGraphic"/>
            </feMerge>
        </filter>
        <clipPath id="c">
            <path fill="#303f9f" fill-rule="evenodd" d="M24-30C11.963-30 2.13-20.24 2.006-8.23A3 3 0 0 0 2-8v18c0 1.108.892 2 2 2h6c1.086 0 1.96-.858 1.994-1.936l.006.006 3.535-3.535L18 4.07l8.465 8.465a5 5 0 0 0 7.07 0l2.47-2.47A1.992 1.992 0 0 0 38 12h6c1.108 0 2-.892 2-2V-8c0-12.115-9.885-22-22-22zm0 6c8.872 0 16 7.128 16 16v2h-2c-1.086 0-1.96.858-1.994 1.936L36-4.07 32.465-.535 30 1.93l-8.465-8.465A5 5 0 0 0 17.925-8a5 5 0 0 0-3.46 1.465l-2.47 2.47A1.992 1.992 0 0 0 10-6H8v-2c0-8.872 7.128-16 16-16z"/>
        </clipPath>
        <clipPath id="b">
            <path fill="#303f9f" fill-rule="evenodd" d="M24-30C11.963-30 2.13-20.24 2.006-8.23A3 3 0 0 0 2-8v18c0 1.108.892 2 2 2h6c1.086 0 1.96-.858 1.994-1.936l.006.006 3.535-3.535L18 4.07l8.465 8.465a5 5 0 0 0 7.07 0l2.47-2.47A1.992 1.992 0 0 0 38 12h6c1.108 0 2-.892 2-2V-8c0-12.115-9.885-22-22-22zm0 6c8.872 0 16 7.128 16 16v2h-2c-1.086 0-1.96.858-1.994 1.936L36-4.07 32.465-.535 30 1.93l-8.465-8.465A5 5 0 0 0 17.925-8a5 5 0 0 0-3.46 1.465l-2.47 2.47A1.992 1.992 0 0 0 10-6H8v-2c0-8.872 7.128-16 16-16z"/>
        </clipPath>
    </defs>
    <g filter="url(#a)" transform="translate(0 32)">
        <path fill="none" stroke="#303f9f" stroke-linecap="round" stroke-linejoin="round" stroke-width="6" d="M5-8v5m0-5a19 19 0 0 1 19-19A19 19 0 0 1 43-8m0 0v5"/>
        <path fill="none" stroke="#ffc107" stroke-linecap="square" stroke-linejoin="round" stroke-opacity=".941" stroke-width="10" d="M12 3l6-6L30 9l6-6"/>
        <path fill="none" stroke="#f44336" stroke-linecap="square" stroke-linejoin="round" stroke-width="4" d="M12 3l6-6L30 9l6-6"/>
        <rect fill="#3f51b5" fill-rule="evenodd" width="10" height="18" x="2" y="-6" rx="2" ry="2"/>
        <rect fill="#3f51b5" fill-rule="evenodd" width="10" height="18" x="36" y="-6" rx="2" ry="2"/>
    </g>
    <path fill-rule="evenodd" stroke="#000" stroke-linecap="round" stroke-linejoin="round" stroke-width="4" opacity=".1" d="M10-4l20 20H10z" clip-path="url(#b)" transform="translate(0 32)"/>
    <path fill="#3f51b5" fill-rule="evenodd" d="M4-6c-1.108 0-2 .892-2 2v14c0 1.108.892 2 2 2h6c1.108 0 2-.892 2-2V-4c0-1.108-.892-2-2-2H4zm34 0c-1.108 0-2 .892-2 2v14c0 1.108.892 2 2 2h6c1.108 0 2-.892 2-2V-4c0-1.108-.892-2-2-2h-6z" clip-path="url(#c)" filter="url(#a)" transform="translate(0 32)"/>
</svg>
