<svg xmlns="http://www.w3.org/2000/svg" width="48" height="48">
    <defs>
        <filter id="a">
            <feGaussianBlur in="SourceAlpha" stdDeviation=".8"/>
            <feOffset dy=".4"/>
            <feComponentTransfer>
                <feFuncA slope=".3" type="linear"/>
            </feComponentTransfer>
            <feMerge>
                <feMergeNode/>
                <feMergeNode in="SourceGraphic"/>
            </feMerge>
        </filter>
    </defs>
    <g fill-rule="evenodd" transform="translate(0 32)">
        <circle fill="#e1f5fe" cx="24" cy="-8" r="22" filter="url(#a)"/>
        <path fill="#03a9f4" d="M23.223-29.973A22 22 0 0 0 2-8a22 22 0 0 0 22 22A11 11 0 0 0 35 3 11 11 0 0 0 24-8a11 11 0 0 1-11-11 11 11 0 0 1 10.223-10.973z"/>
        <path opacity=".1" d="M31.97-10a2 2 0 0 0-.962.264l-14 8a2 2 0 0 0-.422 3.15l12.062 12.063A22 22 0 0 0 43.98 1.152L33.414-9.414A2 2 0 0 0 31.971-10z"/>
        <path fill="#212121" d="M18.04-18A2 2 0 0 0 16-16V0c0 1.535 1.659 2.498 2.992 1.736l14-8c1.343-.768 1.343-2.704 0-3.472l-14-8A2 2 0 0 0 18.04-18z" filter="url(#a)"/>
    </g>
</svg>
