<svg xmlns="http://www.w3.org/2000/svg" width="48" height="48">
    <defs>
        <filter id="a">
            <feGaussianBlur in="SourceAlpha" stdDeviation=".8"/>
            <feOffset dy=".4"/>
            <feComponentTransfer>
                <feFuncA slope=".3" type="linear"/>
            </feComponentTransfer>
            <feMerge>
                <feMergeNode/>
                <feMergeNode in="SourceGraphic"/>
            </feMerge>
        </filter>
    </defs>
    <g transform="translate(0 1)" filter="url(#a)">
        <path d="M6 25h6V7v3l2 4 4 2h17l4-2 2-4V7v18l-3 6-6 3H15l-6-3z" fill="#795548" stroke="#795548" stroke-width="2" stroke-linecap="round" stroke-linejoin="round"/>
        <circle r="5" cy="22" cx="27" fill="#fff"/>
        <circle r="4" cy="23" cx="17" fill="#fff"/>
        <circle r="2" cy="24" cx="18" fill="#212121"/>
        <circle r="2.5" cy="23.5" cx="28.5" fill="#212121"/>
        <path d="M21 16a9 9 0 0 1-9-9m29 0a9 9 0 0 1-9 9m9 9a9 9 0 0 1-9 9m-17 0a9 9 0 0 1-9-9" fill="none" stroke="#795548" stroke-width="2" stroke-linecap="round" stroke-linejoin="round"/>
        <circle r="4" cy="25" cx="6" fill="#212121"/>
        <path d="M33 32l8 4" fill="none" stroke="#ff9800" stroke-width="2" stroke-linecap="round" stroke-linejoin="round"/>
        <path d="M43 37l-2-1" fill="none" stroke="#eceff1" stroke-width="2" stroke-linecap="round" stroke-linejoin="round"/>
        <path d="M45 38l-2-1m-11-5h-8m12.95-2.05A7 7 0 0 1 32 32" fill="none" stroke="#212121" stroke-width="2" stroke-linecap="round" stroke-linejoin="round"/>
    </g>
</svg>
