<svg xmlns="http://www.w3.org/2000/svg" width="48" height="48">
    <defs>
        <filter id="a">
            <feGaussianBlur in="SourceAlpha" stdDeviation=".8"/>
            <feOffset dy=".4"/>
            <feComponentTransfer>
                <feFuncA slope=".3" type="linear"/>
                <feFuncR type="identity"/>
                <feFuncG type="identity"/>
                <feFuncB type="identity"/>
            </feComponentTransfer>
            <feMerge>
                <feMergeNode/>
                <feMergeNode in="SourceGraphic"/>
            </feMerge>
        </filter>
    </defs>
    <rect fill="#00bcd4" fill-rule="evenodd" width="44" height="32" x="2" y="-24" filter="url(#a)" rx="2" ry="2" transform="translate(0 32)"/>
    <path d="M29.97 22a2 2 0 0 0-.927.244l-11 6a2 2 0 0 0-.457 3.17L26.172 40H44c1.108 0 2-.892 2-2v-.828L31.414 22.586A2 2 0 0 0 29.971 22z" fill-rule="evenodd" opacity=".1"/>
    <path style="line-height:normal;font-variant-ligatures:normal;font-variant-position:normal;font-variant-caps:normal;font-variant-numeric:normal;font-variant-alternates:normal;font-feature-settings:normal;text-indent:0;text-align:start;text-decoration-line:none;text-decoration-style:solid;text-decoration-color:#000;text-transform:none;text-orientation:mixed;shape-padding:0;isolation:auto;mix-blend-mode:normal" d="M18.998 16A2 2 0 0 0 17 18v12c0 1.518 1.624 2.482 2.957 1.756l11-6c1.39-.758 1.39-2.754 0-3.512l-11-6a2 2 0 0 0-.959-.244z" color="#000" font-weight="400" font-family="sans-serif" white-space="normal" overflow="visible" fill="#fff" enable-background="accumulate" filter="url(#a)"/>
</svg>
