<svg xmlns="http://www.w3.org/2000/svg" width="48" height="48">
    <defs>
        <filter id="a">
            <feGaussianBlur in="SourceAlpha" stdDeviation=".8"/>
            <feOffset dy=".4"/>
            <feComponentTransfer>
                <feFuncA slope=".3" type="linear"/>
            </feComponentTransfer>
            <feMerge>
                <feMergeNode/>
                <feMergeNode in="SourceGraphic"/>
            </feMerge>
        </filter>
    </defs>
    <g transform="translate(0 32)">
        <circle fill="#673ab7" fill-rule="evenodd" cx="24" cy="-8" r="22" filter="url(#a)"/>
        <path fill="none" stroke="#ede7f6" stroke-linecap="round" stroke-linejoin="round" stroke-width="4" d="M20-8a4 4 0 0 1-3.464-2 4 4 0 0 1 0-4A4 4 0 0 1 20-16m8-6a3 3 0 0 1 3 3 3 3 0 0 1-3 3M20 0a4 4 0 0 1-3.464-2 4 4 0 0 1 0-4A4 4 0 0 1 20-8"/>
        <path fill="none" stroke="#ede7f6" stroke-linecap="round" stroke-width="4" d="M20 0h8m-8-8h8m-8-8h8"/>
        <path fill="none" stroke="#ede7f6" stroke-linecap="round" stroke-linejoin="round" stroke-width="4" d="M28 0a3 3 0 0 1 3 3 3 3 0 0 1-3 3"/>
    </g>
</svg>
