<svg xmlns="http://www.w3.org/2000/svg" width="48" height="48">
    <defs>
        <filter id="a">
            <feGaussianBlur in="SourceAlpha" stdDeviation=".8"/>
            <feOffset dy=".4"/>
            <feComponentTransfer>
                <feFuncA slope=".3" type="linear"/>
            </feComponentTransfer>
            <feMerge>
                <feMergeNode/>
                <feMergeNode in="SourceGraphic"/>
            </feMerge>
        </filter>
        <clipPath id="b">
            <rect fill="#78909c" fill-rule="evenodd" width="38" height="38" x="5" y="5" rx="2" ry="2"/>
        </clipPath>
    </defs>
    <g transform="translate(0 32)">
        <rect ry="2" rx="2" filter="url(#a)" y="-27" x="5" height="38" width="38" fill-rule="evenodd" fill="#eee"/>
        <path d="M12-8h6m-6-10h18M12 2h12" fill="none" stroke="#03a9f4" stroke-width="4" stroke-linecap="round" stroke-linejoin="round"/>
        <path d="M18-8h18m-6-10h6M24 2h12" fill="none" stroke="#bdbdbd" stroke-width="4" stroke-linecap="round" stroke-linejoin="round"/>
        <path transform="translate(0 -32)" clip-path="url(#b)" d="M30 14l28 28-28-28zM18 24l28 28-28-28zm6 10l28 28-28-28z" opacity=".1" stroke-width="8" stroke-linejoin="round" stroke-linecap="round" stroke="#000" fill="none"/>
        <g fill-rule="evenodd" fill="#fff" filter="url(#a)">
            <circle r="4" cy="-18" cx="30"/>
            <circle r="4" cy="-8" cx="18"/>
            <circle r="4" cy="2" cx="24"/>
        </g>
    </g>
</svg>
