<svg xmlns="http://www.w3.org/2000/svg" height="16" width="16">
    <path overflow="visible" font-family="sans-serif" font-weight="400" color="#000" d="M3 0a1 1 0 0 0-1 1v3H1a1 1 0 0 0-1 1v6a1 1 0 0 0 1 1h1v3a1 1 0 0 0 1 1h10a1 1 0 0 0 1-1v-3h1a1 1 0 0 0 1-1V5a1 1 0 0 0-1-1h-1V1a1 1 0 0 0-1-1zm1 2h8v2H4zm9 4a1 1 0 1 1 0 2 1 1 0 0 1 0-2zm-9 4h8v4H4v-2z" style="line-height:normal;font-variant-ligatures:normal;font-variant-position:normal;font-variant-caps:normal;font-variant-numeric:normal;font-variant-alternates:normal;font-feature-settings:normal;text-indent:0;text-align:start;text-decoration-line:none;text-decoration-style:solid;text-decoration-color:#000;text-transform:none;text-orientation:mixed;shape-padding:0;isolation:auto;mix-blend-mode:normal" fill="#3f51b5"/>
</svg>
