<svg xmlns="http://www.w3.org/2000/svg" width="16" height="16">
    <path overflow="visible" font-family="sans-serif" font-weight="400" color="#000" style="line-height:normal;font-variant-ligatures:normal;font-variant-position:normal;font-variant-caps:normal;font-variant-numeric:normal;font-variant-alternates:normal;font-variant-east-asian:normal;font-feature-settings:normal;font-variation-settings:normal;text-indent:0;text-align:start;text-decoration-line:none;text-decoration-style:solid;text-decoration-color:#000;text-transform:none;text-orientation:mixed;white-space:normal;shape-padding:0;shape-margin:0;inline-size:0;isolation:auto;mix-blend-mode:normal;solid-color:#000;solid-opacity:1;filter-blend-mode:normal;filter-gaussianBlur-deviation:0" d="M6 0a1 1 0 0 0-1 1v1.424l-.33.19-1.232-.712a1 1 0 0 0-.477-.134 1 1 0 0 0-.889.5l-2 3.464a1 1 0 0 0 .365 1.366l1.233.71v.383l-1.232.711a1 1 0 0 0-.366 1.366l2 3.464a1 1 0 0 0 1.365.366l1.233-.711.33.191V15a1 1 0 0 0 1 1h4a1 1 0 0 0 1-1v-1.424l.33-.19 1.232.712a1 1 0 0 0 1.366-.366l2-3.464a1 1 0 0 0-.366-1.366l-1.232-.71v-.383l1.232-.711a1 1 0 0 0 .366-1.366l-2-3.464a1 1 0 0 0-.918-.498 1 1 0 0 0-.447.132l-1.233.711-.33-.191V1a1 1 0 0 0-1-1H6zm1 2h2v1a1 1 0 0 0 .5.865l1.33.77a1 1 0 0 0 .05.025 1 1 0 0 0 .032.016 1 1 0 0 0 .037.015 1 1 0 0 0 .051.02 1 1 0 0 0 .059.02 1 1 0 0 0 .05.013 1 1 0 0 0 .03.004 1 1 0 0 0 .267.018 1 1 0 0 0 .076-.01 1 1 0 0 0 .024-.004 1 1 0 0 0 .074-.016 1 1 0 0 0 .008-.002 1 1 0 0 0 .043-.013 1 1 0 0 0 .2-.086l.864-.5 1 1.73-.865.5a1 1 0 0 0-.5.867v1.536a1 1 0 0 0 0 .011 1 1 0 0 0 .018.172 1 1 0 0 0 .01.043 1 1 0 0 0 .044.143 1 1 0 0 0 .024.052 1 1 0 0 0 .076.141 1 1 0 0 0 .002.002 1 1 0 0 0 .006.006 1 1 0 0 0 .054.074 1 1 0 0 0 .002.002 1 1 0 0 0 .211.186 1 1 0 0 0 .024.015 1 1 0 0 0 .03.02l.864.5-1 1.73-.865-.5a1 1 0 0 0-1 0l-1.33.77a1 1 0 0 0-.016.01 1 1 0 0 0-.423.513 1 1 0 0 0 0 .002 1 1 0 0 0-.002.008 1 1 0 0 0-.026.084 1 1 0 0 0-.004.01A1 1 0 0 0 9 13v1H7v-1a1 1 0 0 0-.5-.865l-1.33-.77a1 1 0 0 0-.05-.025 1 1 0 0 0-.018-.01 1 1 0 0 0-.022-.01 1 1 0 0 0-.07-.029 1 1 0 0 0-.022-.008 1 1 0 0 0-.047-.013 1 1 0 0 0-.05-.014 1 1 0 0 0-.03-.004 1 1 0 0 0-.068-.012 1 1 0 0 0-.1-.008 1 1 0 0 0-.091.002 1 1 0 0 0-.008 0 1 1 0 0 0-.041.006 1 1 0 0 0-.047.006 1 1 0 0 0-.05.01 1 1 0 0 0-.044.01 1 1 0 0 0-.043.013 1 1 0 0 0-.066.024 1 1 0 0 0-.092.04 1 1 0 0 0-.041.022l-.865.5-1-1.73.865-.5a1 1 0 0 0 .5-.867V7.256a1 1 0 0 0 0-.035 1 1 0 0 0-.006-.088 1 1 0 0 0-.01-.076 1 1 0 0 0-.002-.008 1 1 0 0 0-.01-.043 1 1 0 0 0-.017-.069 1 1 0 0 0-.025-.072 1 1 0 0 0-.002-.002 1 1 0 0 0-.024-.052 1 1 0 0 0-.027-.057 1 1 0 0 0-.049-.084 1 1 0 0 0-.002-.002 1 1 0 0 0-.006-.006 1 1 0 0 0-.054-.074 1 1 0 0 0-.002-.002 1 1 0 0 0-.067-.07 1 1 0 0 0-.076-.067 1 1 0 0 0-.06-.045 1 1 0 0 0-.02-.013 1 1 0 0 0-.012-.006 1 1 0 0 0-.03-.02l-.864-.5 1-1.73.865.5a1 1 0 0 0 1 0l1.309-.758a1 1 0 0 0 .021-.012 1 1 0 0 0 .016-.01 1 1 0 0 0 .423-.515 1 1 0 0 0 .002-.008 1 1 0 0 0 .028-.088 1 1 0 0 0 .002-.006A1 1 0 0 0 7 3V2zm1 4a2 2 0 0 0-2 2 2 2 0 0 0 2 2 2 2 0 0 0 2-2 2 2 0 0 0-2-2z" fill="#607d8b"/>
</svg>
