<svg xmlns="http://www.w3.org/2000/svg" height="16" width="16">
    <path d="M7 0a1 1 0 0 0-1 1v1.354a6.027 6.027 0 0 0-1.885 1.093l-1.178-.68a1 1 0 0 0-.476-.132 1 1 0 0 0-.889.5l-1 1.73a1 1 0 0 0 .366 1.367l1.167.674C2.04 7.262 2 7.626 2 8c0 .373.039.738.105 1.094l-1.167.674a1 1 0 0 0-.366 1.367l1 1.73a1 1 0 0 0 1.365.367l1.178-.68c.552.473 1.19.845 1.885 1.094V15a1 1 0 0 0 1 1h2a1 1 0 0 0 1-1v-1.354a6.027 6.027 0 0 0 1.885-1.093l1.178.68a1 1 0 0 0 1.365-.368l1-1.73a1 1 0 0 0-.366-1.367l-1.167-.674C13.96 8.738 14 8.374 14 8c0-.373-.039-.738-.105-1.094l1.168-.674a1 1 0 0 0 .365-1.367l-1-1.73a1 1 0 0 0-.918-.5 1 1 0 0 0-.447.133l-1.178.68A6.027 6.027 0 0 0 10 2.353V1a1 1 0 0 0-1-1H7zm1 6c1.128 0 2 .872 2 2 0 1.128-.872 2-2 2-1.128 0-2-.872-2-2 0-1.128.872-2 2-2z" fill-rule="evenodd" fill="#607d8b"/>
</svg>
