<svg xmlns="http://www.w3.org/2000/svg" width="16" height="16">
    <path d="M10.984 0a1 1 0 0 0-.691.293l-9 9A1 1 0 0 0 1 10v4a1 1 0 0 0 1 1h4a1 1 0 0 0 .707-.293l9-9a1 1 0 0 0 0-1.414l-4-4A1 1 0 0 0 10.984 0zM11 2.414L13.586 5 12 6.586l-.293-.293-2-2L9.414 4 11 2.414zm-3 3l.293.293 2 2 .293.293L6 12.586l-.293-.293-2-2L3.414 10 8 5.414z" style="line-height:normal;font-variant-ligatures:normal;font-variant-position:normal;font-variant-caps:normal;font-variant-numeric:normal;font-variant-alternates:normal;font-variant-east-asian:normal;font-feature-settings:normal;font-variation-settings:normal;text-indent:0;text-align:start;text-decoration-line:none;text-decoration-style:solid;text-decoration-color:#000;text-transform:none;text-orientation:mixed;white-space:normal;shape-padding:0;shape-margin:0;inline-size:0;isolation:auto;mix-blend-mode:normal;solid-color:#000;solid-opacity:1;filter-blend-mode:normal;filter-gaussianBlur-deviation:0" color="#000" font-weight="400" font-family="sans-serif" overflow="visible"/>
</svg>
