<svg xmlns="http://www.w3.org/2000/svg" height="16" width="16">
    <path d="M2 1a1 1 0 0 0-1 1v12a1 1 0 0 0 1 1h5a2 2 0 0 1 2-2 2 2 0 0 1 1.5.68A2 2 0 0 1 12 13a2 2 0 0 1 1.5.68A2 2 0 0 1 15 13V5a1 1 0 0 0-.293-.707l-3-3A1 1 0 0 0 11 1H2zm2 2h5c.554 0 1 .446 1 1v1c0 .554-.446 1-1 1H4c-.554 0-1-.446-1-1V4c0-.554.446-1 1-1zm4 5c2.667 0 2.667 4 0 4S5.333 8 8 8zm1 6a1 1 0 0 0-1 1 1 1 0 0 0 1 1 1 1 0 0 0 1-1 1 1 0 0 0-1-1zm3 0a1 1 0 0 0-1 1 1 1 0 0 0 1 1 1 1 0 0 0 1-1 1 1 0 0 0-1-1zm3 0a1 1 0 0 0-1 1 1 1 0 0 0 1 1 1 1 0 0 0 1-1 1 1 0 0 0-1-1z" fill="#2196f3"/>
</svg>
