<svg xmlns="http://www.w3.org/2000/svg" height="16" width="16">
    <path fill="#2196f3" style="line-height:normal;font-variant-ligatures:normal;font-variant-position:normal;font-variant-caps:normal;font-variant-numeric:normal;font-variant-alternates:normal;font-variant-east-asian:normal;font-feature-settings:normal;font-variation-settings:normal;text-indent:0;text-align:start;text-decoration-line:none;text-decoration-style:solid;text-decoration-color:#000;text-transform:none;text-orientation:mixed;white-space:normal;shape-padding:0;shape-margin:0;inline-size:0;isolation:auto;mix-blend-mode:normal;solid-color:#000;solid-opacity:1" d="M11.014 1a1 1 0 0 1 .693.293l4 4a1 1 0 0 1 0 1.414l-4 4a1 1 0 0 1-1.414-1.414L12.586 7H5c-1.669 0-3 1.331-3 3s1.331 3 3 3h6a1 1 0 1 1 0 2H5c-.033 0-.066-.005-.1-.006C2.197 14.94 0 12.716 0 10c0-2.75 2.25-5 5-5h7.586l-2.293-2.293A1 1 0 0 1 11.013 1z"/>
</svg>
