<svg xmlns="http://www.w3.org/2000/svg" width="16" height="16">
    <path style="line-height:normal;font-variant-ligatures:normal;font-variant-position:normal;font-variant-caps:normal;font-variant-numeric:normal;font-variant-alternates:normal;font-feature-settings:normal;text-indent:0;text-align:start;text-decoration-line:none;text-decoration-style:solid;text-decoration-color:#000;text-transform:none;text-orientation:mixed;shape-padding:0;isolation:auto;mix-blend-mode:normal" d="M2 0a1 1 0 0 0-1 1v11a1 1 0 0 0 1 1h1V2h9V1a1 1 0 0 0-1-1H2zm3 3a1 1 0 0 0-1 1v11a1 1 0 0 0 1 1h9a1 1 0 0 0 1-1V4a1 1 0 0 0-1-1H5zm1 2h7v9H6V5z" color="#000" font-weight="400" font-family="sans-serif" overflow="visible" fill="#ff9800"/>
</svg>
