<svg xmlns="http://www.w3.org/2000/svg" width="16" height="16">
    <g color="#000" font-weight="400" font-family="sans-serif">
        <path style="line-height:normal;font-variant-ligatures:normal;font-variant-position:normal;font-variant-caps:normal;font-variant-numeric:normal;font-variant-alternates:normal;font-variant-east-asian:normal;font-feature-settings:normal;font-variation-settings:normal;text-indent:0;text-align:start;text-decoration-line:none;text-decoration-style:solid;text-decoration-color:#000;text-transform:none;text-orientation:mixed;white-space:normal;shape-padding:0;shape-margin:0;inline-size:0;isolation:auto;mix-blend-mode:normal;solid-color:#000;solid-opacity:1;filter-blend-mode:normal;filter-gaussianBlur-deviation:0" d="M15.01 2a1 1 0 0 0-.623.21L8.572 6.735 6.613 5.211A1 1 0 0 0 5.961 5a1 1 0 0 0-.75.387 1 1 0 0 0 .176 1.402L6.943 8 5.387 9.21a1 1 0 0 0-.176 1.403 1 1 0 0 0 1.402.176l1.96-1.523 5.814 4.523a1 1 0 0 0 1.402-.176 1 1 0 0 0-.176-1.402L10.2 8l5.414-4.21a1 1 0 0 0 .176-1.403A1 1 0 0 0 15.01 2z" overflow="visible" fill="#607d8b"/>
        <path style="line-height:normal;font-variant-ligatures:normal;font-variant-position:normal;font-variant-caps:normal;font-variant-numeric:normal;font-variant-alternates:normal;font-variant-east-asian:normal;font-feature-settings:normal;font-variation-settings:normal;text-indent:0;text-align:start;text-decoration-line:none;text-decoration-style:solid;text-decoration-color:#000;text-transform:none;text-orientation:mixed;white-space:normal;shape-padding:0;shape-margin:0;inline-size:0;isolation:auto;mix-blend-mode:normal;solid-color:#000;solid-opacity:1;filter-blend-mode:normal;filter-gaussianBlur-deviation:0" d="M4.5 0c-.232 0-.456.026-.674.07-.11.022-.215.062-.322.094-.096.03-.195.052-.287.09a3.48 3.48 0 0 0-.53.273 3.494 3.494 0 0 0-1.666 2.774 1 1 0 0 0-.001.004A1 1 0 0 0 1 3.5a1 1 0 0 0 .02.2 1 1 0 0 0 .001.005 3.507 3.507 0 0 0 2.202 3.043c.084.034.174.054.261.082.114.035.224.076.342.1.218.044.443.07.674.07.232 0 .456-.026.674-.07.11-.022.215-.062.322-.094.096-.03.195-.052.287-.09.186-.074.36-.17.53-.273a3.494 3.494 0 0 0 1.666-2.774l.001-.004A1 1 0 0 0 8 3.5a1 1 0 0 0-.02-.2 1 1 0 0 0-.001-.005A3.507 3.507 0 0 0 5.777.252C5.693.218 5.603.198 5.516.17c-.114-.035-.224-.076-.342-.1A3.378 3.378 0 0 0 4.5 0zm0 2C5.34 2 6 2.66 6 3.5S5.34 5 4.5 5 3 4.34 3 3.5A1.482 1.482 0 0 1 4.5 2zm0 7c-.232 0-.456.026-.674.07-.11.022-.215.062-.322.094-.096.03-.195.052-.287.09a3.48 3.48 0 0 0-.53.273 3.494 3.494 0 0 0-1.666 2.774 1 1 0 0 0-.001.004A1 1 0 0 0 1 12.5a1 1 0 0 0 .02.2 1 1 0 0 0 .001.005 3.507 3.507 0 0 0 2.202 3.043c.084.034.174.054.261.082.114.035.224.076.342.1.218.044.443.07.674.07.232 0 .456-.026.674-.07.11-.022.215-.062.322-.094.096-.03.195-.052.287-.09.186-.074.36-.17.53-.273a3.494 3.494 0 0 0 1.666-2.774l.001-.004A1 1 0 0 0 8 12.5a1 1 0 0 0-.02-.2 1 1 0 0 0-.001-.005 3.507 3.507 0 0 0-2.202-3.043c-.084-.034-.174-.054-.261-.082-.114-.035-.224-.076-.342-.1A3.378 3.378 0 0 0 4.5 9zm0 2c.84 0 1.5.66 1.5 1.5S5.34 14 4.5 14 3 13.34 3 12.5A1.482 1.482 0 0 1 4.5 11z" overflow="visible" fill="#f44336"/>
    </g>
</svg>
