<svg xmlns="http://www.w3.org/2000/svg" height="16" width="16">
    <path overflow="visible" font-family="sans-serif" font-weight="400" color="#000" style="line-height:normal;font-variant-ligatures:normal;font-variant-position:normal;font-variant-caps:normal;font-variant-numeric:normal;font-variant-alternates:normal;font-variant-east-asian:normal;font-feature-settings:normal;font-variation-settings:normal;text-indent:0;text-align:start;text-decoration-line:none;text-decoration-style:solid;text-decoration-color:#000;text-transform:none;text-orientation:mixed;white-space:normal;shape-padding:0;shape-margin:0;inline-size:0;isolation:auto;mix-blend-mode:normal;solid-color:#000;solid-opacity:1;filter-blend-mode:normal;filter-gaussianBlur-deviation:0" d="M4.5 0A3.515 3.515 0 0 0 1 3.5c0 1.784 1.38 3.219 3.113 3.422A1 1 0 0 0 4.5 7a1 1 0 0 0 .393-.08c.178-.021.351-.063.521-.11L6.944 8 5.46 9.154A3.419 3.419 0 0 0 4.5 9 3.515 3.515 0 0 0 1 12.5c0 1.784 1.38 3.219 3.113 3.422A1 1 0 0 0 4.5 16a1 1 0 0 0 .393-.08C6.623 15.714 8 14.282 8 12.5a3.46 3.46 0 0 0-.787-2.178L8.57 9.266l5.817 4.523a1 1 0 0 0 1.402-.176 1 1 0 0 0-.176-1.402L10.2 8l5.414-4.21a1 1 0 0 0 .176-1.403A1 1 0 0 0 15.01 2a1 1 0 0 0-.622.21L8.572 6.735 7.2 5.666c.493-.59.8-1.336.8-2.166C8 1.579 6.421 0 4.5 0zm0 2C5.34 2 6 2.66 6 3.5S5.34 5 4.5 5 3 4.34 3 3.5 3.66 2 4.5 2zm0 9c.84 0 1.5.66 1.5 1.5S5.34 14 4.5 14 3 13.34 3 12.5 3.66 11 4.5 11z" fill="#f44336"/>
</svg>
