<svg xmlns="http://www.w3.org/2000/svg" width="16" height="16">
    <path style="line-height:normal;font-variant-ligatures:normal;font-variant-position:normal;font-variant-caps:normal;font-variant-numeric:normal;font-variant-alternates:normal;font-feature-settings:normal;text-indent:0;text-align:start;text-decoration-line:none;text-decoration-style:solid;text-decoration-color:#000;text-transform:none;text-orientation:mixed;shape-padding:0;isolation:auto;mix-blend-mode:normal" d="M8 0a6 6 0 0 0-6 6 6 6 0 0 0 .047.688c.226 2.17 1.46 4.244 2.639 5.894a27.318 27.318 0 0 0 2.607 3.125 1 1 0 0 0 1.414 0s1.305-1.302 2.607-3.125c1.087-1.521 2.218-3.405 2.567-5.39a7.3 7.3 0 0 0 .066-.444A6 6 0 0 0 14 6a6 6 0 0 0-6-6zm0 3a3 3 0 0 1 3 3 3 3 0 0 1-3 3 3 3 0 0 1-3-3 3 3 0 0 1 3-3z" color="#000" font-weight="400" font-family="sans-serif" overflow="visible"/>
</svg>
