<svg xmlns="http://www.w3.org/2000/svg" height="16" width="16">
    <path fill-rule="evenodd" d="M15.029 8.995c0-.897-1.091-1.34-1.717-.697l-4.293 4.293V1.005c-.02-1.315-1.981-1.315-2 0v11.586L2.726 8.298C1.784 7.316.33 8.77 1.312 9.712l6 6 .01.01c.02.02.042.039.064.056l.012.01a1 1 0 0 0 .068.051l.012.008.025.014c.045.027.092.05.14.07l.015.006c.026.01.053.02.08.027l.013.004c.028.008.056.014.084.02l.014.002a.989.989 0 0 0 .084.011h.002c.029.004.057.004.086.004h.027A1 1 0 0 0 8.134 16l.014-.002a.985.985 0 0 0 .273-.078l.014-.006c.026-.011.051-.024.076-.037l.014-.008c.024-.015.047-.03.07-.047l.012-.007a.934.934 0 0 0 .078-.063l.014-.012a.926.926 0 0 0 .027-.027l.022-.02 5.978-5.98a1 1 0 0 0 .303-.717z"/>
</svg>
