<svg xmlns="http://www.w3.org/2000/svg" height="16" width="16">
    <path style="line-height:normal;font-variant-ligatures:normal;font-variant-position:normal;font-variant-caps:normal;font-variant-numeric:normal;font-variant-alternates:normal;font-variant-east-asian:normal;font-feature-settings:normal;font-variation-settings:normal;text-indent:0;text-align:start;text-decoration-line:none;text-decoration-style:solid;text-decoration-color:#000;text-transform:none;text-orientation:mixed;white-space:normal;shape-padding:0;shape-margin:0;inline-size:0;isolation:auto;mix-blend-mode:normal;solid-color:#000;solid-opacity:1" d="M15 11.014a1 1 0 0 1-.293.693l-4 4a1 1 0 0 1-1.414 0l-4-4a1 1 0 0 1 1.414-1.414L9 12.586V5c0-1.669-1.331-3-3-3-1.67 0-3 1.331-3 3v6a1 1 0 1 1-2 0V5c0-.033.005-.066.006-.1C1.06 2.197 3.284 0 6 0c2.75 0 5 2.25 5 5v7.586l2.293-2.293a1 1 0 0 1 1.707.72z"/>
</svg>
