<svg xmlns="http://www.w3.org/2000/svg" width="16" height="16">
    <path d="M6.976 1.99a1 1 0 0 1 .717.303l4.979 4.978.021.022.028.027.011.014a.975.975 0 0 1 .041.055.154.154 0 0 1 .022.023l.008.012c.016.022.032.046.047.07l.007.014a.76.76 0 0 1 .037.076l.006.014c.039.087.065.179.078.273l.002.014a.61.61 0 0 1 .006.086v.027a.986.986 0 0 1-.004.086v.002a.981.981 0 0 1-.011.084v.014c-.006.028-.014.056-.022.084l-.004.011c-.008.027-.015.054-.025.08l-.008.014a1 1 0 0 1-.084.166l-.008.014c-.015.023-.033.044-.05.066l-.01.014a1.016 1.016 0 0 1-.057.064l-.01.01-5 5c-.943.982-2.396-.472-1.414-1.414L9.572 9H.986c-1.315-.019-1.315-1.981 0-2h8.586L6.28 3.707c-.643-.626-.2-1.717.697-1.717zM15 2a1 1 0 0 1 1 1v10a1 1 0 0 1-1 1 1 1 0 0 1-1-1V3a1 1 0 0 1 1-1z" fill="#009688"/>
</svg>
