<svg xmlns="http://www.w3.org/2000/svg" height="16" width="16">
    <path d="M8.99.99c-.897 0-1.34 1.091-.697 1.717L12.586 7H1c-1.315.019-1.315 1.981 0 2h11.586l-4.293 4.293c-.982.942.472 2.396 1.414 1.414l6-6 .01-.01a.675.675 0 0 0 .056-.064l.01-.012a1 1 0 0 0 .051-.068l.008-.012.014-.025c.027-.045.05-.092.07-.141l.006-.014a.752.752 0 0 0 .027-.08l.004-.013c.008-.028.014-.056.02-.084l.002-.014a.989.989 0 0 0 .011-.084v-.002C16 8.055 16 8.027 16 7.998v-.027c0-.029-.003-.057-.006-.086l-.002-.014a.985.985 0 0 0-.078-.273l-.006-.014a1 1 0 0 0-.037-.076l-.008-.014a1.003 1.003 0 0 0-.047-.07l-.007-.012a1.004 1.004 0 0 0-.063-.078l-.012-.014a.95.95 0 0 0-.027-.027l-.021-.022-5.979-5.978A1 1 0 0 0 8.99.99z" fill-rule="evenodd"/>
</svg>
