<svg xmlns="http://www.w3.org/2000/svg" height="16" width="16">
    <path fill-rule="evenodd" d="M.985 7.029c0 .897 1.09 1.34 1.717.697l4.293-4.293v11.586c.019 1.315 1.98 1.315 2 0V3.433l4.293 4.293c.942.982 2.396-.472 1.414-1.414l-6-6-.01-.01a.675.675 0 0 0-.064-.056l-.012-.01a1 1 0 0 0-.068-.051L8.536.177 8.51.163a1.002 1.002 0 0 0-.141-.07L8.356.087a1 1 0 0 0-.08-.027L8.263.056a1.278 1.278 0 0 0-.084-.02L8.165.034A.998.998 0 0 0 8.08.023h-.002c-.03-.004-.057-.004-.086-.004h-.027a1 1 0 0 0-.086.006l-.014.002a.985.985 0 0 0-.273.078L7.579.11a1 1 0 0 0-.076.037l-.014.008a1 1 0 0 0-.07.047L7.407.21a.934.934 0 0 0-.078.063l-.014.012a.95.95 0 0 0-.027.027l-.022.02-5.978 5.98a1 1 0 0 0-.303.717z"/>
</svg>
