<svg xmlns="http://www.w3.org/2000/svg" height="16" width="16">
    <path d="M8 0C4.73 0 2.056 2.647 2.004 5.904A1 1 0 0 0 2 6a1 1 0 0 0 .008.115c.043 2.376 1.396 4.673 2.678 6.467a26.554 26.554 0 0 0 2.55 3.064 1 1 0 0 0 .008.01l.049.051a1 1 0 0 0 1.414 0s1.305-1.302 2.607-3.125c1.28-1.79 2.627-4.081 2.676-6.451A1 1 0 0 0 14 6a1 1 0 0 0-.006-.1C13.94 2.645 11.268 0 8 0zm0 2c2.221 0 4 1.779 4 4 0 1.583-1.117 3.741-2.314 5.418A25.548 25.548 0 0 1 8 13.529a25.548 25.548 0 0 1-1.686-2.111C5.117 9.741 4 7.583 4 6c0-2.221 1.779-4 4-4zm0 2a2 2 0 0 0-2 2 2 2 0 0 0 2 2 2 2 0 0 0 2-2 2 2 0 0 0-2-2z" style="d:M 3,5.99999980000000033 A 5,5 0 0 1 8.00000009999999939,1 5,5 0 0 1 13,6;line-height:normal;font-variant-ligatures:normal;font-variant-position:normal;font-variant-caps:normal;font-variant-numeric:normal;font-variant-alternates:normal;font-variant-east-asian:normal;font-feature-settings:normal;font-variation-settings:normal;text-indent:0;text-align:start;text-decoration-line:none;text-decoration-style:solid;text-decoration-color:#000;text-transform:none;text-orientation:mixed;white-space:normal;shape-padding:0;shape-margin:0;inline-size:0;isolation:auto;mix-blend-mode:normal;solid-color:#000;solid-opacity:1;filter-blend-mode:normal;filter-gaussianBlur-deviation:0" color="#000" font-weight="400" font-family="sans-serif" overflow="visible"/>
</svg>
