<svg xmlns="http://www.w3.org/2000/svg" width="16" height="16">
    <path style="line-height:normal;font-variant-ligatures:normal;font-variant-position:normal;font-variant-caps:normal;font-variant-numeric:normal;font-variant-alternates:normal;font-feature-settings:normal;text-indent:0;text-align:start;text-decoration-line:none;text-decoration-style:solid;text-decoration-color:#000;text-transform:none;text-orientation:mixed;white-space:normal;shape-padding:0;isolation:auto;mix-blend-mode:normal;solid-color:#000;solid-opacity:1" d="M14.984 3.986A1 1 0 0 0 14 5v6c-.02 1.352 2.02 1.352 2 0V5a1 1 0 0 0-1.016-1.014zm-14.04.016A1 1 0 0 0 0 5v6a1 1 0 0 0 1.6.8l4-3a1 1 0 0 0 0-1.6l-4-3a1 1 0 0 0-.657-.198zm7 0A1 1 0 0 0 7 5v6a1 1 0 0 0 1.6.8l4-3a1 1 0 0 0 0-1.6l-4-3a1 1 0 0 0-.657-.198z" color="#000" font-weight="400" font-family="sans-serif" overflow="visible"/>
</svg>
