<svg xmlns="http://www.w3.org/2000/svg" width="16" height="16">
    <path d="M2 1a1 1 0 0 0-1 1v12a1 1 0 0 0 1 1 1 1 0 0 0 1-1V2a1 1 0 0 0-1-1zm11.97 0a1 1 0 0 0-.525.168l-9 6a1 1 0 0 0 0 1.664l9 6A1 1 0 0 0 15 14V2a1 1 0 0 0-1.03-1zM13 3.87v8.26L6.803 8 13 3.87z" style="line-height:normal;font-variant-ligatures:normal;font-variant-position:normal;font-variant-caps:normal;font-variant-numeric:normal;font-variant-alternates:normal;font-variant-east-asian:normal;font-feature-settings:normal;font-variation-settings:normal;text-indent:0;text-align:start;text-decoration-line:none;text-decoration-style:solid;text-decoration-color:#000;text-transform:none;text-orientation:mixed;white-space:normal;shape-padding:0;shape-margin:0;inline-size:0;isolation:auto;mix-blend-mode:normal;solid-color:#000;solid-opacity:1;filter-blend-mode:normal;filter-gaussianBlur-deviation:0" color="#000" font-weight="400" font-family="sans-serif" overflow="visible"/>
</svg>
