<svg xmlns="http://www.w3.org/2000/svg" width="16" height="16">
    <path d="M2 1a1 1 0 0 0-1 1v12a1 1 0 0 0 1 1h4a1 1 0 0 0 1-1V2a1 1 0 0 0-1-1H2zm8 0a1 1 0 0 0-1 1v12a1 1 0 0 0 1 1h4a1 1 0 0 0 1-1V2a1 1 0 0 0-1-1h-4zM3 3h2v10H3V3zm8 0h2v10h-2V3z" style="line-height:normal;font-variant-ligatures:normal;font-variant-position:normal;font-variant-caps:normal;font-variant-numeric:normal;font-variant-alternates:normal;font-variant-east-asian:normal;font-feature-settings:normal;font-variation-settings:normal;text-indent:0;text-align:start;text-decoration-line:none;text-decoration-style:solid;text-decoration-color:#000;text-transform:none;text-orientation:mixed;white-space:normal;shape-padding:0;shape-margin:0;inline-size:0;isolation:auto;mix-blend-mode:normal;solid-color:#000;solid-opacity:1" color="#000" font-weight="400" font-family="sans-serif" overflow="visible" fill="#ffc107"/>
</svg>
