<svg xmlns="http://www.w3.org/2000/svg" height="16" width="16">
    <path d="M4.986 3a1 1 0 0 0-.693.293l-4 4a1 1 0 0 0 0 1.414l4 4a1 1 0 0 0 1.414 0 1 1 0 0 0 0-1.414L3.414 9h9.172l-2.293 2.293a1 1 0 0 0 0 1.414 1 1 0 0 0 1.414 0l4-4a1 1 0 0 0 0-1.414l-4-4a1 1 0 0 0-.72-.293 1 1 0 0 0-.694.293 1 1 0 0 0 0 1.414L12.586 7H3.414l2.293-2.293a1 1 0 0 0 0-1.414A1 1 0 0 0 4.987 3z" style="line-height:normal;font-variant-ligatures:normal;font-variant-position:normal;font-variant-caps:normal;font-variant-numeric:normal;font-variant-alternates:normal;font-variant-east-asian:normal;font-feature-settings:normal;font-variation-settings:normal;text-indent:0;text-align:start;text-decoration-line:none;text-decoration-style:solid;text-decoration-color:#000;text-transform:none;text-orientation:mixed;white-space:normal;shape-padding:0;shape-margin:0;inline-size:0;isolation:auto;mix-blend-mode:normal;solid-color:#000;solid-opacity:1;filter-blend-mode:normal;filter-gaussianBlur-deviation:0" color="#000" font-weight="400" font-family="sans-serif" overflow="visible"/>
</svg>
