<svg xmlns="http://www.w3.org/2000/svg" height="16" width="16">
    <path d="M11 2a1 1 0 0 0-.1.006c-3.775.054-6.842 3.122-6.894 6.898A1 1 0 0 0 4 9v1.586L1.707 8.293A1 1 0 0 0 .987 8a1 1 0 0 0-.694.293 1 1 0 0 0 0 1.414l4 4a1 1 0 0 0 1.414 0l4-4a1 1 0 0 0 0-1.414 1 1 0 0 0-1.414 0L6 10.586V9c0-2.773 2.227-5 5-5h4a1 1 0 0 0 1-1 1 1 0 0 0-1-1h-4z" style="line-height:normal;font-variant-ligatures:normal;font-variant-position:normal;font-variant-caps:normal;font-variant-numeric:normal;font-variant-alternates:normal;font-variant-east-asian:normal;font-feature-settings:normal;font-variation-settings:normal;text-indent:0;text-align:start;text-decoration-line:none;text-decoration-style:solid;text-decoration-color:#000;text-transform:none;text-orientation:mixed;white-space:normal;shape-padding:0;shape-margin:0;inline-size:0;isolation:auto;mix-blend-mode:normal;solid-color:#000;solid-opacity:1;filter-blend-mode:normal;filter-gaussianBlur-deviation:0" color="#000" font-weight="400" font-family="sans-serif" overflow="visible"/>
</svg>
