<svg xmlns="http://www.w3.org/2000/svg" width="16" height="16">
    <path fill="#ff9800" overflow="visible" font-family="sans-serif" font-weight="400" color="#000" style="line-height:normal;font-variant-ligatures:normal;font-variant-position:normal;font-variant-caps:normal;font-variant-numeric:normal;font-variant-alternates:normal;font-variant-east-asian:normal;font-feature-settings:normal;font-variation-settings:normal;text-indent:0;text-align:start;text-decoration-line:none;text-decoration-style:solid;text-decoration-color:#000;text-transform:none;text-orientation:mixed;white-space:normal;shape-padding:0;shape-margin:0;inline-size:0;isolation:auto;mix-blend-mode:normal;solid-color:#000;solid-opacity:1" d="M5 2a1 1 0 0 1 .1.006c3.775.054 6.842 3.122 6.894 6.898A1 1 0 0 1 12 9v1.586l2.293-2.293a1 1 0 0 1 .72-.293 1 1 0 0 1 .694.293 1 1 0 0 1 0 1.414l-4 4a1 1 0 0 1-1.414 0l-4-4a1 1 0 0 1 0-1.414 1 1 0 0 1 1.414 0L10 10.586V9c0-2.773-2.227-5-5-5H1a1 1 0 0 1-1-1 1 1 0 0 1 1-1z"/>
</svg>
