<svg xmlns="http://www.w3.org/2000/svg" height="16" width="16">
    <path d="M13 0a3 3 0 0 0-3 3 3 3 0 0 0 .025.37L5.08 5.841A3 3 0 0 0 3 5a3 3 0 0 0-3 3 3 3 0 0 0 3 3 3 3 0 0 0 2.082-.84l4.943 2.47A3 3 0 0 0 10 13a3 3 0 0 0 3 3 3 3 0 0 0 3-3 3 3 0 0 0-3-3 3 3 0 0 0-2.082.84L5.975 8.37A3 3 0 0 0 6 8a3 3 0 0 0-.025-.37l4.945-2.472A3 3 0 0 0 13 6a3 3 0 0 0 3-3 3 3 0 0 0-3-3zm0 2a1 1 0 0 1 1 1 1 1 0 0 1-1 1 1 1 0 0 1-1-1 1 1 0 0 1 1-1zM3 7a1 1 0 0 1 1 1 1 1 0 0 1-1 1 1 1 0 0 1-1-1 1 1 0 0 1 1-1zm10 5a1 1 0 0 1 1 1 1 1 0 0 1-1 1 1 1 0 0 1-1-1 1 1 0 0 1 1-1z"/>
</svg>
