<svg xmlns="http://www.w3.org/2000/svg" height="16" width="16">
    <path overflow="visible" font-family="sans-serif" font-weight="400" color="#000" d="M5.98 8.99a1 1 0 0 0-.687.303L2 12.586V10a1 1 0 1 0-2 0v5a1 1 0 0 0 1 1h5c1.352.02 1.352-2.02 0-2H3.414l3.293-3.293c.654-.636.185-1.744-.727-1.717zm4.04-1.98a1 1 0 0 0 .687-.303L14 3.414V6a1 1 0 1 0 2 0V1a1 1 0 0 0-1-1h-5c-1.352-.02-1.352 2.02 0 2h2.586L9.293 5.293c-.654.636-.185 1.744.727 1.717z" style="line-height:normal;font-variant-ligatures:normal;font-variant-position:normal;font-variant-caps:normal;font-variant-numeric:normal;font-variant-alternates:normal;font-feature-settings:normal;text-indent:0;text-align:start;text-decoration-line:none;text-decoration-style:solid;text-decoration-color:#000;text-transform:none;text-orientation:mixed;shape-padding:0;isolation:auto;mix-blend-mode:normal" fill="#673ab7"/>
</svg>
