<svg xmlns="http://www.w3.org/2000/svg" width="16" height="16">
    <path style="line-height:normal;font-variant-ligatures:normal;font-variant-position:normal;font-variant-caps:normal;font-variant-numeric:normal;font-variant-alternates:normal;font-feature-settings:normal;text-indent:0;text-align:start;text-decoration-line:none;text-decoration-style:solid;text-decoration-color:#000;text-transform:none;text-orientation:mixed;shape-padding:0;isolation:auto;mix-blend-mode:normal" d="M6.406 1.502a6.503 6.503 0 0 0-4.502 1.902 6.504 6.504 0 0 0-1.41 7.082A6.508 6.508 0 0 0 6.5 14.5a1 1 0 1 0 0-2 4.495 4.495 0 0 1-4.158-2.777 4.495 4.495 0 0 1 .976-4.905 4.492 4.492 0 0 1 4.903-.974A4.493 4.493 0 0 1 10.998 8a1 1 0 0 0 .002.05v.536L9.707 7.293a1 1 0 0 0-.717-.303 1 1 0 0 0-.697 1.717l3 3a1 1 0 0 0 1.414 0l3-3a1 1 0 1 0-1.414-1.414L13 8.586V8h-.002a6.504 6.504 0 0 0-6.592-6.498z" color="#000" font-weight="400" font-family="sans-serif" overflow="visible" fill="#00000f"/>
</svg>
