<svg xmlns="http://www.w3.org/2000/svg" height="16" width="16">
    <path overflow="visible" font-family="sans-serif" font-weight="400" color="#000" d="M14.98-.01a1 1 0 0 0-.687.303L11 3.586V1C11-.333 9-.333 9 1v5a1 1 0 0 0 1 1h5c1.352.02 1.352-2.02 0-2h-2.586l3.293-3.293c.654-.636.185-1.744-.727-1.717zM1.02 16.01a1 1 0 0 0 .687-.303L5 12.414V15c0 1.333 2 1.333 2 0v-5a1 1 0 0 0-1-1H1c-1.352-.02-1.352 2.02 0 2h2.586L.293 14.293c-.654.636-.185 1.744.727 1.717z" style="line-height:normal;font-variant-ligatures:normal;font-variant-position:normal;font-variant-caps:normal;font-variant-numeric:normal;font-variant-alternates:normal;font-feature-settings:normal;text-indent:0;text-align:start;text-decoration-line:none;text-decoration-style:solid;text-decoration-color:#000;text-transform:none;text-orientation:mixed;shape-padding:0;isolation:auto;mix-blend-mode:normal"/>
</svg>
