<svg xmlns="http://www.w3.org/2000/svg" width="48" height="48">
    <defs>
        <filter id="a">
            <feGaussianBlur in="SourceAlpha" stdDeviation=".8"/>
            <feOffset dy=".4"/>
            <feComponentTransfer>
                <feFuncA slope=".3" type="linear"/>
            </feComponentTransfer>
            <feMerge>
                <feMergeNode/>
                <feMergeNode in="SourceGraphic"/>
            </feMerge>
        </filter>
    </defs>
    <g fill-rule="evenodd">
        <path fill="#cfd8dc" d="M10-24a4 4 0 0 0-3.945 3.342l-4 24c-.638 3.837 4.021 6.235 6.773 3.486L17.656-2h12.688l8.828 8.828c2.752 2.75 7.411.351 6.773-3.486l-4-24A4 4 0 0 0 38-24z" filter="url(#a)" transform="translate(0 32)"/>
        <path opacity=".1" d="M31.979 11.98c-1.794.003-2.679 2.183-1.393 3.434L45.03 29.86l-1.13-6.787-10.487-10.486a2 2 0 0 0-1.435-.606zM15.97 12A2 2 0 0 0 14 14v2h-2c-1.781 0-2.673 2.154-1.414 3.414L21.172 30h9.172l8.828 8.828c1.491 1.49 3.537 1.46 5.002.518l-26.76-26.76A2 2 0 0 0 15.971 12zm12.008 3.98c-1.794.003-2.679 2.183-1.393 3.434l18.77 18.77a3.895 3.895 0 0 0 .59-2.842l-.446-2.67-16.086-16.086a2 2 0 0 0-1.435-.606z"/>
        <g filter="url(#a)" transform="translate(0 32)">
            <path fill="#607d8b" d="M15.97-20.027A2 2 0 0 0 14-18v2h-2a2 2 0 1 0 0 4h2v2a2 2 0 1 0 4 0v-2h2a2 2 0 1 0 0-4h-2v-2a2 2 0 0 0-2.03-2.027z"/>
            <circle fill="#2196f3" cx="32" cy="-18" r="2"/>
            <circle fill="#f44336" cx="36" cy="-14" r="2"/>
            <circle fill="#ff9800" cx="32" cy="-10" r="2"/>
            <circle fill="#4caf50" cx="28" cy="-14" r="2"/>
        </g>
    </g>
</svg>
