<svg xmlns="http://www.w3.org/2000/svg" width="16" height="16">
    <path d="M8 0a8 8 0 0 0-8 8 8 8 0 0 0 8 8 8 8 0 0 0 8-8 8 8 0 0 0-8-8zm0 2a6 6 0 0 1 4.47 2H8a4 4 0 0 0-.06 0 4 4 0 0 0-3.405 2L3.44 4.102A6 6 0 0 1 8 2zm-.05 4a2 2 0 0 1 .001 0A2 2 0 0 1 8 6a2 2 0 0 1 2 2 2 2 0 0 1-2 2 2 2 0 0 1-2-2 2 2 0 0 1 1.95-2zm3.513 0h2.193A6 6 0 0 1 14 8a6 6 0 0 1-4.771 5.871L11.465 10A4 4 0 0 0 12 8a4 4 0 0 0-.537-2zm-9.164.127l2.199 3.807a4 4 0 0 0 .04.066A4 4 0 0 0 8 12l-1.096 1.898A6 6 0 0 1 2 8a6 6 0 0 1 .299-1.873z"/>
</svg>
