<svg xmlns="http://www.w3.org/2000/svg" width="16" height="16">
    <path d="M6.17 3a19.023 19.023 0 0 0-5.088.646 1 1 0 0 0-.707 1.227A1 1 0 0 0 1.6 5.58a17 17 0 0 1 12.9 1.697 1 1 0 0 0 1.365-.365 1 1 0 0 0-.365-1.367A18.995 18.995 0 0 0 6.17 3zm-.037 4a14.979 14.979 0 0 0-4.016.512 1 1 0 0 0-.707 1.224 1 1 0 0 0 1.225.707 13 13 0 0 1 9.865 1.3 1 1 0 0 0 1.365-.368A1 1 0 0 0 13.5 9.01 15.003 15.003 0 0 0 6.133 7zm.232 4.006a11 11 0 0 0-3.213.369 1 1 0 0 0-.707 1.225 1 1 0 0 0 1.225.707 9 9 0 0 1 6.83.898 1 1 0 0 0 1.365-.365 1 1 0 0 0-.365-1.365 11.001 11.001 0 0 0-5.135-1.47z" style="line-height:normal;font-variant-ligatures:normal;font-variant-position:normal;font-variant-caps:normal;font-variant-numeric:normal;font-variant-alternates:normal;font-variant-east-asian:normal;font-feature-settings:normal;font-variation-settings:normal;text-indent:0;text-align:start;text-decoration-line:none;text-decoration-style:solid;text-decoration-color:#000;text-transform:none;text-orientation:mixed;white-space:normal;shape-padding:0;shape-margin:0;inline-size:0;isolation:auto;mix-blend-mode:normal;solid-color:#000;solid-opacity:1;filter-blend-mode:normal;filter-gaussianBlur-deviation:0" color="#000" font-weight="400" font-family="sans-serif" overflow="visible"/>
</svg>
