<svg xmlns="http://www.w3.org/2000/svg" width="16" height="16">
    <path d="M2 1c-.563 0-1 .437-1 1v12c0 .049.021.09.027.137A.973.973 0 0 0 2 15h2c.05 0 .091-.02.139-.027A.973.973 0 0 0 5 14V2c0-.563-.437-1-1-1H2zm5.754.977a.985.985 0 0 0-.986.496L6 3.803v8L6.465 11l2-3.465 1.767-3.062a.986.986 0 0 0-.367-1.366l-1.73-1a1.033 1.033 0 0 0-.381-.13zm4.15 3.662a1.02 1.02 0 0 0-.379.129l-1.33.767L7.617 11l-1.422 2.465L10.463 11l3.062-1.768a.989.989 0 0 0 .368-1.367l-1-1.732a.987.987 0 0 0-.989-.494zM12.463 11l-6.658 3.844c-.026.054-.056.105-.086.156H14c.563 0 1-.437 1-1v-2c0-.563-.437-1-1-1h-1.537zM3 12a1 1 0 0 1 1 1 1 1 0 0 1-1 1 1 1 0 0 1-.1-.006A1 1 0 0 1 2 13a1 1 0 0 1 1-1z"/>
</svg>
