<svg xmlns="http://www.w3.org/2000/svg" width="16" height="16">
    <path fill-rule="evenodd" d="M8 0C4.732 0 2.061 2.644 2.006 5.898A1 1 0 0 0 2 6v4c0 .564-.436 1-1 1a1 1 0 1 0 0 2h4c0 1.07.573 2.063 1.5 2.598a3.004 3.004 0 0 0 3 0A3.003 3.003 0 0 0 11 13h4a1 1 0 1 0 0-2 .999.999 0 0 1-1-1V6a1 1 0 0 0-.006-.113C13.933 2.637 11.264 0 8 0zm0 2c2.221 0 4 1.779 4 4v4a1 1 0 0 0 .021.215c.02.27.073.533.163.785H3.813c.09-.25.145-.511.166-.785A1 1 0 0 0 4 10V6c0-2.221 1.779-4 4-4zM7 13h2c0 .359-.19.686-.5.865-.31.18-.69.18-1 0A.995.995 0 0 1 7 13z"/>
</svg>
