<svg xmlns="http://www.w3.org/2000/svg" width="16" height="16">
    <path style="line-height:normal;font-variant-ligatures:normal;font-variant-position:normal;font-variant-caps:normal;font-variant-numeric:normal;font-variant-alternates:normal;font-feature-settings:normal;text-indent:0;text-align:start;text-decoration-line:none;text-decoration-style:solid;text-decoration-color:#000;text-transform:none;text-orientation:mixed;white-space:normal;shape-padding:0;isolation:auto;mix-blend-mode:normal;solid-color:#000;solid-opacity:1" d="M12.5 0A3.515 3.515 0 0 0 9 3.5V5H7V3.5A3.495 3.495 0 0 0 2.818.068 3.5 3.5 0 0 0 3.5 7a1 1 0 0 0 .014 0H5v2H3.514A1 1 0 0 0 3.5 9a3.507 3.507 0 0 0-3.234 2.16 3.507 3.507 0 0 0 .76 3.815c.998.999 2.509 1.3 3.814.76A3.507 3.507 0 0 0 7 12.5V11h2v1.5c0 1.413.855 2.694 2.16 3.234 1.305.541 2.816.24 3.815-.76.999-.998 1.3-2.509.76-3.814A3.507 3.507 0 0 0 12.513 9H11V7h1.514v-.002A3.514 3.514 0 0 0 16 3.5C16 1.579 14.421 0 12.5 0zm0 2c.84 0 1.5.66 1.5 1.5S13.34 5 12.5 5H11V3.5c0-.84.66-1.5 1.5-1.5zm-8.857.006A1.5 1.5 0 0 1 5 3.5V5H3.514A1 1 0 0 0 3.5 5c-.61 0-1.153-.363-1.387-.926A1.495 1.495 0 0 1 2.44 2.44a1.497 1.497 0 0 1 1.204-.433zM7 7h2v2H7V7zm-3.5 4a1 1 0 0 0 .014 0H5v1.5c0 .61-.363 1.153-.926 1.387a1.495 1.495 0 0 1-1.635-.326 1.495 1.495 0 0 1-.326-1.635A1.495 1.495 0 0 1 3.5 11zm7.5 0h1.5c.61 0 1.153.363 1.387.926a1.495 1.495 0 0 1-.326 1.635 1.495 1.495 0 0 1-1.635.326A1.495 1.495 0 0 1 11 12.5V11z" color="#000" font-weight="400" font-family="sans-serif" overflow="visible"/>
</svg>
