<svg xmlns="http://www.w3.org/2000/svg" width="16" height="16">
    <path style="line-height:normal;font-variant-ligatures:normal;font-variant-position:normal;font-variant-caps:normal;font-variant-numeric:normal;font-variant-alternates:normal;font-feature-settings:normal;text-indent:0;text-align:start;text-decoration-line:none;text-decoration-style:solid;text-decoration-color:#000;text-transform:none;text-orientation:mixed;shape-padding:0;isolation:auto;mix-blend-mode:normal" d="M1 1a1 1 0 0 0-1 1v9a1 1 0 0 0 1 1h6v1H5a1 1 0 1 0 0 2h6a1 1 0 1 0 0-2H9v-1h6a1 1 0 0 0 1-1V2a1 1 0 0 0-1-1zm1 2h12v7H2z" color="#000" font-weight="400" font-family="sans-serif" white-space="normal" overflow="visible"/>
</svg>
