<svg xmlns="http://www.w3.org/2000/svg" width="16" height="16">
    <path d="M6.008 3a1 1 0 0 0-.903.553L3.383 7H1a1 1 0 0 0-1 1 1 1 0 0 0 1 1h3a1 1 0 0 0 .895-.553L6 6.237l3.105 6.21a1 1 0 0 0 1.79 0L12.617 9H15a1 1 0 0 0 1-1 1 1 0 0 0-1-1h-3a1 1 0 0 0-.895.553L10 9.763l-3.105-6.21A1 1 0 0 0 6.008 3z" style="line-height:normal;font-variant-ligatures:normal;font-variant-position:normal;font-variant-caps:normal;font-variant-numeric:normal;font-variant-alternates:normal;font-variant-east-asian:normal;font-feature-settings:normal;font-variation-settings:normal;text-indent:0;text-align:start;text-decoration-line:none;text-decoration-style:solid;text-decoration-color:#000;text-transform:none;text-orientation:mixed;white-space:normal;shape-padding:0;shape-margin:0;inline-size:0;isolation:auto;mix-blend-mode:normal;solid-color:#000;solid-opacity:1;filter-blend-mode:normal;filter-gaussianBlur-deviation:0" color="#000" font-weight="400" font-family="sans-serif" overflow="visible"/>
</svg>
