<svg xmlns="http://www.w3.org/2000/svg" width="16" height="16">
    <path d="M4.984 0A1 1 0 0 0 4 1v4.586L2.207 3.793A1 1 0 1 0 .793 5.207L3.586 8 .793 10.793a1 1 0 1 0 1.414 1.414L4 10.414V15a1 1 0 0 0 1.707.707l3.5-3.5a1 1 0 0 0 0-1.414L6.414 8l2.793-2.793a1 1 0 0 0 0-1.414l-3.5-3.5A1 1 0 0 0 4.984 0zM6 3.414L7.086 4.5 6 5.586zm0 7L7.086 11.5 6 12.586zm5.99.576a1 1 0 0 0-.697 1.717l.793.793-.793.793a1 1 0 1 0 1.414 1.414l.793-.793.793.793a1 1 0 1 0 1.414-1.414l-.793-.793.793-.793a1 1 0 0 0-.727-1.717 1 1 0 0 0-.687.303l-.793.793-.793-.793a1 1 0 0 0-.717-.303z"/>
</svg>
