<svg xmlns="http://www.w3.org/2000/svg" width="16" height="16">
    <path d="M8 3c-.554 0-1 .446-1 1v1c0 .554.446 1 1 1s1-.446 1-1V4c0-.554-.446-1-1-1zM3.05 5.049a.996.996 0 0 0-.706.295.998.998 0 0 0 0 1.414l.707.707a.998.998 0 0 0 1.414 0 .998.998 0 0 0 0-1.414l-.707-.707a.998.998 0 0 0-.707-.295zm9.9 0a1 1 0 0 0-.708.295l-.707.707a.998.998 0 0 0 0 1.414.998.998 0 0 0 1.414 0l.707-.707a.998.998 0 0 0 0-1.414.998.998 0 0 0-.707-.295zM5 9c-.554 0-1 .446-1 1v2c0 .554.446 1 1 1h6c.554 0 1-.446 1-1v-2c0-.554-.446-1-1-1zm-4 1c-.554 0-1 .446-1 1s.446 1 1 1h1c.554 0 1-.446 1-1s-.446-1-1-1zm13 0c-.554 0-1 .446-1 1s.446 1 1 1h1c.554 0 1-.446 1-1s-.446-1-1-1z"/>
</svg>
