<svg xmlns="http://www.w3.org/2000/svg" width="16" height="16">
    <path style="line-height:normal;font-variant-ligatures:normal;font-variant-position:normal;font-variant-caps:normal;font-variant-numeric:normal;font-variant-alternates:normal;font-feature-settings:normal;text-indent:0;text-align:start;text-decoration-line:none;text-decoration-style:solid;text-decoration-color:#000;text-transform:none;text-orientation:mixed;shape-padding:0;isolation:auto;mix-blend-mode:normal" d="M8.012 0a1 1 0 0 0-.908.557l-1.05 2.127h-.003l-.008.021-.764 1.549-4.08.594a1 1 0 0 0-.554 1.705l2.953 2.879-.698 4.062a1 1 0 0 0 1.452 1.055L8 12.629l3.648 1.92a1 1 0 0 0 1.452-1.055l-.698-4.062 2.953-2.88a1 1 0 0 0-.554-1.704l-4.08-.594L8.896.557A1 1 0 0 0 8.012 0zM8 3.26l1.16 2.35a1 1 0 0 0 .754.546l2.594.377-1.877 1.83a1 1 0 0 0-.287.885l.443 2.588-2.322-1.22A1 1 0 0 0 8 10.5V3.26z"/>
</svg>
