<svg xmlns="http://www.w3.org/2000/svg" width="48" height="48">
    <defs>
        <filter id="a">
            <feGaussianBlur in="SourceAlpha" stdDeviation=".8"/>
            <feOffset dy=".4"/>
            <feComponentTransfer>
                <feFuncA slope=".3" type="linear"/>
            </feComponentTransfer>
            <feMerge>
                <feMergeNode/>
                <feMergeNode in="SourceGraphic"/>
            </feMerge>
        </filter>
    </defs>
    <g transform="translate(0 32)">
        <path fill="#ffc107" d="M23.902-29.998a2 2 0 0 0-1.638 1.006l-20 35C1.502 7.34 2.464 9 4 9h40c1.535 0 2.498-1.659 1.736-2.992l-20-35a2 2 0 0 0-1.834-1.006z" filter="url(#a)"/>
        <path fill="#212121" d="M23.97-16.027A2 2 0 0 0 22-14v8c-.038 2.705 4.038 2.705 4 0v-8a2 2 0 0 0-2.03-2.027z"/>
        <circle fill="#212121" cx="24" r="2"/>
    </g>
</svg>
