<svg xmlns="http://www.w3.org/2000/svg" width="48" height="48">
    <defs>
        <filter id="a">
            <feGaussianBlur in="SourceAlpha" stdDeviation=".8"/>
            <feOffset dy=".4"/>
            <feComponentTransfer>
                <feFuncA slope=".3" type="linear"/>
            </feComponentTransfer>
            <feMerge>
                <feMergeNode/>
                <feMergeNode in="SourceGraphic"/>
            </feMerge>
        </filter>
        <clipPath id="c">
            <path fill="none" stroke="#000" d="M26-30h2l12 12v2H26z"/>
        </clipPath>
        <clipPath id="b">
            <path fill="#fff" fill-rule="evenodd" d="M10-30h18l12 12v30c0 1.108-.892 2-2 2H10c-1.108 0-2-.892-2-2v-40c0-1.108.892-2 2-2z"/>
        </clipPath>
        <clipPath id="d">
            <rect fill="#cfd8dc" width="16" height="20" x="16" y="20" rx="0" ry="0"/>
        </clipPath>
    </defs>
    <g transform="translate(0 32)">
        <path fill="#fafafa" fill-rule="evenodd" d="M10-30h18l12 12v30c0 1.108-.892 2-2 2H10c-1.108 0-2-.892-2-2v-40c0-1.108.892-2 2-2z" filter="url(#a)"/>
        <path fill-rule="evenodd" opacity=".1" d="M30-22c-1.781 0-2.673 2.154-1.414 3.414l12 12C41.846-5.326 43.999-6.219 44-8v-12a2 2 0 0 0-2-2z" clip-path="url(#b)"/>
        <rect fill="#fafafa" fill-rule="evenodd" width="14" height="14" x="28" y="-32" clip-path="url(#c)" filter="url(#a)" rx="2" ry="2"/>
        <rect fill="#cfd8dc" width="16" height="20" x="18" y="-12" rx="2" ry="2"/>
        <path fill="#2196f3" fill-rule="evenodd" d="M15 19v5a1 1 0 1 1 2 0v4a1 1 0 1 0 2 0v-2a1 1 0 1 1 2 0v5a1 1 0 1 0 2 0v-7a1 1 0 1 1 2 0v5a1 1 0 1 0 2 0v-4a1 1 0 1 1 2 0v3a1 1 0 1 0 2 0v-4a1 1 0 1 1 2 0v-5z" clip-path="url(#d)" transform="translate(2 -32)"/>
        <rect fill="#ffc107" width="2" height="20" x="14" y="-12" rx="1" ry="1"/>
        <rect fill="#cfd8dc" width="2" height="2" x="14" y="-8" rx="0" ry="0"/>
        <rect fill="#212121" width="2" height="4" x="14" y="-12" rx="0" ry="0"/>
    </g>
</svg>
