<svg xmlns="http://www.w3.org/2000/svg" width="48" height="48">
    <defs>
        <filter id="a" color-interpolation-filters="sRGB">
            <feFlood flood-opacity=".298" result="flood"/>
            <feComposite in="flood" in2="SourceGraphic" operator="in" result="composite1"/>
            <feGaussianBlur in="composite1" result="blur" stdDeviation=".8"/>
            <feOffset dy=".4" result="offset"/>
            <feComposite in="SourceGraphic" in2="offset" result="composite2"/>
        </filter>
        <clipPath id="c">
            <path d="M26-30h2l12 12v2H26z" fill="none" stroke="#000"/>
        </clipPath>
        <filter id="d" width="1.4" height="1.4" x="-.2" y="-.2" color-interpolation-filters="sRGB">
            <feFlood flood-opacity=".298" result="flood"/>
            <feComposite in="flood" in2="SourceGraphic" operator="in" result="composite1"/>
            <feGaussianBlur in="composite1" result="blur" stdDeviation=".8"/>
            <feOffset dy=".4" result="offset"/>
            <feComposite in="SourceGraphic" in2="offset" result="composite2"/>
        </filter>
        <clipPath id="b">
            <path d="M10-30h18l12 12v30c0 1.108-.892 2-2 2H10c-1.108 0-2-.892-2-2v-40c0-1.108.892-2 2-2z" fill="#fff" fill-rule="evenodd"/>
        </clipPath>
        <clipPath id="e">
            <rect width="16" height="20" x="16" y="20" rx="0" ry="0" fill="#cfd8dc"/>
        </clipPath>
    </defs>
    <g transform="translate(0 32)">
        <path d="M10-30h18l12 12v30c0 1.108-.892 2-2 2H10c-1.108 0-2-.892-2-2v-40c0-1.108.892-2 2-2z" fill="#fafafa" fill-rule="evenodd" filter="url(#a)"/>
        <path d="M30-22c-1.781 0-2.673 2.154-1.414 3.414l12 12C41.846-5.326 43.999-6.219 44-8v-12a2 2 0 0 0-2-2z" clip-path="url(#b)" opacity=".1" fill-rule="evenodd"/>
        <rect width="14" height="14" x="28" y="-32" clip-path="url(#c)" rx="2" ry="2" fill="#fafafa" fill-rule="evenodd" filter="url(#d)"/>
        <rect width="16" height="20" x="18" y="-12" rx="2" ry="2" fill="#cfd8dc"/>
        <path d="M15 19v5a1 1 0 1 1 2 0v4a1 1 0 1 0 2 0v-2a1 1 0 1 1 2 0v5a1 1 0 1 0 2 0v-7a1 1 0 1 1 2 0v5a1 1 0 1 0 2 0v-4a1 1 0 1 1 2 0v3a1 1 0 1 0 2 0v-4a1 1 0 1 1 2 0v-5z" clip-path="url(#e)" transform="translate(2 -32)" fill="#2196f3" fill-rule="evenodd"/>
        <rect width="2" height="20" x="14" y="-12" rx="1" ry="1" fill="#ffc107"/>
        <rect width="2" height="2" x="14" y="-8" rx="0" ry="0" fill="#cfd8dc"/>
        <rect width="2" height="4" x="14" y="-12" rx="0" ry="0" fill="#212121"/>
    </g>
</svg>
