<svg xmlns="http://www.w3.org/2000/svg" width="48" height="48">
    <defs>
        <filter id="a" color-interpolation-filters="sRGB">
            <feFlood flood-opacity=".298" result="flood"/>
            <feComposite in="flood" in2="SourceGraphic" operator="in" result="composite1"/>
            <feGaussianBlur in="composite1" result="blur" stdDeviation=".8"/>
            <feOffset dy=".4" result="offset"/>
            <feComposite in="SourceGraphic" in2="offset" result="composite2"/>
        </filter>
    </defs>
    <g filter="url(#a)" fill-rule="evenodd" transform="translate(0 32)">
        <path d="M24-30C11.944-30 2-20.056 2-8s9.944 22 22 22S46 4.056 46-8s-9.944-22-22-22zm0 16c3.408 0 6 2.592 6 6s-2.592 6-6 6-6-2.592-6-6 2.592-6 6-6z" fill="#03a9f4"/>
        <path d="M24-16c-4.395 0-8 3.605-8 8s3.605 8 8 8 8-3.605 8-8-3.605-8-8-8zm0 4c2.233 0 4 1.767 4 4s-1.767 4-4 4a3.97 3.97 0 0 1-4-4c0-2.233 1.767-4 4-4z" fill="#81d4fa"/>
    </g>
    <path d="M17 7l2 6 2-6 2 6 2-6M28 13v-3M31 13v-3M31 7" fill="none" stroke="#e1f5fe" stroke-width="2" stroke-linecap="round" stroke-linejoin="round"/>
</svg>
