<svg xmlns="http://www.w3.org/2000/svg" width="48" height="48">
    <defs>
        <filter id="a" width="1.4" height="1.4" x="-.2" y="-.2" color-interpolation-filters="sRGB">
            <feFlood flood-opacity=".298" result="flood"/>
            <feComposite in="flood" in2="SourceGraphic" operator="in" result="composite1"/>
            <feGaussianBlur in="composite1" result="blur" stdDeviation=".8"/>
            <feOffset dy=".4" result="offset"/>
            <feComposite in="SourceGraphic" in2="offset" result="composite2"/>
        </filter>
    </defs>
    <path d="M7-25h34V9H7z" fill="#212121" fill-rule="evenodd" stroke="#212121" stroke-width="4" stroke-linecap="round" stroke-linejoin="round" filter="url(#a)" transform="translate(0 32)"/>
    <path d="M10 10h28v28H14l-4-4z" fill="#fafafa" fill-rule="evenodd" stroke="#fafafa" stroke-width="4" stroke-linecap="round" stroke-linejoin="round"/>
    <path d="M8 14h32v20H8z" fill="#2196f3" fill-rule="evenodd"/>
    <path d="M17 18a6 6 0 0 1 6 6 6 6 0 0 1-6 6M30 24a3 3 0 0 1 2.989 2.739 3 3 0 0 1-2.468 3.215 3 3 0 0 1-3.419-2.178M30 24a3 3 0 0 1-2.989-2.739 3 3 0 0 1 2.468-3.215 3 3 0 0 1 3.419 2.178" fill="#2196f3" fill-rule="evenodd" stroke="#e3f2fd" stroke-width="2" stroke-linecap="round" stroke-linejoin="round"/>
    <path d="M17 30h-2V18h2" fill="none" stroke="#e3f2fd" stroke-width="2" stroke-linecap="round" stroke-linejoin="round"/>
</svg>
