<svg xmlns="http://www.w3.org/2000/svg" width="48" height="48">
    <defs>
        <filter id="a" color-interpolation-filters="sRGB">
            <feFlood flood-opacity=".298" result="flood"/>
            <feComposite in="flood" in2="SourceGraphic" operator="in" result="composite1"/>
            <feGaussianBlur in="composite1" result="blur" stdDeviation=".8"/>
            <feOffset dy=".4" result="offset"/>
            <feComposite in="SourceGraphic" in2="offset" result="composite2"/>
        </filter>
    </defs>
    <g transform="translate(0 32)">
        <rect width="38" height="38" x="5" y="-27" rx="2" ry="2" fill="#e91e63" fill-rule="evenodd" filter="url(#a)"/>
        <path d="M27-5a4 4 0 0 1-4-4M33-11a6 6 0 0 1-6 6M25-19a8 8 0 0 1 8 8M15-9a10 10 0 0 1 10-10M27 3A12 12 0 0 1 15-9M23-9a2 2 0 0 1 2-2" fill="none" stroke="#fce4ec" stroke-width="2" stroke-linecap="round" stroke-linejoin="round"/>
    </g>
</svg>
