<svg xmlns="http://www.w3.org/2000/svg" width="48" height="48">
    <defs>
        <filter id="a">
            <feGaussianBlur in="SourceAlpha" stdDeviation=".8"/>
            <feOffset dy=".4"/>
            <feComponentTransfer>
                <feFuncA slope=".3" type="linear"/>
            </feComponentTransfer>
            <feMerge>
                <feMergeNode/>
                <feMergeNode in="SourceGraphic"/>
            </feMerge>
        </filter>
    </defs>
    <g transform="translate(0 32)">
        <rect fill="#e91e63" fill-rule="evenodd" width="38" height="38" x="5" y="-27" filter="url(#a)" rx="2" ry="2"/>
        <path fill="none" stroke="#fce4ec" stroke-linecap="round" stroke-linejoin="round" stroke-width="2" d="M27-5a4 4 0 0 1-4-4m10-2a6 6 0 0 1-6 6m-2-14a8 8 0 0 1 8 8M15-9a10 10 0 0 1 10-10m2 22A12 12 0 0 1 15-9m8 0a2 2 0 0 1 2-2"/>
    </g>
</svg>
