<svg xmlns="http://www.w3.org/2000/svg" width="48" height="48">
    <defs>
        <filter id="a">
            <feGaussianBlur in="SourceAlpha" stdDeviation=".8"/>
            <feOffset dy=".4"/>
            <feComponentTransfer>
                <feFuncA slope=".3" type="linear"/>
            </feComponentTransfer>
            <feMerge>
                <feMergeNode/>
                <feMergeNode in="SourceGraphic"/>
            </feMerge>
        </filter>
        <clipPath id="c">
            <path fill="none" stroke="#000" d="M26-30h2l12 12v2H26z"/>
        </clipPath>
        <clipPath id="b">
            <path fill="#fff" fill-rule="evenodd" d="M10-30h18l12 12v30c0 1.108-.892 2-2 2H10c-1.108 0-2-.892-2-2v-40c0-1.108.892-2 2-2z"/>
        </clipPath>
    </defs>
    <g transform="translate(0 32)">
        <path fill="#fafafa" fill-rule="evenodd" d="M10-30h18l12 12v30c0 1.108-.892 2-2 2H10c-1.108 0-2-.892-2-2v-40c0-1.108.892-2 2-2z" filter="url(#a)"/>
        <path fill-rule="evenodd" opacity=".1" d="M30-22c-1.781 0-2.673 2.154-1.414 3.414l12 12C41.846-5.326 43.999-6.219 44-8v-12a2 2 0 0 0-2-2z" clip-path="url(#b)"/>
        <rect fill="#fafafa" fill-rule="evenodd" width="14" height="14" x="28" y="-32" clip-path="url(#c)" filter="url(#a)" rx="2" ry="2"/>
        <path fill="none" stroke="#9c27b0" stroke-linecap="round" stroke-linejoin="round" stroke-width="2" d="M21-3a3 3 0 0 1 3-3 3 3 0 0 1 3 3m0 2a3 3 0 0 1-1.5 2.598 3 3 0 0 1-3 0A3 3 0 0 1 21-1m0 0v-2m6 2v-2m3 5v-8m4 8h-4"/>
        <path fill="none" stroke="#9c27b0" stroke-linejoin="round" stroke-width="2" d="M16-2a2 2 0 0 1-1.732-1 2 2 0 0 1 0-2A2 2 0 0 1 16-6m0 4a2 2 0 0 1 2 2 2 2 0 0 1-2 2"/>
        <path fill="none" stroke="#9c27b0" stroke-linecap="round" stroke-linejoin="round" stroke-width="2" d="M16 2h-2m4-8h-2m11 8l-2-2"/>
    </g>
</svg>
