<svg xmlns="http://www.w3.org/2000/svg" width="48" height="48">
    <defs>
        <filter id="a">
            <feGaussianBlur in="SourceAlpha" stdDeviation=".8"/>
            <feOffset dy=".4"/>
            <feComponentTransfer>
                <feFuncA slope=".3" type="linear"/>
            </feComponentTransfer>
            <feMerge>
                <feMergeNode/>
                <feMergeNode in="SourceGraphic"/>
            </feMerge>
        </filter>
    </defs>
    <path fill="#212121" fill-rule="evenodd" stroke="#212121" stroke-linecap="round" stroke-linejoin="round" stroke-width="4" d="M7-25h34V9H7z" filter="url(#a)" transform="translate(0 32)"/>
    <path fill="#fafafa" fill-rule="evenodd" stroke="#fafafa" stroke-linecap="round" stroke-linejoin="round" stroke-width="4" d="M10 10h28v28H14l-4-4z"/>
    <path fill="#2196f3" fill-rule="evenodd" d="M8 14h32v20H8z"/>
    <path fill="#2196f3" fill-rule="evenodd" stroke="#e3f2fd" stroke-linecap="round" stroke-linejoin="round" stroke-width="2" d="M17 18a6 6 0 0 1 6 6 6 6 0 0 1-6 6m13-6a3 3 0 0 1 2.989 2.739 3 3 0 0 1-2.468 3.215 3 3 0 0 1-3.419-2.178M30 24a3 3 0 0 1-2.989-2.739 3 3 0 0 1 2.468-3.215 3 3 0 0 1 3.419 2.178"/>
    <path fill="none" stroke="#e3f2fd" stroke-linecap="round" stroke-linejoin="round" stroke-width="2" d="M17 30h-2V18h2"/>
</svg>
