<svg xmlns="http://www.w3.org/2000/svg" width="48" height="48">
    <defs>
        <filter id="a" color-interpolation-filters="sRGB">
            <feFlood flood-opacity=".298" result="flood"/>
            <feComposite in="flood" in2="SourceGraphic" operator="in" result="composite1"/>
            <feGaussianBlur in="composite1" result="blur" stdDeviation=".8"/>
            <feOffset dy=".4" result="offset"/>
            <feComposite in="SourceGraphic" in2="offset" result="composite2"/>
        </filter>
    </defs>
    <g transform="translate(0 32)">
        <rect width="38" height="38" x="5" y="-27" rx="2" ry="2" fill="#607d8b" fill-rule="evenodd" filter="url(#a)"/>
        <path d="M27 2a3 3 0 0 1-3 3 3 3 0 0 1-3-3 3 3 0 0 1 3-3 3 3 0 0 1 3 3zM24-21c-4.395 0-8 3.605-8 8a2 2 0 1 0 4 0c0-2.233 1.767-4 4-4s4 1.767 4 4c0 2.17-1.674 3.887-3.818 3.982a2 2 0 0 0-.211-.01 2 2 0 0 0-1.367.571 2 2 0 0 0-.06.057A2 2 0 0 0 22-6.676V-5a2 2 0 1 0 4 0v-.266c3.436-.896 6-4.03 6-7.734 0-4.395-3.605-8-8-8z" fill="#cfd8dc"/>
    </g>
</svg>
