<svg xmlns="http://www.w3.org/2000/svg" width="48" height="48">
    <defs>
        <filter id="c" width="1.4" height="1.4" x="-.2" y="-.2" color-interpolation-filters="sRGB">
            <feFlood flood-opacity=".298" result="flood"/>
            <feComposite in="flood" in2="SourceGraphic" operator="in" result="composite1"/>
            <feGaussianBlur in="composite1" result="blur" stdDeviation=".8"/>
            <feOffset dy=".4" result="offset"/>
            <feComposite in="SourceGraphic" in2="offset" result="composite2"/>
        </filter>
        <filter id="a" color-interpolation-filters="sRGB">
            <feFlood flood-opacity=".298" result="flood"/>
            <feComposite in="flood" in2="SourceGraphic" operator="in" result="composite1"/>
            <feGaussianBlur in="composite1" result="blur" stdDeviation=".8"/>
            <feOffset dy=".4" result="offset"/>
            <feComposite in="SourceGraphic" in2="offset" result="composite2"/>
        </filter>
        <clipPath id="b">
            <path d="M2-22a2 2 0 0 0-2 2V8a2 2 0 0 0 2 2h40a2 2 0 0 0 2-2v-28a2 2 0 0 0-2-2H26a2 2 0 0 0-1.414.586L22-18.828l-2.586-2.586A2 2 0 0 0 18-22H2z" fill="#5d4037" fill-rule="evenodd"/>
        </clipPath>
    </defs>
    <path d="M4-24a2 2 0 0 0-2 2V6a2 2 0 0 0 2 2h40a2 2 0 0 0 2-2v-28a2 2 0 0 0-2-2H4z" fill="#8d6e63" fill-rule="evenodd" filter="url(#a)" transform="translate(0 32)"/>
    <path d="M36 10v13" fill="none" stroke="#795548" stroke-width="4" stroke-linecap="square" stroke-linejoin="round"/>
    <path d="M32-8a2 2 0 0 0-2 2v8a2 2 0 0 0 .586 1.414l12 12a2 2 0 0 0 2.828 0l6-6a2 2 0 0 0 0-2.828l-14-14A2 2 0 0 0 36-8z" clip-path="url(#b)" transform="translate(2 30)" opacity=".1" fill-rule="evenodd"/>
    <path d="M34-10c-1.108 0-2 .892-2 2v8c0 1.108.892 2 2 2h4c1.108 0 2-.892 2-2v-8c0-1.108-.892-2-2-2zm0 6h4v4h-4z" fill="#cfd8dc" fill-rule="evenodd" filter="url(#c)" transform="translate(0 32)"/>
</svg>
