<svg xmlns="http://www.w3.org/2000/svg" width="48" height="48">
    <defs>
        <filter id="a">
            <feGaussianBlur in="SourceAlpha" stdDeviation=".8"/>
            <feOffset dy=".4"/>
            <feComponentTransfer>
                <feFuncA slope=".3" type="linear"/>
            </feComponentTransfer>
            <feMerge>
                <feMergeNode/>
                <feMergeNode in="SourceGraphic"/>
            </feMerge>
        </filter>
        <clipPath id="c">
            <path fill="none" stroke="#000" d="M26-30h2l12 12v2H26z"/>
        </clipPath>
        <clipPath id="b">
            <path fill="#fff" fill-rule="evenodd" d="M10-30h18l12 12v30c0 1.108-.892 2-2 2H10c-1.108 0-2-.892-2-2v-40c0-1.108.892-2 2-2z"/>
        </clipPath>
    </defs>
    <g transform="translate(0 32)">
        <path fill="#fafafa" fill-rule="evenodd" d="M10-30h18l12 12v30c0 1.108-.892 2-2 2H10c-1.108 0-2-.892-2-2v-40c0-1.108.892-2 2-2z" filter="url(#a)"/>
        <path fill-rule="evenodd" opacity=".1" d="M30-22c-1.781 0-2.673 2.154-1.414 3.414l12 12C41.846-5.326 43.999-6.219 44-8v-12a2 2 0 0 0-2-2z" clip-path="url(#b)"/>
        <rect fill="#fafafa" fill-rule="evenodd" width="14" height="14" x="28" y="-32" clip-path="url(#c)" filter="url(#a)" rx="2" ry="2"/>
        <path fill="none" stroke="#ffc107" stroke-width="4" d="M28-8v7"/>
        <path fill="#3f51b5" fill-rule="evenodd" stroke="#3f51b5" stroke-linecap="round" stroke-linejoin="round" stroke-width="4" d="M16 2v-8h4v-4h6v6h-8v6z"/>
        <path fill="none" stroke="#3f51b5" stroke-width="4" d="M20-3v7"/>
        <path fill="#ffc107" fill-rule="evenodd" stroke="#ffc107" stroke-linecap="round" stroke-linejoin="round" stroke-width="4" d="M32-6v8h-4v4h-6V0h8v-6z"/>
        <circle fill="#fff" fill-rule="evenodd" cx="21" cy="-9" r="1"/>
        <circle fill="#fff" fill-rule="evenodd" cx="27" cy="5" r="1"/>
    </g>
</svg>
