<svg xmlns="http://www.w3.org/2000/svg" width="48" height="48">
    <defs>
        <filter id="a" color-interpolation-filters="sRGB">
            <feFlood flood-opacity=".298" result="flood"/>
            <feComposite in="flood" in2="SourceGraphic" operator="in" result="composite1"/>
            <feGaussianBlur in="composite1" result="blur" stdDeviation=".8"/>
            <feOffset dy=".4" result="offset"/>
            <feComposite in="SourceGraphic" in2="offset" result="composite2"/>
        </filter>
        <clipPath id="c">
            <path d="M26-30h2l12 12v2H26z" fill="none" stroke="#000"/>
        </clipPath>
        <filter id="d" width="1.4" height="1.4" x="-.2" y="-.2" color-interpolation-filters="sRGB">
            <feFlood flood-opacity=".298" result="flood"/>
            <feComposite in="flood" in2="SourceGraphic" operator="in" result="composite1"/>
            <feGaussianBlur in="composite1" result="blur" stdDeviation=".8"/>
            <feOffset dy=".4" result="offset"/>
            <feComposite in="SourceGraphic" in2="offset" result="composite2"/>
        </filter>
        <clipPath id="b">
            <path d="M10-30h18l12 12v30c0 1.108-.892 2-2 2H10c-1.108 0-2-.892-2-2v-40c0-1.108.892-2 2-2z" fill="#fff" fill-rule="evenodd"/>
        </clipPath>
    </defs>
    <g transform="translate(0 32)">
        <path d="M10-30h18l12 12v30c0 1.108-.892 2-2 2H10c-1.108 0-2-.892-2-2v-40c0-1.108.892-2 2-2z" fill="#fafafa" fill-rule="evenodd" filter="url(#a)"/>
        <path d="M30-22c-1.781 0-2.673 2.154-1.414 3.414l12 12C41.846-5.326 43.999-6.219 44-8v-12a2 2 0 0 0-2-2z" clip-path="url(#b)" opacity=".1" fill-rule="evenodd"/>
        <rect width="14" height="14" x="28" y="-32" clip-path="url(#c)" rx="2" ry="2" fill="#fafafa" fill-rule="evenodd" filter="url(#d)"/>
        <path d="M18-5a3 3 0 0 1-3 3M17.986-8.014a3 3 0 0 1 3-3M15-2.014a3 3 0 0 1 3 3M20.986 7a3 3 0 0 1-3-3M18-8v3M18 1v3M29.986-5a2.986 3 0 0 0 2.986 3M30-8.014a2.986 3 0 0 0-2.986-3M32.972-2.014a2.986 3 0 0 1-2.986 3M27.014 7A2.986 3 0 0 1 30 4M29.986-8v3M29.986 1v3" fill="none" stroke="#2196f3" stroke-width="2" stroke-linecap="round" stroke-linejoin="round"/>
    </g>
</svg>
