<svg xmlns="http://www.w3.org/2000/svg" width="48" height="48">
    <defs>
        <filter id="a" color-interpolation-filters="sRGB">
            <feFlood flood-opacity=".298" result="flood"/>
            <feComposite in="flood" in2="SourceGraphic" operator="in" result="composite1"/>
            <feGaussianBlur in="composite1" result="blur" stdDeviation=".8"/>
            <feOffset dy=".4" result="offset"/>
            <feComposite in="SourceGraphic" in2="offset" result="composite2"/>
        </filter>
        <clipPath id="c">
            <path d="M26-30h2l12 12v2H26z" fill="none" stroke="#000"/>
        </clipPath>
        <filter id="d" width="1.4" height="1.4" x="-.2" y="-.2" color-interpolation-filters="sRGB">
            <feFlood flood-opacity=".298" result="flood"/>
            <feComposite in="flood" in2="SourceGraphic" operator="in" result="composite1"/>
            <feGaussianBlur in="composite1" result="blur" stdDeviation=".8"/>
            <feOffset dy=".4" result="offset"/>
            <feComposite in="SourceGraphic" in2="offset" result="composite2"/>
        </filter>
        <clipPath id="b">
            <path d="M10-30h18l12 12v30c0 1.108-.892 2-2 2H10c-1.108 0-2-.892-2-2v-40c0-1.108.892-2 2-2z" fill="#fff" fill-rule="evenodd"/>
        </clipPath>
    </defs>
    <g transform="translate(0 32)">
        <path d="M10-30h18l12 12v30c0 1.108-.892 2-2 2H10c-1.108 0-2-.892-2-2v-40c0-1.108.892-2 2-2z" fill="#fafafa" fill-rule="evenodd" filter="url(#a)"/>
        <path d="M30-22c-1.781 0-2.673 2.154-1.414 3.414l12 12C41.846-5.326 43.999-6.219 44-8v-12a2 2 0 0 0-2-2z" clip-path="url(#b)" opacity=".1" fill-rule="evenodd"/>
        <rect width="14" height="14" x="28" y="-32" clip-path="url(#c)" rx="2" ry="2" fill="#fafafa" fill-rule="evenodd" filter="url(#d)"/>
        <path d="M14.984-4a1 1 0 0 0-.691.293l-1 1a1 1 0 0 0 0 1.414l2 2a1 1 0 0 0 1.414 0l1-1a1 1 0 0 0 0-1.414l-2-2A1 1 0 0 0 14.984-4z" fill="#1976d2"/>
        <path d="M20.984-2a1 1 0 0 0-.691.293l-3 3a1 1 0 0 0 0 1.414l2 2a1 1 0 0 0 1.414 0l3-3a1 1 0 0 0 0-1.414l-2-2A1 1 0 0 0 20.984-2z" fill="#2196f3"/>
        <path d="M23.984 3a1 1 0 0 0-.691.293l-2 2a1 1 0 0 0 0 1.414l2 2a1 1 0 0 0 1.414 0l2-2a1 1 0 0 0 0-1.414l-2-2A1 1 0 0 0 23.984 3z" fill="#1976d2"/>
        <path d="M27.984-1a1 1 0 0 0-.691.293l-2 2a1 1 0 0 0 0 1.414l2 2a1 1 0 0 0 1.414 0l2-2a1 1 0 0 0 0-1.414l-2-2A1 1 0 0 0 27.984-1z" fill="#1e88e5"/>
        <path d="M30.984-6a1 1 0 0 0-.691.293l-2 2a1 1 0 0 0 0 1.414l3 3a1 1 0 0 0 1.414 0l2-2a1 1 0 0 0 0-1.414l-3-3A1 1 0 0 0 30.984-6z" fill="#42a5f5"/>
        <path d="M27.984-9a1 1 0 0 0-.691.293l-2 2a1 1 0 0 0 0 1.414l1 1a1 1 0 0 0 1.414 0l2-2a1 1 0 0 0 0-1.414l-1-1A1 1 0 0 0 27.984-9z" fill="#1976d2"/>
        <path d="M23.984-5a1 1 0 0 0-.691.293l-1 1a1 1 0 0 0 0 1.414l2 2a1 1 0 0 0 1.414 0l1-1a1 1 0 0 0 0-1.414l-2-2A1 1 0 0 0 23.984-5z" fill="#42a5f5"/>
        <path d="M19.984-9a1 1 0 0 0-.691.293l-3 3a1 1 0 0 0 0 1.414l2 2a1 1 0 0 0 1.414 0l3-3a1 1 0 0 0 0-1.414l-2-2A1 1 0 0 0 19.984-9z" fill="#1e88e5"/>
        <path d="M23.984-13a1 1 0 0 0-.691.293l-2 2a1 1 0 0 0 0 1.414l2 2a1 1 0 0 0 1.414 0l2-2a1 1 0 0 0 0-1.414l-2-2a1 1 0 0 0-.723-.293z" fill="#2196f3"/>
    </g>
</svg>
