<svg xmlns="http://www.w3.org/2000/svg" width="48" height="48">
    <defs>
        <filter id="a" color-interpolation-filters="sRGB">
            <feFlood flood-opacity=".298" result="flood"/>
            <feComposite in="flood" in2="SourceGraphic" operator="in" result="composite1"/>
            <feGaussianBlur in="composite1" result="blur" stdDeviation=".8"/>
            <feOffset dy=".4" result="offset"/>
            <feComposite in="SourceGraphic" in2="offset" result="composite2"/>
        </filter>
        <clipPath id="c">
            <path d="M26-30h2l12 12v2H26z" fill="none" stroke="#000"/>
        </clipPath>
        <filter id="d" width="1.4" height="1.4" x="-.2" y="-.2" color-interpolation-filters="sRGB">
            <feFlood flood-opacity=".298" result="flood"/>
            <feComposite in="flood" in2="SourceGraphic" operator="in" result="composite1"/>
            <feGaussianBlur in="composite1" result="blur" stdDeviation=".8"/>
            <feOffset dy=".4" result="offset"/>
            <feComposite in="SourceGraphic" in2="offset" result="composite2"/>
        </filter>
        <clipPath id="b">
            <path d="M10-30h18l12 12v30c0 1.108-.892 2-2 2H10c-1.108 0-2-.892-2-2v-40c0-1.108.892-2 2-2z" fill="#fff" fill-rule="evenodd"/>
        </clipPath>
    </defs>
    <g transform="translate(0 32)" fill-rule="evenodd">
        <path d="M10-30h18l12 12v30c0 1.108-.892 2-2 2H10c-1.108 0-2-.892-2-2v-40c0-1.108.892-2 2-2z" fill="#fafafa" filter="url(#a)"/>
        <path d="M30-22c-1.781 0-2.673 2.154-1.414 3.414l12 12C41.846-5.326 43.999-6.219 44-8v-12a2 2 0 0 0-2-2z" clip-path="url(#b)" opacity=".1"/>
        <rect width="14" height="14" x="28" y="-32" clip-path="url(#c)" rx="2" ry="2" fill="#fafafa" filter="url(#d)"/>
        <rect width="4" height="4" x="30" y="2" rx="1" ry="1" fill="#4caf50"/>
        <rect width="4" height="10" x="30" y="-10" rx="1" ry="1" fill="#4caf50"/>
        <path d="M17-10c-.554 0-1 .446-1 1v2h-1c-.554 0-1 .446-1 1v2c0 .554.446 1 1 1h1v2h-1c-.554 0-1 .446-1 1v2c0 .554.446 1 1 1h1v2c0 .554.446 1 1 1h2c.554 0 1-.446 1-1V3h2v2c0 .554.446 1 1 1h2c.554 0 1-.446 1-1V3h1c.554 0 1-.446 1-1V0c0-.554-.446-1-1-1h-1v-2h1c.554 0 1-.446 1-1v-2c0-.554-.446-1-1-1h-1v-2c0-.554-.446-1-1-1h-2c-.554 0-1 .446-1 1v2h-2v-2c0-.554-.446-1-1-1zm3 7h2v2h-2z" fill="#4caf50"/>
    </g>
</svg>
