<svg xmlns="http://www.w3.org/2000/svg" width="48" height="48">
    <defs>
        <filter id="a" color-interpolation-filters="sRGB">
            <feFlood flood-opacity=".298" result="flood"/>
            <feComposite in="flood" in2="SourceGraphic" operator="in" result="composite1"/>
            <feGaussianBlur in="composite1" result="blur" stdDeviation=".8"/>
            <feOffset dy=".4" result="offset"/>
            <feComposite in="SourceGraphic" in2="offset" result="composite2"/>
        </filter>
    </defs>
    <g fill-rule="evenodd">
        <path d="M4 8c-1.108 0-2 .892-2 2v28c0 1.108.892 2 2 2h40c1.108 0 2-.892 2-2V10c0-1.108-.892-2-2-2H4zm1 2h2c.554 0 1 .446 1 1v2c0 .554-.446 1-1 1H5c-.554 0-1-.446-1-1v-2c0-.554.446-1 1-1zm36 0h2c.554 0 1 .446 1 1v2c0 .554-.446 1-1 1h-2c-.554 0-1-.446-1-1v-2c0-.554.446-1 1-1zM5 16h2c.554 0 1 .446 1 1v2c0 .554-.446 1-1 1H5c-.554 0-1-.446-1-1v-2c0-.554.446-1 1-1zm36 0h2c.554 0 1 .446 1 1v2c0 .554-.446 1-1 1h-2c-.554 0-1-.446-1-1v-2c0-.554.446-1 1-1zM5 22h2c.554 0 1 .446 1 1v2c0 .554-.446 1-1 1H5c-.554 0-1-.446-1-1v-2c0-.554.446-1 1-1zm36 0h2c.554 0 1 .446 1 1v2c0 .554-.446 1-1 1h-2c-.554 0-1-.446-1-1v-2c0-.554.446-1 1-1zM5 28h2c.554 0 1 .446 1 1v2c0 .554-.446 1-1 1H5c-.554 0-1-.446-1-1v-2c0-.554.446-1 1-1zm36 0h2c.554 0 1 .446 1 1v2c0 .554-.446 1-1 1h-2c-.554 0-1-.446-1-1v-2c0-.554.446-1 1-1zM5 34h2c.554 0 1 .446 1 1v2c0 .554-.446 1-1 1H5c-.554 0-1-.446-1-1v-2c0-.554.446-1 1-1zm36 0h2c.554 0 1 .446 1 1v2c0 .554-.446 1-1 1h-2c-.554 0-1-.446-1-1v-2c0-.554.446-1 1-1z" fill="#3f51b5" filter="url(#a)"/>
        <path d="M4 8c-1.108 0-2 .892-2 2v28c0 1.108.892 2 2 2h6V8H4zm1 2h2c.554 0 1 .446 1 1v2c0 .554-.446 1-1 1H5c-.554 0-1-.446-1-1v-2c0-.554.446-1 1-1zm0 6h2c.554 0 1 .446 1 1v2c0 .554-.446 1-1 1H5c-.554 0-1-.446-1-1v-2c0-.554.446-1 1-1zm0 6h2c.554 0 1 .446 1 1v2c0 .554-.446 1-1 1H5c-.554 0-1-.446-1-1v-2c0-.554.446-1 1-1zm0 6h2c.554 0 1 .446 1 1v2c0 .554-.446 1-1 1H5c-.554 0-1-.446-1-1v-2c0-.554.446-1 1-1zm0 6h2c.554 0 1 .446 1 1v2c0 .554-.446 1-1 1H5c-.554 0-1-.446-1-1v-2c0-.554.446-1 1-1zM44 40c1.108 0 2-.892 2-2V10c0-1.108-.892-2-2-2h-6v32zm-1-2h-2c-.554 0-1-.446-1-1v-2c0-.554.446-1 1-1h2c.554 0 1 .446 1 1v2c0 .554-.446 1-1 1zm0-6h-2c-.554 0-1-.446-1-1v-2c0-.554.446-1 1-1h2c.554 0 1 .446 1 1v2c0 .554-.446 1-1 1zm0-6h-2c-.554 0-1-.446-1-1v-2c0-.554.446-1 1-1h2c.554 0 1 .446 1 1v2c0 .554-.446 1-1 1zm0-6h-2c-.554 0-1-.446-1-1v-2c0-.554.446-1 1-1h2c.554 0 1 .446 1 1v2c0 .554-.446 1-1 1zm0-6h-2c-.554 0-1-.446-1-1v-2c0-.554.446-1 1-1h2c.554 0 1 .446 1 1v2c0 .554-.446 1-1 1z" fill="#1a237e"/>
        <path d="M19 17v14l12-7z" fill="#e8eaf6" stroke="#e8eaf6" stroke-width="2" stroke-linecap="round" stroke-linejoin="round"/>
    </g>
</svg>
