<svg xmlns="http://www.w3.org/2000/svg" width="48" height="48">
    <defs>
        <filter id="a" color-interpolation-filters="sRGB">
            <feFlood flood-opacity=".298" result="flood"/>
            <feComposite in="flood" in2="SourceGraphic" operator="in" result="composite1"/>
            <feGaussianBlur in="composite1" result="blur" stdDeviation=".8"/>
            <feOffset dy=".4" result="offset"/>
            <feComposite in="SourceGraphic" in2="offset" result="composite2"/>
        </filter>
        <filter id="d" width="1.4" x="-.2" color-interpolation-filters="sRGB">
            <feFlood flood-opacity=".298" result="flood"/>
            <feComposite in="flood" in2="SourceGraphic" operator="in" result="composite1"/>
            <feGaussianBlur in="composite1" result="blur" stdDeviation=".8"/>
            <feOffset dy=".4" result="offset"/>
            <feComposite in="SourceGraphic" in2="offset" result="composite2"/>
        </filter>
        <clipPath id="c">
            <path d="M10 2c-1.108 0-2 .892-2 2v2c-1.108 0-2 .892-2 2s.892 2 2 2v12c-1.108 0-2 .892-2 2s.892 2 2 2v12c-1.108 0-2 .892-2 2s.892 2 2 2v2c0 1.108.892 2 2 2h28c1.108 0 2-.892 2-2V4c0-1.108-.892-2-2-2z" fill="#2196f3" fill-rule="evenodd"/>
        </clipPath>
        <clipPath id="b">
            <path d="M10 2c-1.108 0-2 .892-2 2v2c-1.108 0-2 .892-2 2s.892 2 2 2v12c-1.108 0-2 .892-2 2s.892 2 2 2v12c-1.108 0-2 .892-2 2s.892 2 2 2v2c0 1.108.892 2 2 2h28c1.108 0 2-.892 2-2V4c0-1.108-.892-2-2-2z" fill="#2196f3" fill-rule="evenodd"/>
        </clipPath>
    </defs>
    <g transform="translate(0 32)">
        <path d="M10-30c-1.108 0-2 .892-2 2v2c-1.108 0-2 .892-2 2s.892 2 2 2V6c-1.108 0-2 .892-2 2s.892 2 2 2v2c0 1.108.892 2 2 2h28c1.108 0 2-.892 2-2v-40c0-1.108-.892-2-2-2z" fill="#2196f3" fill-rule="evenodd" filter="url(#a)"/>
        <rect width="32" height="44" x="8" y="-30" rx="2" ry="2" fill="#2196f3" fill-rule="evenodd"/>
        <circle cx="24" cy="-8" r="4" fill="none" stroke="#e3f2fd" stroke-width="2" stroke-linecap="round" stroke-linejoin="round"/>
        <path d="M24 0a8 8 0 0 1-7.391-4.939 8 8 0 0 1 1.734-8.718 8 8 0 0 1 8.718-1.734A8 8 0 0 1 32-8" fill="none" stroke="#e3f2fd" stroke-width="2" stroke-linecap="round" stroke-linejoin="round"/>
        <path d="M32-6a2 2 0 0 1-1 1.732 2 2 0 0 1-2 0A2 2 0 0 1 28-6" fill="none" stroke="#e3f2fd" stroke-width="2" stroke-linecap="square" stroke-linejoin="round"/>
        <path d="M32 0h-8" fill="none" stroke="#e3f2fd" stroke-width="2" stroke-linecap="round" stroke-linejoin="round"/>
        <path d="M32-8v2M28-8v2" fill="none" stroke="#e3f2fd" stroke-width="2"/>
        <path d="M8 8l34 34v-4L12 8zm0 32l34 34v-4L12 40z" clip-path="url(#b)" transform="translate(0 -32)" opacity=".1" fill="none" stroke="#000" stroke-width="4" stroke-linecap="round" stroke-linejoin="round"/>
        <path d="M8 6c-1.108 0-2 .892-2 2s.892 2 2 2h4c1.108 0 2-.892 2-2s-.892-2-2-2zm0 32c-1.108 0-2 .892-2 2s.892 2 2 2h4c1.108 0 2-.892 2-2s-.892-2-2-2z" clip-path="url(#c)" transform="translate(0 -32)" fill="#cfd8dc" filter="url(#d)"/>
    </g>
</svg>
