<svg xmlns="http://www.w3.org/2000/svg" width="16" height="16">
    <path style="line-height:normal;font-variant-ligatures:normal;font-variant-position:normal;font-variant-caps:normal;font-variant-numeric:normal;font-variant-alternates:normal;font-feature-settings:normal;text-indent:0;text-align:start;text-decoration-line:none;text-decoration-style:solid;text-decoration-color:#000;text-transform:none;text-orientation:mixed;shape-padding:0;isolation:auto;mix-blend-mode:normal" d="M5 0a1 1 0 1 0 0 2v2.75l-3.615 6.78a1 1 0 0 0-.047.103 2.999 2.999 0 0 0 .064 2.867A3.003 3.003 0 0 0 4 16h8c1.07 0 2.063-.573 2.598-1.5a3 3 0 0 0 .058-2.883 1 1 0 0 0-.04-.088L11 4.75V2a1 1 0 1 0 0-2H5zm2 2h2v2.889a1 1 0 0 0 .117.582l3.711 6.959a1 1 0 0 0 .022.04 1 1 0 0 0 .015.03c.18.31.18.69 0 1-.18.31-.506.5-.865.5H4a.995.995 0 0 1-.865-.5.996.996 0 0 1-.004-.992 1 1 0 0 0 .004-.006V12.5a1 1 0 0 0 .015-.03l3.733-7A1 1 0 0 0 7 4.88V2z" color="#000" font-weight="400" font-family="sans-serif" overflow="visible"/>
</svg>
