<svg xmlns="http://www.w3.org/2000/svg" width="16" height="16">
    <path style="line-height:normal;font-variant-ligatures:normal;font-variant-position:normal;font-variant-caps:normal;font-variant-numeric:normal;font-variant-alternates:normal;font-feature-settings:normal;text-indent:0;text-align:start;text-decoration-line:none;text-decoration-style:solid;text-decoration-color:#000;text-transform:none;text-orientation:mixed;shape-padding:0;isolation:auto;mix-blend-mode:normal" d="M5 0C3.355 0 2 1.355 2 3v3c0 .564-.436 1-1 1a1 1 0 1 0 0 2c.564 0 1 .436 1 1v3.186h.018c.045.727.343 1.417.86 1.935A3.001 3.001 0 0 0 5 16a1 1 0 1 0 0-2 .999.999 0 0 1-1-1v-3c0-.769-.304-1.467-.787-2 .443-.49.723-1.12.767-1.814H4V3c0-.564.436-1 1-1a1 1 0 1 0 0-2zm6 0a1 1 0 1 0 0 2c.564 0 1 .436 1 1v3.186h.018c.042.676.31 1.314.765 1.818A2.975 2.975 0 0 0 12 10v3c0 .564-.436 1-1 1a1 1 0 1 0 0 2c1.582 0 2.881-1.256 2.98-2.814H14V10c0-.564.436-1 1-1a1 1 0 1 0 0-2 .999.999 0 0 1-1-1V3c0-1.645-1.355-3-3-3z" color="#000" font-weight="400" font-family="sans-serif" overflow="visible"/>
</svg>
