<svg xmlns="http://www.w3.org/2000/svg" width="16" height="16">
    <path style="line-height:normal;font-variant-ligatures:normal;font-variant-position:normal;font-variant-caps:normal;font-variant-numeric:normal;font-variant-alternates:normal;font-feature-settings:normal;text-indent:0;text-align:start;text-decoration-line:none;text-decoration-style:solid;text-decoration-color:#000;text-transform:none;text-orientation:mixed;shape-padding:0;isolation:auto;mix-blend-mode:normal" d="M3 3a2 2 0 0 0-1.98 1.717l-1 7a2 2 0 0 0 3.394 1.697L6.828 10h2.344l3.414 3.414a2 2 0 0 0 3.394-1.697l-1-7A2 2 0 0 0 13 3H3zm1.5 1.486a.5.5 0 0 1 .508.506V6h1a.5.5 0 1 1 0 1h-1v.992a.5.5 0 1 1-1 0V7h-1a.5.5 0 1 1 0-1h1V4.992a.5.5 0 0 1 .492-.506zm7 .014a.5.5 0 0 1 .5.5.5.5 0 0 1-.5.5.5.5 0 0 1-.5-.5.5.5 0 0 1 .5-.5zM10 6a.5.5 0 0 1 .5.5.5.5 0 0 1-.5.5.5.5 0 0 1-.5-.5.5.5 0 0 1 .5-.5zm3 0a.5.5 0 0 1 .5.5.5.5 0 0 1-.5.5.5.5 0 0 1-.5-.5.5.5 0 0 1 .5-.5zm-1.5 1.5a.5.5 0 0 1 .5.5.5.5 0 0 1-.5.5.5.5 0 0 1-.5-.5.5.5 0 0 1 .5-.5z" color="#000" font-weight="400" font-family="sans-serif" overflow="visible"/>
</svg>
