<svg xmlns="http://www.w3.org/2000/svg" height="16" width="16">
    <path d="M8 0C3.594 0 0 3.594 0 8c0 4.406 3.594 8 8 8 4.27 0 7.709-3.396 7.922-7.615A1 1 0 0 0 16 8a1 1 0 0 0-.078-.389 1 1 0 0 0-.002-.002C15.704 3.394 12.268 0 8 0zm0 2c3.326 0 6 2.674 6 6s-2.674 6-6 6-6-2.674-6-6 2.674-6 6-6z" style="line-height:normal;font-variant-ligatures:normal;font-variant-position:normal;font-variant-caps:normal;font-variant-numeric:normal;font-variant-alternates:normal;font-variant-east-asian:normal;font-feature-settings:normal;font-variation-settings:normal;text-indent:0;text-align:start;text-decoration-line:none;text-decoration-style:solid;text-decoration-color:#000;text-transform:none;text-orientation:mixed;white-space:normal;shape-padding:0;shape-margin:0;inline-size:0;isolation:auto;mix-blend-mode:normal;solid-color:#000;solid-opacity:1;filter-blend-mode:normal;filter-gaussianBlur-deviation:0" color="#000" font-weight="400" font-family="sans-serif" overflow="visible"/>
    <path d="M7 6a1 1 0 0 1-1 1 1 1 0 0 1-1-1 1 1 0 0 1 1-1 1 1 0 0 1 1 1M11 6a1 1 0 0 1-1 1 1 1 0 0 1-1-1 1 1 0 0 1 1-1 1 1 0 0 1 1 1"/>
    <path d="M10.621 8.5a1 1 0 0 0-.889.5c-.358.62-1.016 1-1.732 1s-1.374-.38-1.732-1a1 1 0 0 0-1.366-.365A1 1 0 0 0 4.535 10 4.005 4.005 0 0 0 8 12a4.005 4.005 0 0 0 3.465-2 1 1 0 0 0-.367-1.365 1 1 0 0 0-.477-.135z" style="line-height:normal;font-variant-ligatures:normal;font-variant-position:normal;font-variant-caps:normal;font-variant-numeric:normal;font-variant-alternates:normal;font-variant-east-asian:normal;font-feature-settings:normal;font-variation-settings:normal;text-indent:0;text-align:start;text-decoration-line:none;text-decoration-style:solid;text-decoration-color:#000;text-transform:none;text-orientation:mixed;white-space:normal;shape-padding:0;shape-margin:0;inline-size:0;isolation:auto;mix-blend-mode:normal;solid-color:#000;solid-opacity:1;filter-blend-mode:normal;filter-gaussianBlur-deviation:0" color="#000" font-weight="400" font-family="sans-serif" overflow="visible"/>
</svg>
