<svg xmlns="http://www.w3.org/2000/svg" width="16" height="16">
    <path d="M7 0c-.554 0-1 .446-1 1v1.344a6 6 0 0 0-1.898 1.095l-1.165-.671a.997.997 0 0 0-1.365.367l-1 1.73a.999.999 0 0 0 .366 1.367l1.164.672A6 6 0 0 0 2 8a6 6 0 0 0 .102 1.096l-1.164.672a.999.999 0 0 0-.366 1.367l1 1.73a.997.997 0 0 0 1.365.367l1.165-.671A6 6 0 0 0 6 13.656V15c0 .554.446 1 1 1h2c.554 0 1-.446 1-1v-1.344a6 6 0 0 0 1.898-1.095l1.165.671a.997.997 0 0 0 1.365-.367l1-1.73a.999.999 0 0 0-.366-1.367l-1.164-.672A6 6 0 0 0 14 8a6 6 0 0 0-.102-1.096l1.165-.672a.999.999 0 0 0 .365-1.367l-1-1.73a.997.997 0 0 0-1.366-.367l-1.164.671A6 6 0 0 0 10 2.344V1c0-.554-.446-1-1-1H7zm.94 4H8a4 4 0 0 1 3.473 2.014A4 4 0 0 1 12 8a4 4 0 0 1-.498 1.934A4 4 0 0 1 8.061 12H8a4 4 0 0 1-3.473-2.014A4 4 0 0 1 4 8a4 4 0 0 1 .498-1.934 4 4 0 0 1 .084-.146A4 4 0 0 1 7.939 4zm.011 2A2 2 0 0 0 6 8a2 2 0 0 0 2 2 2 2 0 0 0 2-2 2 2 0 0 0-2-2 2 2 0 0 0-.049 0z"/>
</svg>
