<svg xmlns="http://www.w3.org/2000/svg" width="16" height="16">
    <path d="M8 0a8 8 0 0 0-8 8 8 8 0 0 0 8 8 8 8 0 0 0 8-8 8 8 0 0 0-8-8zm0 3c1.57 0 2.864 1.24 2.979 2.783A1 1 0 0 1 11 6a1 1 0 0 1-.014.18c-.07 1.232-.828 2.077-1.386 2.496-.291.218-.523.37-.608.447A1 1 0 0 1 7 9c0-.583.345-1.079.637-1.346.291-.267.556-.424.763-.58.415-.31.6-.407.6-1.074 0-.564-.436-1-1-1-.564 0-1 .436-1 1a1 1 0 1 1-2 0c0-1.645 1.355-3 3-3zm0 8a1 1 0 0 1 1 1 1 1 0 0 1-1 1 1 1 0 0 1-1-1 1 1 0 0 1 1-1z" fill="#030000"/>
</svg>
