<svg xmlns="http://www.w3.org/2000/svg" width="48" height="48">
    <defs>
        <filter id="a">
            <feGaussianBlur in="SourceAlpha" stdDeviation=".8"/>
            <feOffset dy=".4"/>
            <feComponentTransfer>
                <feFuncA slope=".3" type="linear"/>
            </feComponentTransfer>
            <feMerge>
                <feMergeNode/>
                <feMergeNode in="SourceGraphic"/>
            </feMerge>
        </filter>
        <clipPath id="b">
            <circle r="22" cy="24" cx="24" fill="#f5f5f5" fill-rule="evenodd"/>
        </clipPath>
    </defs>
    <circle r="22" cy="24" cx="24" fill="#FFF" fill-rule="evenodd" filter="url(#a)"/>
    <g clip-path="url(#b)" filter="url(#a)">
        <path d="M21.963 11A1 1 0 0 0 21 12v10a1 1 0 0 0 1 1h4a1 1 0 0 0 1-1v-8a1 1 0 0 0-.553-.895l-4-2a1 1 0 0 0-.484-.105z" style="line-height:normal;font-variant-ligatures:normal;font-variant-position:normal;font-variant-caps:normal;font-variant-numeric:normal;font-variant-alternates:normal;font-feature-settings:normal;text-indent:0;text-align:start;text-decoration-line:none;text-decoration-style:solid;text-decoration-color:#000;text-transform:none;text-orientation:mixed;shape-padding:0;isolation:auto;mix-blend-mode:normal" font-weight="400" overflow="visible" color="#000" white-space="normal" fill="#4fc3f7" enable-background="accumulate"/>
        <path d="M20.984 17.986A1 1 0 0 0 20 19c0 2.773-2.227 5-5 5a1 1 0 0 0-1 1.158V26h20v-.832A1 1 0 0 0 33 24a4.998 4.998 0 0 1-5-5 1 1 0 0 0-1.16-1h-5.686a1 1 0 0 0-.17-.014z" fill="#212121"/>
        <path d="M14 26h20v27H14z" fill="#4fc3f7"/>
    </g>
</svg>
