<svg xmlns="http://www.w3.org/2000/svg" width="48" height="48">
    <defs>
        <clipPath id="b">
            <path fill="none" stroke="#000" d="M-24-8v-24h-24z"/>
        </clipPath>
        <clipPath id="c">
            <path fill="none" stroke="#000" d="M-24-8v-24h-24z"/>
        </clipPath>
        <clipPath id="d">
            <path fill="none" stroke="#000" d="M-24-8v-24h-24z"/>
        </clipPath>
        <clipPath id="e">
            <path fill="none" stroke="#000" d="M-24-8v-24h-24z"/>
        </clipPath>
        <filter id="a">
            <feGaussianBlur in="SourceAlpha" stdDeviation=".8"/>
            <feOffset dy=".4"/>
            <feComponentTransfer>
                <feFuncA slope=".3" type="linear"/>
            </feComponentTransfer>
            <feMerge>
                <feMergeNode/>
                <feMergeNode in="SourceGraphic"/>
            </feMerge>
        </filter>
    </defs>
    <g fill-rule="evenodd">
        <path fill="#fafafa" d="M24 2A22 22 0 0 0 2 24a22 22 0 0 0 22 22 22 22 0 0 0 22-22A22 22 0 0 0 24 2zm0 12a10 10 0 0 1 10 10 10 10 0 0 1-10 10 10 10 0 0 1-10-10 10 10 0 0 1 10-10z" filter="url(#a)"/>
        <path fill="#f44336" d="M-24-30A22 22 0 0 0-46-8a22 22 0 0 0 22 22A22 22 0 0 0-2-8a22 22 0 0 0-22-22zm0 12A10 10 0 0 1-14-8 10 10 0 0 1-24 2 10 10 0 0 1-34-8a10 10 0 0 1 10-10z" clip-path="url(#b)" transform="translate(48 32)"/>
        <path fill="#f44336" d="M-24-30A22 22 0 0 0-46-8a22 22 0 0 0 22 22A22 22 0 0 0-2-8a22 22 0 0 0-22-22zm0 12A10 10 0 0 1-14-8 10 10 0 0 1-24 2 10 10 0 0 1-34-8a10 10 0 0 1 10-10z" clip-path="url(#c)" transform="rotate(-90 16 -16)"/>
        <path fill="#f44336" d="M-24-30A22 22 0 0 0-46-8a22 22 0 0 0 22 22A22 22 0 0 0-2-8a22 22 0 0 0-22-22zm0 12A10 10 0 0 1-14-8 10 10 0 0 1-24 2 10 10 0 0 1-34-8a10 10 0 0 1 10-10z" clip-path="url(#d)" transform="rotate(90 -16 32)"/>
        <path fill="#f44336" d="M-24-30A22 22 0 0 0-46-8a22 22 0 0 0 22 22A22 22 0 0 0-2-8a22 22 0 0 0-22-22zm0 12A10 10 0 0 1-14-8 10 10 0 0 1-24 2 10 10 0 0 1-34-8a10 10 0 0 1 10-10z" clip-path="url(#e)" transform="rotate(180 0 8)"/>
    </g>
</svg>
