<svg xmlns="http://www.w3.org/2000/svg" width="48" height="48">
    <defs>
        <filter id="a">
            <feGaussianBlur in="SourceAlpha" stdDeviation=".8"/>
            <feOffset dy=".4"/>
            <feComponentTransfer>
                <feFuncA slope=".3" type="linear"/>
            </feComponentTransfer>
            <feMerge>
                <feMergeNode/>
                <feMergeNode in="SourceGraphic"/>
            </feMerge>
        </filter>
        <clipPath id="c">
            <rect fill="none" stroke="#607d8b" stroke-linecap="round" stroke-linejoin="round" stroke-width=".1" width="32" height="44" x="8" y="2" rx="2" ry="2"/>
        </clipPath>
        <clipPath id="b">
            <rect fill="none" stroke="#607d8b" stroke-linecap="round" stroke-linejoin="round" stroke-width=".1" width="32" height="44" x="8" y="-30" rx="2" ry="2"/>
        </clipPath>
    </defs>
    <g transform="translate(0 32)">
        <rect fill="#fafafa" fill-rule="evenodd" width="32" height="44" x="8" y="-30" filter="url(#a)" rx="2" ry="2"/>
        <circle fill="#f44336" cx="24" cy="-18" r="6"/>
        <path fill-rule="evenodd" stroke="#000" stroke-linejoin="round" stroke-width="2" opacity=".1" d="M22-9l4 4v-4L40 5v9H20V-1z" clip-path="url(#b)"/>
        <path style="line-height:normal;font-variant-ligatures:normal;font-variant-position:normal;font-variant-caps:normal;font-variant-numeric:normal;font-variant-alternates:normal;font-feature-settings:normal;text-indent:0;text-align:start;text-decoration-line:none;text-decoration-style:solid;text-decoration-color:#000;text-transform:none;text-orientation:mixed;shape-padding:0;isolation:auto;mix-blend-mode:normal" d="M21.97 22a1 1 0 0 0-.878.58l-6 13a1 1 0 0 0-.02.791l4 10A1 1 0 0 0 20 47h8a1 1 0 0 0 .928-.629l4-10a1 1 0 0 0-.02-.79l-6-13C26.458 21.605 25 21.926 25 23v11.541a1 1 0 0 0 .5.865A2.998 2.998 0 0 1 27 38c0 1.669-1.331 3-3 3a2.985 2.985 0 0 1-3-2.998V38a2.999 2.999 0 0 1 1.5-2.594 1 1 0 0 0 .5-.865V23a1 1 0 0 0-1.03-1z" clip-path="url(#c)" transform="translate(0 -32)" color="#000" font-weight="400" font-family="sans-serif" white-space="normal" overflow="visible" fill="#90a4ae" fill-rule="evenodd" filter="url(#a)" enable-background="accumulate"/>
    </g>
</svg>
