<svg xmlns="http://www.w3.org/2000/svg" width="48" height="48">
    <defs>
        <filter id="a">
            <feGaussianBlur in="SourceAlpha" stdDeviation=".8"/>
            <feOffset dy=".4"/>
            <feComponentTransfer>
                <feFuncA slope=".3" type="linear"/>
            </feComponentTransfer>
            <feMerge>
                <feMergeNode/>
                <feMergeNode in="SourceGraphic"/>
            </feMerge>
        </filter>
    </defs>
    <g transform="translate(0 32)">
        <rect fill="#fff" fill-rule="evenodd" width="38" height="38" x="5" y="-27" filter="url(#a)" rx="2" ry="2"/>
        <circle fill="none" stroke="#212121" stroke-linecap="round" stroke-linejoin="round" stroke-width="2" cx="13" cy="-15" r="4"/>
        <circle fill="none" stroke="#212121" stroke-linecap="round" stroke-linejoin="round" stroke-width="2" cx="24" cy="-15" r="4"/>
        <path fill="none" stroke="#212121" stroke-linecap="round" stroke-linejoin="round" stroke-width="2" d="M37.828-12.172a4 4 0 0 1-5.656 0 4 4 0 0 1 0-5.656 4 4 0 0 1 5.656 0M17-15v4m3-12v8M9-3h8v8H9V1h8m3-8V5h8v-8h-8m19 6v2h-8v-8h8v2"/>
    </g>
</svg>
