<?xml version="1.0" encoding="UTF-8" standalone="no"?>
<svg
   xmlns:dc="http://purl.org/dc/elements/1.1/"
   xmlns:cc="http://creativecommons.org/ns#"
   xmlns:rdf="http://www.w3.org/1999/02/22-rdf-syntax-ns#"
   xmlns:svg="http://www.w3.org/2000/svg"
   xmlns="http://www.w3.org/2000/svg"
   xmlns:sodipodi="http://sodipodi.sourceforge.net/DTD/sodipodi-0.dtd"
   xmlns:inkscape="http://www.inkscape.org/namespaces/inkscape"
   width="16"
   height="16"
   version="1.1"
   id="svg4"
   sodipodi:docname="folder-download.svg"
   inkscape:version="0.92.2 2405546, 2018-03-11">
  <metadata
     id="metadata10">
    <rdf:RDF>
      <cc:Work
         rdf:about="">
        <dc:format>image/svg+xml</dc:format>
        <dc:type
           rdf:resource="http://purl.org/dc/dcmitype/StillImage" />
      </cc:Work>
    </rdf:RDF>
  </metadata>
  <defs
     id="defs8" />
  <sodipodi:namedview
     pagecolor="#ffffff"
     bordercolor="#666666"
     borderopacity="1"
     objecttolerance="10"
     gridtolerance="10"
     guidetolerance="10"
     inkscape:pageopacity="0"
     inkscape:pageshadow="2"
     inkscape:window-width="3840"
     inkscape:window-height="2024"
     id="namedview6"
     showgrid="false"
     inkscape:zoom="14.75"
     inkscape:cx="8.1355932"
     inkscape:cy="7.8644068"
     inkscape:window-x="0"
     inkscape:window-y="64"
     inkscape:window-maximized="1"
     inkscape:current-layer="svg4" />
  <path
     fill-rule="evenodd"
     d="M3 14c-1.352-.02-1.352 2.02 0 2h10c1.352.02 1.352-2.02 0-2zM7.957.016A1 1 0 0 0 7 1v8.586L3.707 6.293c-.942-.982-2.396.472-1.414 1.414l5 5a1.44 1.44 0 0 0 .078.07 1.005 1.005 0 0 0 .113.078 1.002 1.002 0 0 0 .141.07c.02.009.041.016.063.022l.03.012a.897.897 0 0 0 .112.025l.014.002a.98.98 0 0 0 .07.01h.002a1.027 1.027 0 0 0 .297-.02 1.033 1.033 0 0 0 .516-.29l4.978-4.979c.982-.942-.472-2.396-1.414-1.414L9 9.586V1A1 1 0 0 0 7.957.016z"
     id="path2"
     style="fill:#6d4c41;fill-opacity:1" />
</svg>
