<svg xmlns="http://www.w3.org/2000/svg" width="48" height="48">
    <defs>
        <filter id="a">
            <feGaussianBlur in="SourceAlpha" stdDeviation=".8"/>
            <feOffset dy=".4"/>
            <feComponentTransfer>
                <feFuncA slope=".3" type="linear"/>
            </feComponentTransfer>
            <feMerge>
                <feMergeNode/>
                <feMergeNode in="SourceGraphic"/>
            </feMerge>
        </filter>
        <clipPath id="c">
            <path fill="none" stroke="#000" d="M26-30h2l12 12v2H26z"/>
        </clipPath>
        <clipPath id="b">
            <path fill="#fff" fill-rule="evenodd" d="M10-30h18l12 12v30c0 1.108-.892 2-2 2H10c-1.108 0-2-.892-2-2v-40c0-1.108.892-2 2-2z"/>
        </clipPath>
    </defs>
    <g fill-rule="evenodd" transform="translate(0 32)">
        <path fill="#fafafa" d="M10-30h18l12 12v30c0 1.108-.892 2-2 2H10c-1.108 0-2-.892-2-2v-40c0-1.108.892-2 2-2z" filter="url(#a)"/>
        <path opacity=".1" d="M30-22c-1.781 0-2.673 2.154-1.414 3.414l12 12C41.846-5.326 43.999-6.219 44-8v-12a2 2 0 0 0-2-2z" clip-path="url(#b)"/>
        <rect fill="#fafafa" width="14" height="14" x="28" y="-32" clip-path="url(#c)" filter="url(#a)" rx="2" ry="2"/>
    </g>
    <path d="M24 20a7 7 0 0 0-7 7 7 7 0 0 0 .05.771c.248 2.666 1.698 5.41 3.104 7.637a40.28 40.28 0 0 0 3.086 4.242 1 1 0 0 0 1.52 0s1.543-1.8 3.086-4.242c1.395-2.21 2.836-4.93 3.1-7.576A7 7 0 0 0 31 27a7 7 0 0 0-7-7zm0 3a4 4 0 0 1 4 4 4 4 0 0 1-4 4 4 4 0 0 1-4-4 4 4 0 0 1 4-4z" fill="#f44336"/>
</svg>
