<svg xmlns="http://www.w3.org/2000/svg" width="48" height="48">
    <defs>
        <filter id="a">
            <feGaussianBlur in="SourceAlpha" stdDeviation=".8"/>
            <feOffset dy=".4"/>
            <feComponentTransfer>
                <feFuncA slope=".3" type="linear"/>
            </feComponentTransfer>
            <feMerge>
                <feMergeNode/>
                <feMergeNode in="SourceGraphic"/>
            </feMerge>
        </filter>
    </defs>
    <g fill-rule="evenodd" filter="url(#a)" transform="translate(0 32)">
        <path fill="#b0bec5" d="M24-30C11.944-30 2-20.056 2-8s9.944 22 22 22S46 4.056 46-8s-9.944-22-22-22zm0 16c3.408 0 6 2.592 6 6s-2.592 6-6 6-6-2.592-6-6 2.592-6 6-6z"/>
        <path fill="#eceff1" d="M24-16c-4.395 0-8 3.605-8 8s3.605 8 8 8 8-3.605 8-8-3.605-8-8-8zm0 4c2.233 0 4 1.767 4 4s-1.767 4-4 4a3.97 3.97 0 0 1-4-4c0-2.233 1.767-4 4-4z"/>
    </g>
</svg>
