<?xml version="1.0" encoding="UTF-8" standalone="no"?>
<svg
   xmlns:dc="http://purl.org/dc/elements/1.1/"
   xmlns:cc="http://creativecommons.org/ns#"
   xmlns:rdf="http://www.w3.org/1999/02/22-rdf-syntax-ns#"
   xmlns:svg="http://www.w3.org/2000/svg"
   xmlns="http://www.w3.org/2000/svg"
   xmlns:sodipodi="http://sodipodi.sourceforge.net/DTD/sodipodi-0.dtd"
   xmlns:inkscape="http://www.inkscape.org/namespaces/inkscape"
   width="48"
   height="48"
   version="1.1"
   id="svg33"
   sodipodi:docname="application-x-desktop.svg"
   inkscape:version="0.92.2 2405546, 2018-03-11">
  <metadata
     id="metadata37">
    <rdf:RDF>
      <cc:Work
         rdf:about="">
        <dc:format>image/svg+xml</dc:format>
        <dc:type
           rdf:resource="http://purl.org/dc/dcmitype/StillImage" />
      </cc:Work>
    </rdf:RDF>
  </metadata>
  <sodipodi:namedview
     pagecolor="#ffffff"
     bordercolor="#666666"
     borderopacity="1"
     objecttolerance="10"
     gridtolerance="10"
     guidetolerance="10"
     inkscape:pageopacity="0"
     inkscape:pageshadow="2"
     inkscape:window-width="3840"
     inkscape:window-height="2024"
     id="namedview35"
     showgrid="false"
     inkscape:zoom="27.812867"
     inkscape:cx="25.190278"
     inkscape:cy="19.40563"
     inkscape:window-x="0"
     inkscape:window-y="64"
     inkscape:window-maximized="1"
     inkscape:current-layer="svg33">
    <inkscape:grid
       type="xygrid"
       id="grid844" />
  </sodipodi:namedview>
  <defs
     id="defs23">
    <filter
       id="a">
      <feGaussianBlur
         in="SourceAlpha"
         stdDeviation=".8"
         id="feGaussianBlur2" />
      <feOffset
         dy=".4"
         id="feOffset4" />
      <feComponentTransfer
         id="feComponentTransfer8">
        <feFuncA
           slope=".3"
           type="linear"
           id="feFuncA6" />
      </feComponentTransfer>
      <feMerge
         id="feMerge14">
        <feMergeNode
           id="feMergeNode10" />
        <feMergeNode
           in="SourceGraphic"
           id="feMergeNode12" />
      </feMerge>
    </filter>
    <clipPath
       id="c">
      <path
         fill="none"
         stroke="#000"
         d="M26-30h2l12 12v2H26z"
         id="path17" />
    </clipPath>
    <clipPath
       id="b">
      <path
         fill="#fff"
         fill-rule="evenodd"
         d="M10-30h18l12 12v30c0 1.108-.892 2-2 2H10c-1.108 0-2-.892-2-2v-40c0-1.108.892-2 2-2z"
         id="path20" />
    </clipPath>
  </defs>
  <g
     fill-rule="evenodd"
     transform="translate(0 32)"
     id="g31">
    <path
       fill="#fafafa"
       d="M10-30h18l12 12v30c0 1.108-.892 2-2 2H10c-1.108 0-2-.892-2-2v-40c0-1.108.892-2 2-2z"
       filter="url(#a)"
       id="path25" />
    <path
       opacity=".1"
       d="M30-22c-1.781 0-2.673 2.154-1.414 3.414l12 12C41.846-5.326 43.999-6.219 44-8v-12a2 2 0 0 0-2-2z"
       clip-path="url(#b)"
       id="path27" />
    <rect
       fill="#fafafa"
       width="14"
       height="14"
       x="28"
       y="-32"
       clip-path="url(#c)"
       filter="url(#a)"
       rx="2"
       ry="2"
       id="rect29" />
  </g>
  <path
     style="color:#000000;font-style:normal;font-variant:normal;font-weight:normal;font-stretch:normal;font-size:medium;line-height:normal;font-family:sans-serif;font-variant-ligatures:normal;font-variant-position:normal;font-variant-caps:normal;font-variant-numeric:normal;font-variant-alternates:normal;font-feature-settings:normal;text-indent:0;text-align:start;text-decoration:none;text-decoration-line:none;text-decoration-style:solid;text-decoration-color:#000000;letter-spacing:normal;word-spacing:normal;text-transform:none;writing-mode:lr-tb;direction:ltr;text-orientation:mixed;dominant-baseline:auto;baseline-shift:baseline;text-anchor:start;white-space:normal;shape-padding:0;clip-rule:nonzero;display:inline;overflow:visible;visibility:visible;opacity:1;isolation:auto;mix-blend-mode:normal;color-interpolation:sRGB;color-interpolation-filters:linearRGB;solid-color:#000000;solid-opacity:1;vector-effect:none;fill:#616161;fill-opacity:1;fill-rule:nonzero;stroke:none;stroke-width:2;stroke-linecap:round;stroke-linejoin:round;stroke-miterlimit:4;stroke-dasharray:none;stroke-dashoffset:0;stroke-opacity:1;color-rendering:auto;image-rendering:auto;shape-rendering:auto;text-rendering:auto;enable-background:accumulate"
     d="M 15 20 A 1.0001 1.0001 0 0 0 14 21 L 14 39 A 1.0001 1.0001 0 0 0 15 40 L 33 40 A 1.0001 1.0001 0 0 0 34 39 L 34 21 A 1.0001 1.0001 0 0 0 33 20 L 15 20 z M 21 22 L 27 22 A 1.0001 1.0001 0 1 1 27 24 L 21 24 A 1.0001 1.0001 0 1 1 21 22 z M 31 22 A 1 1 0 0 1 32 23 A 1 1 0 0 1 31 24 A 1 1 0 0 1 30 23 A 1 1 0 0 1 31 22 z M 16 26 L 32 26 L 32 38 L 16 38 L 16 26 z "
     id="path848" />
</svg>
