<svg xmlns="http://www.w3.org/2000/svg" width="48" height="48">
    <defs>
        <filter id="a">
            <feGaussianBlur in="SourceAlpha" stdDeviation=".8"/>
            <feOffset dy=".4"/>
            <feComponentTransfer>
                <feFuncA slope=".3" type="linear"/>
            </feComponentTransfer>
            <feMerge>
                <feMergeNode/>
                <feMergeNode in="SourceGraphic"/>
            </feMerge>
        </filter>
        <clipPath id="c">
            <path fill="none" stroke="#000" d="M26-30h2l12 12v2H26z"/>
        </clipPath>
        <clipPath id="b">
            <path fill="#fff" fill-rule="evenodd" d="M10-30h18l12 12v30c0 1.108-.892 2-2 2H10c-1.108 0-2-.892-2-2v-40c0-1.108.892-2 2-2z"/>
        </clipPath>
    </defs>
    <path d="M10 2h18l12 12v30c0 1.108-.892 2-2 2H10c-1.108 0-2-.892-2-2V4c0-1.108.892-2 2-2z" fill="#fafafa" fill-rule="evenodd" filter="url(#a)"/>
    <path clip-path="url(#b)" d="M30-22c-1.781 0-2.673 2.154-1.414 3.414l12 12C41.846-5.326 43.999-6.219 44-8v-12a2 2 0 0 0-2-2z" transform="translate(0 32)" opacity=".1" fill-rule="evenodd"/>
    <rect ry="2" rx="2" clip-path="url(#c)" y="-32" x="28" height="14" width="14" transform="translate(0 32)" fill="#fafafa" fill-rule="evenodd" filter="url(#a)"/>
    <circle r="9" cy="30" cx="24" fill="none" stroke="#009688" stroke-width="2" stroke-linecap="round" stroke-linejoin="round"/>
    <ellipse ry="9" rx="5" cy="30" cx="24" fill="none" stroke="#009688" stroke-width="2" stroke-linecap="round" stroke-linejoin="round"/>
    <path d="M24 21v18m9-9H15m17 4H16m16-8H16" fill="none" stroke="#009688" stroke-width="2" stroke-linecap="round" stroke-linejoin="round"/>
</svg>
