<svg xmlns="http://www.w3.org/2000/svg" width="48" height="48">
    <defs>
        <filter id="a">
            <feGaussianBlur in="SourceAlpha" stdDeviation=".8"/>
            <feOffset dy=".4"/>
            <feComponentTransfer>
                <feFuncA slope=".3" type="linear"/>
            </feComponentTransfer>
            <feMerge>
                <feMergeNode/>
                <feMergeNode in="SourceGraphic"/>
            </feMerge>
        </filter>
        <clipPath id="c">
            <path fill="none" stroke="#000" d="M26-30h2l12 12v2H26z"/>
        </clipPath>
        <clipPath id="b">
            <path fill="#fff" fill-rule="evenodd" d="M10-30h18l12 12v30c0 1.108-.892 2-2 2H10c-1.108 0-2-.892-2-2v-40c0-1.108.892-2 2-2z"/>
        </clipPath>
    </defs>
    <g transform="translate(0 32)">
        <path fill="#fafafa" fill-rule="evenodd" d="M10-30h18l12 12v30c0 1.108-.892 2-2 2H10c-1.108 0-2-.892-2-2v-40c0-1.108.892-2 2-2z" filter="url(#a)"/>
        <path fill-rule="evenodd" opacity=".1" d="M30-22c-1.781 0-2.673 2.154-1.414 3.414l12 12C41.846-5.326 43.999-6.219 44-8v-12a2 2 0 0 0-2-2z" clip-path="url(#b)"/>
        <rect fill="#fafafa" fill-rule="evenodd" width="14" height="14" x="28" y="-32" clip-path="url(#c)" filter="url(#a)" rx="2" ry="2"/>
        <path fill="#1976d2" d="M14.984-4a1 1 0 0 0-.691.293l-1 1a1 1 0 0 0 0 1.414l2 2a1 1 0 0 0 1.414 0l1-1a1 1 0 0 0 0-1.414l-2-2A1 1 0 0 0 14.984-4z"/>
        <path fill="#2196f3" d="M20.984-2a1 1 0 0 0-.691.293l-3 3a1 1 0 0 0 0 1.414l2 2a1 1 0 0 0 1.414 0l3-3a1 1 0 0 0 0-1.414l-2-2A1 1 0 0 0 20.984-2z"/>
        <path fill="#1976d2" d="M23.984 3a1 1 0 0 0-.691.293l-2 2a1 1 0 0 0 0 1.414l2 2a1 1 0 0 0 1.414 0l2-2a1 1 0 0 0 0-1.414l-2-2A1 1 0 0 0 23.984 3z"/>
        <path fill="#1e88e5" d="M27.984-1a1 1 0 0 0-.691.293l-2 2a1 1 0 0 0 0 1.414l2 2a1 1 0 0 0 1.414 0l2-2a1 1 0 0 0 0-1.414l-2-2A1 1 0 0 0 27.984-1z"/>
        <path fill="#42a5f5" d="M30.984-6a1 1 0 0 0-.691.293l-2 2a1 1 0 0 0 0 1.414l3 3a1 1 0 0 0 1.414 0l2-2a1 1 0 0 0 0-1.414l-3-3A1 1 0 0 0 30.984-6z"/>
        <path fill="#1976d2" d="M27.984-9a1 1 0 0 0-.691.293l-2 2a1 1 0 0 0 0 1.414l1 1a1 1 0 0 0 1.414 0l2-2a1 1 0 0 0 0-1.414l-1-1A1 1 0 0 0 27.984-9z"/>
        <path fill="#42a5f5" d="M23.984-5a1 1 0 0 0-.691.293l-1 1a1 1 0 0 0 0 1.414l2 2a1 1 0 0 0 1.414 0l1-1a1 1 0 0 0 0-1.414l-2-2A1 1 0 0 0 23.984-5z"/>
        <path fill="#1e88e5" d="M19.984-9a1 1 0 0 0-.691.293l-3 3a1 1 0 0 0 0 1.414l2 2a1 1 0 0 0 1.414 0l3-3a1 1 0 0 0 0-1.414l-2-2A1 1 0 0 0 19.984-9z"/>
        <path fill="#2196f3" d="M23.984-13a1 1 0 0 0-.691.293l-2 2a1 1 0 0 0 0 1.414l2 2a1 1 0 0 0 1.414 0l2-2a1 1 0 0 0 0-1.414l-2-2a1 1 0 0 0-.723-.293z"/>
    </g>
</svg>
