<svg xmlns="http://www.w3.org/2000/svg" width="48" height="48">
    <defs>
        <filter id="a" color-interpolation-filters="sRGB">
            <feFlood flood-opacity=".298" result="flood"/>
            <feComposite in="flood" in2="SourceGraphic" operator="in" result="composite1"/>
            <feGaussianBlur in="composite1" result="blur" stdDeviation=".8"/>
            <feOffset dy=".4" result="offset"/>
            <feComposite in="SourceGraphic" in2="offset" result="composite2"/>
        </filter>
        <filter id="c" color-interpolation-filters="sRGB">
            <feFlood flood-opacity=".298" result="flood"/>
            <feComposite in="flood" in2="SourceGraphic" operator="in" result="composite1"/>
            <feGaussianBlur in="composite1" result="blur" stdDeviation=".8"/>
            <feOffset dy=".4" result="offset"/>
            <feComposite in="SourceGraphic" in2="offset" result="composite2"/>
        </filter>
        <clipPath id="b">
            <rect width="44" height="26" x="2" y="-21" rx="2" ry="2" fill="#e0e0e0" fill-rule="evenodd"/>
        </clipPath>
    </defs>
    <g transform="translate(0 32)">
        <rect width="44" height="26" x="2" y="-21" rx="2" ry="2" fill="#e0e0e0" fill-rule="evenodd" filter="url(#a)"/>
        <path d="M6 1v-2h6L6-7v-2h6l-6-6v-2h2l6 6v-6h2l6 6v-6h2l6 6v-6h2l6 6v-6h4l6 6V7H12z" clip-path="url(#b)" opacity=".1" fill-rule="evenodd" stroke="#000" stroke-width="4" stroke-linecap="round" stroke-linejoin="round"/>
        <g filter="url(#c)" fill="#212121">
            <rect width="6" height="6" x="4" y="-19" rx="2" ry="2"/>
            <rect width="8" height="6" x="4" y="-11" rx="2" ry="2"/>
            <rect width="6" height="6" x="12" y="-19" rx="2" ry="2"/>
            <rect width="6" height="6" x="14" y="-11" rx="2" ry="2"/>
            <rect width="6" height="6" x="20" y="-19" rx="2" ry="2"/>
            <rect width="6" height="6" x="22" y="-11" rx="2" ry="2"/>
            <rect width="6" height="6" x="28" y="-19" rx="2" ry="2"/>
            <rect width="6" height="6" x="30" y="-11" rx="2" ry="2"/>
            <rect width="8" height="6" x="36" y="-19" rx="2" ry="2"/>
            <rect width="6" height="6" x="38" y="-11" rx="2" ry="2"/>
            <rect width="20" height="6" x="14" y="-3" rx="2" ry="2"/>
            <rect width="8" height="6" x="4" y="-3" rx="2" ry="2"/>
            <rect width="8" height="6" x="36" y="-3" rx="2" ry="2"/>
        </g>
    </g>
</svg>
