<svg xmlns="http://www.w3.org/2000/svg" width="48" height="48">
    <defs>
        <filter id="a">
            <feGaussianBlur in="SourceAlpha" stdDeviation=".8"/>
            <feOffset dy=".4"/>
            <feComponentTransfer>
                <feFuncA slope=".3" type="linear"/>
            </feComponentTransfer>
            <feMerge>
                <feMergeNode/>
                <feMergeNode in="SourceGraphic"/>
            </feMerge>
        </filter>
    </defs>
    <path fill="#03a9f4" d="M24-24a30.002 30.002 0 0 0-21.213 8.787 2 2 0 0 0 0 2.828l19.799 19.8a2 2 0 0 0 2.828 0l19.799-19.8a2 2 0 0 0 0-2.828A30.002 30.002 0 0 0 24-24z" filter="url(#a)" transform="translate(0 32)"/>
    <path fill="#29b6f6" d="M24 16c-6.781 0-12.857 3.089-16.896 7.932l15.482 15.482c.39.39.902.586 1.414.586.512 0 1.024-.196 1.414-.586l15.482-15.482C36.857 19.089 30.781 16 24 16z"/>
    <path fill="#4fc3f7" d="M24 24c-4.573 0-8.635 2.224-11.193 5.635l9.779 9.78c.39.39.902.585 1.414.585.512 0 1.024-.196 1.414-.586l9.78-9.78C32.634 26.225 28.572 24 24 24z"/>
    <path fill="#81d4fa" d="M24 32c-2.37 0-4.432 1.408-5.404 3.424l3.99 3.99c.39.39.902.586 1.414.586.512 0 1.024-.196 1.414-.586l3.99-3.99C28.432 33.408 26.37 32 24 32z"/>
</svg>
