<svg xmlns="http://www.w3.org/2000/svg" width="16" height="16">
    <path d="M1 0a1 1 0 0 0-1 1v12a1 1 0 0 0 1 1h8.283A1.958 1.958 0 0 1 9 13c0-1.09.91-2 2-2 0-1.09.91-2 2-2 .364 0 .703.108 1 .283V4a1 1 0 0 0-.293-.707l-3-3A1 1 0 0 0 10 0zm3 1h4c.554 0 1 .446 1 1v1c0 .554-.446 1-1 1H4c-.554 0-1-.446-1-1V2c0-.554.446-1 1-1zm3 6c2.667 0 2.667 4 0 4S4.333 7 7 7zm6 3c-.554 0-1 .446-1 1v1h-1c-.554 0-1 .446-1 1s.446 1 1 1h1v1c0 .554.446 1 1 1s1-.446 1-1v-1h1c.554 0 1-.446 1-1s-.446-1-1-1h-1v-1c0-.554-.446-1-1-1z" fill-rule="evenodd"/>
</svg>
