<?xml version="1.0" encoding="UTF-8" standalone="no"?>
<svg
   xmlns:dc="http://purl.org/dc/elements/1.1/"
   xmlns:cc="http://creativecommons.org/ns#"
   xmlns:rdf="http://www.w3.org/1999/02/22-rdf-syntax-ns#"
   xmlns:svg="http://www.w3.org/2000/svg"
   xmlns="http://www.w3.org/2000/svg"
   xmlns:sodipodi="http://sodipodi.sourceforge.net/DTD/sodipodi-0.dtd"
   xmlns:inkscape="http://www.inkscape.org/namespaces/inkscape"
   width="16"
   height="16"
   version="1.1"
   id="svg4"
   sodipodi:docname="document-save-as-symbolic.svg"
   inkscape:version="0.92.2 2405546, 2018-03-11">
  <metadata
     id="metadata10">
    <rdf:RDF>
      <cc:Work
         rdf:about="">
        <dc:format>image/svg+xml</dc:format>
        <dc:type
           rdf:resource="http://purl.org/dc/dcmitype/StillImage" />
      </cc:Work>
    </rdf:RDF>
  </metadata>
  <defs
     id="defs8" />
  <sodipodi:namedview
     pagecolor="#ffffff"
     bordercolor="#666666"
     borderopacity="1"
     objecttolerance="10"
     gridtolerance="10"
     guidetolerance="10"
     inkscape:pageopacity="0"
     inkscape:pageshadow="2"
     inkscape:window-width="3840"
     inkscape:window-height="2024"
     id="namedview6"
     showgrid="false"
     inkscape:zoom="29.5"
     inkscape:cx="13.156818"
     inkscape:cy="13.448947"
     inkscape:window-x="0"
     inkscape:window-y="64"
     inkscape:window-maximized="1"
     inkscape:current-layer="svg4">
    <inkscape:grid
       type="xygrid"
       id="grid817" />
  </sodipodi:namedview>
  <path
     style="fill-rule:evenodd"
     d="M 1 0 A 1 1 0 0 0 0 1 L 0 13 A 1 1 0 0 0 1 14 L 9.2832031 14 C 9.1077387 13.703481 9 13.363969 9 13 C 9 11.909297 9.9092972 11 11 11 C 11 9.9092972 11.909297 9 13 9 C 13.363969 9 13.703481 9.1077387 14 9.2832031 L 14 4 A 1 1 0 0 0 13.707031 3.2929688 L 10.707031 0.29296875 A 1 1 0 0 0 10 0 L 1 0 z M 2 1 L 9 1 C 9.554 1 10 1.446 10 2 L 10 3 C 10 3.554 9.554 4 9 4 L 2 4 C 1.446 4 1 3.554 1 3 L 1 2 C 1 1.446 1.446 1 2 1 z M 7 8 A 2 2 0 0 1 7 12 A 2 2 0 0 1 7 8 z M 13 10 C 12.446 10 12 10.446 12 11 L 12 12 L 11 12 C 10.446 12 10 12.446 10 13 C 10 13.554 10.446 14 11 14 L 12 14 L 12 15 C 12 15.554 12.446 16 13 16 C 13.554 16 14 15.554 14 15 L 14 14 L 15 14 C 15.554 14 16 13.554 16 13 C 16 12.446 15.554 12 15 12 L 14 12 L 14 11 C 14 10.446 13.554 10 13 10 z "
     id="path2" />
</svg>
