<svg xmlns="http://www.w3.org/2000/svg" width="16" height="16">
    <path d="M16.029 7.995c0-.897-1.091-1.34-1.717-.697l-5.293 5.293V1.005c-.02-1.315-1.981-1.315-2 0v11.586L1.726 7.298C.784 6.316-.67 7.77.312 8.712l7 7 .01.01a.675.675 0 0 0 .064.056l.012.01a1 1 0 0 0 .068.051l.012.008.025.014a1.002 1.002 0 0 0 .14.07l.015.006a1 1 0 0 0 .08.027l.013.004c.028.008.056.014.084.02l.014.002a.998.998 0 0 0 .084.011h.002c.029.004.057.004.086.004h.027A1 1 0 0 0 8.134 16l.014-.002a.985.985 0 0 0 .273-.078l.014-.006a1 1 0 0 0 .076-.037l.014-.008a1 1 0 0 0 .07-.047l.012-.007a1.004 1.004 0 0 0 .078-.063l.014-.012a.95.95 0 0 0 .027-.027l.022-.02 6.978-6.98a1 1 0 0 0 .303-.717z" fill-rule="evenodd"/>
</svg>
