<svg xmlns="http://www.w3.org/2000/svg" width="16" height="16">
    <path overflow="visible" font-family="sans-serif" font-weight="400" color="#000" style="line-height:normal;font-variant-ligatures:normal;font-variant-position:normal;font-variant-caps:normal;font-variant-numeric:normal;font-variant-alternates:normal;font-variant-east-asian:normal;font-feature-settings:normal;font-variation-settings:normal;text-indent:0;text-align:start;text-decoration-line:none;text-decoration-style:solid;text-decoration-color:#000;text-transform:none;text-orientation:mixed;white-space:normal;shape-padding:0;shape-margin:0;inline-size:0;isolation:auto;mix-blend-mode:normal;solid-color:#000;solid-opacity:1;filter-blend-mode:normal;filter-gaussianBlur-deviation:0" d="M1 1a1 1 0 0 0-1 1v11a1 1 0 0 0 1 1h14a1 1 0 0 0 1-1V4a1 1 0 0 0-1-1H9.414L7.707 1.293A1 1 0 0 0 7 1H1zm1 2h4.586l1.707 1.707A1 1 0 0 0 9 5h5v7H2V3z" fill="#8d6e63"/>
</svg>
