<svg xmlns="http://www.w3.org/2000/svg" height="16" width="16">
    <path style="line-height:normal;font-variant-ligatures:normal;font-variant-position:normal;font-variant-caps:normal;font-variant-numeric:normal;font-variant-alternates:normal;font-variant-east-asian:normal;font-feature-settings:normal;font-variation-settings:normal;text-indent:0;text-align:start;text-decoration-line:none;text-decoration-style:solid;text-decoration-color:#000;text-transform:none;text-orientation:mixed;white-space:normal;shape-padding:0;shape-margin:0;inline-size:0;isolation:auto;mix-blend-mode:normal;solid-color:#000;solid-opacity:1;filter-blend-mode:normal;filter-gaussianBlur-deviation:0" d="M8 3c-1.545.001-2.89.822-3.828 2.016C4.116 5.013 4.062 5 4.006 5A1 1 0 0 0 4 5C1.803 5 0 6.803 0 9s1.803 4 4 4h8.5c1.921 0 3.5-1.579 3.5-3.5S14.421 6 12.5 6a1 1 0 0 0-.002 0c-.79-1.77-2.503-2.997-4.496-3A1 1 0 0 0 8 3zm-.002 2H8a2.992 2.992 0 0 1 2.914 2.31 1 1 0 0 0 1.225.739c.118-.03.239-.048.361-.049h.002c.84.001 1.498.66 1.498 1.5s-.66 1.5-1.5 1.5H4c-1.116 0-2-.884-2-2a1.985 1.985 0 0 1 2.336-1.969 1 1 0 0 0 1.049-.496A2.995 2.995 0 0 1 7.998 5z" color="#000" font-weight="400" font-family="sans-serif" overflow="visible" fill="#2196f3"/>
</svg>
