<svg xmlns="http://www.w3.org/2000/svg" width="16" height="16">
    <path fill-rule="evenodd" d="M4.97 0a1 1 0 0 0-.677.293l-4 4A1 1 0 0 0 0 5v6a1 1 0 0 0 .293.707l4 4C4.923 16.337 6 15.891 6 15V1a1 1 0 0 0-1.03-1z"/>
    <path d="M8.049 0a1 1 0 1 0-.014 2A5.985 5.985 0 0 1 14 8.018 5.985 5.985 0 0 1 8 14a1 1 0 1 0 0 2c4.397 0 7.987-3.58 8-7.977C16.013 3.626 12.446.026 8.049 0z"/>
    <path d="M8.03 3a1 1 0 1 0-.012 2A2.986 2.986 0 0 1 11 8.01 2.984 2.984 0 0 1 8 11a1 1 0 1 0 0 2c2.744 0 4.992-2.24 5-4.984.008-2.744-2.227-5-4.97-5.016z"/>
    <path d="M8 6a1 1 0 0 0-1 1v2a1 1 0 0 0 1 1c1.093 0 2-.907 2-2s-.907-2-2-2z"/>
</svg>
