<svg xmlns="http://www.w3.org/2000/svg" width="16" height="16">
    <g fill-rule="evenodd">
        <path d="M7 0a1 1 0 0 0-1 1v1H4a1 1 0 0 0-1 1v12a1 1 0 0 0 1 1h8a1 1 0 0 0 1-1V3a1 1 0 0 0-1-1h-2V1a1 1 0 0 0-1-1H7zm1.021 3.973a2 2 0 0 1 1.875 2.66l-.167.506a2 2 0 0 1 1.167 2.494l-1 3a2 2 0 1 1-3.792-1.266l.167-.506a2 2 0 0 1-1.167-2.494l1-3A2 2 0 0 1 8.02 3.973z"/>
        <path d="M8.012 4.986a1 1 0 0 0-.961.698l-1 3A1 1 0 0 0 7 10h.611l-.56 1.684a1 1 0 1 0 1.898.632l1-3A1 1 0 0 0 9 8h-.611l.56-1.684a1 1 0 0 0-.937-1.33z"/>
    </g>
</svg>
