<svg xmlns="http://www.w3.org/2000/svg" width="16" height="16">
    <path fill-rule="evenodd" d="M8 2C5.233 2 2.47 3.116.293 5.293a1 1 0 0 0 0 1.414l7 7a1 1 0 0 0 1.414 0l7-7a1 1 0 0 0 0-1.414C13.53 3.116 10.767 2 8 2zm0 2c1.92 0 3.792.794 5.451 2.135L8 11.585l-5.451-5.45C4.209 4.794 6.08 4 8 4z"/>
    <path d="M8 5c-.823 0-1.5.677-1.5 1.5a.5.5 0 1 0 1 0c0-.282.218-.5.5-.5.282 0 .5.218.5.5 0 .282-.218.5-.5.5a.5.5 0 1 0 0 1c.823 0 1.5-.677 1.5-1.5S8.823 5 8 5z"/>
    <path fill-rule="evenodd" d="M8 8.5a.5.5 0 1 0 0 1 .5.5 0 1 0 0-1z"/>
</svg>
