<?xml version="1.0" encoding="UTF-8" standalone="no"?>
<!-- Created with Inkscape (http://www.inkscape.org/) -->

<svg
   xmlns:dc="http://purl.org/dc/elements/1.1/"
   xmlns:cc="http://creativecommons.org/ns#"
   xmlns:rdf="http://www.w3.org/1999/02/22-rdf-syntax-ns#"
   xmlns:svg="http://www.w3.org/2000/svg"
   xmlns="http://www.w3.org/2000/svg"
   xmlns:sodipodi="http://sodipodi.sourceforge.net/DTD/sodipodi-0.dtd"
   xmlns:inkscape="http://www.inkscape.org/namespaces/inkscape"
   width="48"
   height="48"
   id="svg4152"
   version="1.1"
   inkscape:version="0.91 r13725"
   viewBox="0 0 48 48"
   sodipodi:docname="go-previous-symbolic.svg">
  <defs
     id="defs4154" />
  <sodipodi:namedview
     id="base"
     pagecolor="#ededed"
     bordercolor="#000000"
     borderopacity="0.49803922"
     inkscape:pageopacity="0"
     inkscape:pageshadow="2"
     inkscape:zoom="11.098901"
     inkscape:cx="26.55019"
     inkscape:cy="24.011392"
     inkscape:current-layer="layer1"
     showgrid="true"
     inkscape:grid-bbox="true"
     inkscape:document-units="px"
     inkscape:showpageshadow="false"
     borderlayer="true"
     inkscape:window-width="1920"
     inkscape:window-height="1012"
     inkscape:window-x="0"
     inkscape:window-y="32"
     inkscape:window-maximized="1">
    <inkscape:grid
       type="xygrid"
       id="grid4700"
       color="#000000"
       opacity="0.0627451"
       empcolor="#000000"
       empopacity="0.1254902"
       empspacing="4"
       spacingx="2"
       spacingy="2" />
  </sodipodi:namedview>
  <metadata
     id="metadata4157">
    <rdf:RDF>
      <cc:Work
         rdf:about="">
        <dc:format>image/svg+xml</dc:format>
        <dc:type
           rdf:resource="http://purl.org/dc/dcmitype/StillImage" />
        <dc:title />
      </cc:Work>
    </rdf:RDF>
  </metadata>
  <g
     id="layer1"
     inkscape:label="Layer 1"
     inkscape:groupmode="layer"
     transform="translate(0,32)">
    <path
       style="color:#000000;font-style:normal;font-variant:normal;font-weight:normal;font-stretch:normal;font-size:medium;line-height:normal;font-family:sans-serif;text-indent:0;text-align:start;text-decoration:none;text-decoration-line:none;text-decoration-style:solid;text-decoration-color:#000000;letter-spacing:normal;word-spacing:normal;text-transform:none;direction:ltr;block-progression:tb;writing-mode:lr-tb;baseline-shift:baseline;text-anchor:start;white-space:normal;clip-rule:nonzero;display:inline;overflow:visible;visibility:visible;opacity:1;isolation:auto;mix-blend-mode:normal;color-interpolation:sRGB;color-interpolation-filters:linearRGB;solid-color:#000000;solid-opacity:1;fill:#000000;fill-opacity:1;fill-rule:evenodd;stroke:none;stroke-width:6;stroke-linecap:round;stroke-linejoin:round;stroke-miterlimit:4;stroke-dasharray:none;stroke-dashoffset:0;stroke-opacity:1;color-rendering:auto;image-rendering:auto;shape-rendering:auto;text-rendering:auto;enable-background:accumulate"
       d="m 24.012092,14.042184 a 3.0003,3.0003 0 0 0 2.064453,-5.0898439 l -13.878906,-13.878906 31.757811,0 a 3.0003,3.0003 0 1 0 0,-6.0000001 l -31.757811,0 13.878906,-13.878906 a 3.0003,3.0003 0 1 0 -4.242188,-4.242188 l -18.9999997,19 a 3.0003,3.0003 0 0 0 -0.01172,0.01367 3.0003,3.0003 0 0 0 -0.09961,0.1093751 3.0003,3.0003 0 0 0 -0.107422,0.125 3.0003,3.0003 0 0 0 -0.0098,0.0098 3.0003,3.0003 0 0 0 -0.04297,0.06055 3.0003,3.0003 0 0 0 -0.123047,0.171875 3.0003,3.0003 0 0 0 -0.0078,0.0098 3.0003,3.0003 0 0 0 -0.0293,0.05078 3.0003,3.0003 0 0 0 -0.117188,0.205078 3.0003,3.0003 0 0 0 -0.0039,0.0059 3.0003,3.0003 0 0 0 -0.105469,0.232422 3.0003,3.0003 0 0 0 -0.0039,0.0098 3.0003,3.0003 0 0 0 -0.05859,0.167969 3.0003,3.0003 0 0 0 -0.04297,0.132813 3.0003,3.0003 0 0 0 -0.02148,0.08203 3.0003,3.0003 0 0 0 -0.04883,0.222656 3.0003,3.0003 0 0 0 0,0.0019 3.0003,3.0003 0 0 0 -0.0039,0.02734 3.0003,3.0003 0 0 0 -0.0293,0.246094 3.0003,3.0003 0 0 0 -0.0059,0.136718 3.0003,3.0003 0 0 0 -0.0039,0.177735 3.0003,3.0003 0 0 0 0,0.0098 3.0003,3.0003 0 0 0 0.0059,0.06445 3.0003,3.0003 0 0 0 0.01563,0.220703 3.0003,3.0003 0 0 0 0.01953,0.117187 3.0003,3.0003 0 0 0 0.03125,0.166016 3.0003,3.0003 0 0 0 0.05469,0.201172 3.0003,3.0003 0 0 0 0.01953,0.07031 3.0003,3.0003 0 0 0 0.0059,0.01367 3.0003,3.0003 0 0 0 0.04883,0.132812 3.0003,3.0003 0 0 0 0.06641,0.166016 3.0003,3.0003 0 0 0 0.0039,0.0098 3.0003,3.0003 0 0 0 0.03125,0.06055 3.0003,3.0003 0 0 0 0.101562,0.193359 3.0003,3.0003 0 0 0 0.0059,0.01172 3.0003,3.0003 0 0 0 0.03125,0.04687 3.0003,3.0003 0 0 0 0.13086,0.201172 3.0003,3.0003 0 0 0 0.002,0.002 3.0003,3.0003 0 0 0 0.01367,0.01758 3.0003,3.0003 0 0 0 0.164062,0.203125 3.0003,3.0003 0 0 0 0.0096,0.01366 3.0003,3.0003 0 0 0 0.115234,0.121094 L 21.834319,13.194711 a 3.0003,3.0003 0 0 0 2.177735,0.847656 z"
       id="path4135"
       inkscape:connector-curvature="0" />
  </g>
</svg>
