<svg xmlns="http://www.w3.org/2000/svg" width="16" height="16">
    <path d="M8.024-.01c.897 0 1.34 1.091.697 1.717L3.428 7h11.586c1.315.019 1.315 1.981 0 2H3.428l5.293 5.293c.982.942-.471 2.396-1.414 1.414l-7-7-.01-.01a1 1 0 0 1-.056-.064L.23 8.62a1 1 0 0 1-.05-.068L.171 8.54a1 1 0 0 1-.084-.166l-.006-.014a1 1 0 0 1-.027-.08l-.004-.013a1.002 1.002 0 0 1-.02-.084L.03 8.17a1.002 1.002 0 0 1-.012-.084v-.002a1.002 1.002 0 0 1-.004-.086v-.027a1 1 0 0 1 .006-.086l.002-.014A1.001 1.001 0 0 1 .1 7.598l.006-.014a1 1 0 0 1 .037-.076l.008-.014a1 1 0 0 1 .047-.07l.008-.012c.006-.008.012-.016.02-.023a1 1 0 0 1 .042-.055L.28 7.32l.027-.027.022-.022L7.307.293a1 1 0 0 1 .717-.303z" fill-rule="evenodd"/>
</svg>
