<svg xmlns="http://www.w3.org/2000/svg" width="48" height="48">
    <defs>
        <filter id="a" color-interpolation-filters="sRGB">
            <feFlood flood-opacity=".498" result="flood"/>
            <feComposite in="flood" in2="SourceGraphic" operator="in" result="composite1"/>
            <feGaussianBlur in="composite1" result="blur" stdDeviation=".8"/>
            <feOffset dy=".4" result="offset"/>
            <feComposite in="SourceGraphic" in2="offset" result="composite2"/>
        </filter>
    </defs>
    <path fill="#ff9800" d="M15.96 9.98a2 2 0 0 0-1.374.606l-12 12a2 2 0 0 0 0 2.828l12 12a2 2 0 1 0 2.828-2.828L8.828 26h30.344l-8.586 8.586a2 2 0 1 0 2.828 2.828l12-12a2 2 0 0 0 0-2.828l-12-12a2 2 0 0 0-1.435-.606 2 2 0 0 0-1.393 3.434L39.172 22H8.828l8.586-8.586a2 2 0 0 0-1.453-3.434z" filter="url(#a)"/>
</svg>
