<svg xmlns="http://www.w3.org/2000/svg" width="48" height="48">
    <defs>
        <filter id="a">
            <feGaussianBlur in="SourceAlpha" stdDeviation=".8"/>
            <feOffset dy=".4"/>
            <feComponentTransfer>
                <feFuncA slope=".3" type="linear"/>
            </feComponentTransfer>
            <feMerge>
                <feMergeNode/>
                <feMergeNode in="SourceGraphic"/>
            </feMerge>
        </filter>
    </defs>
    <path fill="#ff9800" d="M38.024-16.035a2 2 0 0 0-.606-1.375l-12-12a2 2 0 0 0-2.828 0l-12 12a2 2 0 1 0 2.828 2.828l8.586-8.586V7.176L13.418-1.41a2 2 0 1 0-2.828 2.828l12 12a2 2 0 0 0 2.828 0l12-12a2 2 0 0 0 .606-1.435A2 2 0 0 0 34.59-1.41l-8.586 8.586v-30.344l8.586 8.586a2 2 0 0 0 3.434-1.453z" filter="url(#a)" transform="translate(0 32)"/>
</svg>
