<svg xmlns="http://www.w3.org/2000/svg" width="48" height="48">
    <defs>
        <filter id="a" color-interpolation-filters="sRGB">
            <feFlood flood-opacity=".498" result="flood"/>
            <feComposite in="flood" in2="SourceGraphic" operator="in" result="composite1"/>
            <feGaussianBlur in="composite1" result="blur" stdDeviation=".8"/>
            <feOffset dy=".4" result="offset"/>
            <feComposite in="SourceGraphic" in2="offset" result="composite2"/>
        </filter>
    </defs>
    <path d="M38.024-16.035a2 2 0 0 0-.606-1.375l-12-12a2 2 0 0 0-2.828 0l-12 12a2 2 0 1 0 2.828 2.828l8.586-8.586V7.176L13.418-1.41a2 2 0 1 0-2.828 2.828l12 12a2 2 0 0 0 2.828 0l12-12a2 2 0 0 0 .606-1.435A2 2 0 0 0 34.59-1.41l-8.586 8.586v-30.344l8.586 8.586a2 2 0 0 0 3.434-1.453z" fill="#ff9800" filter="url(#a)" transform="translate(0 32)"/>
</svg>
